<?xml version="1.0" encoding="UTF-8"?>
<svg id="Layer_1" xmlns="http://www.w3.org/2000/svg" version="1.1" viewBox="0 0 320.59 257.73">
  <!-- Generator: Adobe Illustrator 29.3.1, SVG Export Plug-In . SVG Version: 2.1.0 Build 151)  -->
  <defs>
    <style>
      .st0 {
        fill: #2a51a3;
      }
    </style>
  </defs>
  <g>
    <g>
      <path class="st0" d="M113.38,98.84c0-6.79.65-13.42,1.87-19.86-5.78-3.64-12.08-6.34-18.52-8.05l42.8-60.38V0H14.95v35.76h64.49l-40.45,56.57v10.26h24.33c25.8,0,39.57,9.97,39.57,27.85,0,18.76-14.66,29.9-33.71,29.9s-30.78-10.26-41.62-26.67L0,153.01c12.6,25.21,37.23,43.97,70.35,43.97,27.87,0,52.19-12.99,64.48-34.26-13.46-17.78-21.45-39.91-21.45-63.87"/>
      <path class="st0" d="M292.95,99.42h-13.46c0,.15.01.29.01.44,0,9.33-2.15,18.16-5.97,26.03l12.87,7.24c1.39.78,1.89,2.56,1.11,3.96l-.16.29c-.78,1.39-2.56,1.89-3.96,1.11l-12.83-7.22c-4.19,6.76-9.7,12.61-16.17,17.22.05.07.11.13.15.21l7.39,12.8c.8,1.38.32,3.17-1.06,3.97l-.29.17c-1.38.8-3.17.32-3.97-1.06l-7.38-12.78c-7.62,4.32-16.28,7.02-25.51,7.61l.16,14.47c.02,1.6-1.27,2.92-2.87,2.94h-.34c-1.6.02-2.92-1.27-2.94-2.87l-.16-14.45c-23.99-.89-44.35-15.94-52.99-37.03h0c-2.84-6.95-4.41-14.55-4.41-22.52,0-18.84,8.75-35.63,22.39-46.55h-.09c9.7-7.8,21.87-12.66,35.17-13.14v-14.65c0-1.6,1.31-2.91,2.91-2.91h.34c1.6,0,2.91,1.31,2.91,2.91v14.74c7.61.5,14.84,2.42,21.41,5.52l6.13-12.05c.72-1.42,2.48-2,3.91-1.27l.3.15c1.42.72,2,2.48,1.27,3.91l-6.18,12.16c6.58,3.97,12.33,9.18,16.93,15.3l11.98-6.92c1.38-.8,3.17-.32,3.97,1.06l.17.29c.8,1.38.32,3.17-1.06,3.97l-11.61,6.7c4.32,7.19,7.17,15.37,8.13,24.11h13.82c1.6,0,2.91,1.31,2.91,2.91v.34c0,1.6-1.31,2.91-2.91,2.91M219.83,1.08c-37.75,0-70.54,21.18-87.17,52.3h-.1c-7.42,13.87-11.64,29.72-11.64,46.55,0,21.3,6.76,41.02,18.23,57.16h.18c17.91,25.14,47.28,41.55,80.5,41.55,54.55,0,98.78-44.23,98.78-98.78S274.38,1.08,219.83,1.08"/>
      <path class="st0" d="M247.64,130.45c-.85,0-1.71-.33-2.34-1l-26.53-27.55c-.58-.61-.91-1.41-.91-2.26v-38.19c0-1.8,1.46-3.25,3.25-3.25s3.25,1.45,3.25,3.25v36.88l25.62,26.61c1.25,1.29,1.21,3.35-.09,4.6-.63.61-1.44.91-2.26.91"/>
      <path class="st0" d="M5.86,247.72l6.38-4.8c2.47,3.43,5.69,6.59,11.12,6.59,3.98,0,6.45-1.85,6.45-5.01,0-2.95-2.2-3.98-5.76-5.63l-4.87-2.2c-6.24-2.81-10.98-6.52-10.98-13.04,0-7.82,6.52-12.83,15.03-12.83,7.2,0,12.28,3.64,14.96,8.58l-6.31,4.87c-2.2-3.29-4.94-5.22-8.65-5.22-3.02,0-5.63,1.37-5.63,4.39,0,2.61,1.99,3.71,5.28,5.22l5.15,2.26c7.14,3.16,11.18,6.79,11.18,13.24,0,8.44-6.86,13.59-15.85,13.59-7.82,0-14.14-3.98-17.5-10.02"/>
    </g>
    <polygon class="st0" points="47.1 211.62 77.56 211.62 77.56 219.99 56.36 219.99 56.36 229.19 71.94 229.19 71.94 237.08 56.36 237.08 56.36 248.54 78.38 248.54 78.38 256.91 47.1 256.91 47.1 211.62"/>
    <g>
      <path class="st0" d="M82.59,234.27c0-13.31,10.64-23.47,24.15-23.47,8.72,0,15.99,4.32,19.97,11.25l-7,4.94c-3.02-4.8-7.27-7.62-12.97-7.62-8.44,0-14.61,6.17-14.61,14.96s6.18,14.82,14.61,14.82c5.69,0,9.95-2.81,12.97-7.62l7,4.94c-3.91,6.93-11.25,11.25-20.04,11.25-13.45,0-24.08-10.15-24.08-23.47"/>
      <path class="st0" d="M169.05,234.27c0-8.72-6.24-14.89-14.55-14.89s-14.55,6.17-14.55,14.89,6.11,14.89,14.55,14.89,14.55-6.11,14.55-14.89M130.41,234.27c0-13.31,10.7-23.47,24.02-23.47s24.15,10.15,24.15,23.47-10.84,23.47-24.15,23.47-24.02-10.15-24.02-23.47"/>
    </g>
    <polygon class="st0" points="224.8 211.62 224.8 257.73 221.72 257.73 195.5 229.74 195.5 256.91 186.24 256.91 186.24 210.8 189.26 210.8 215.54 238.66 215.54 211.62 224.8 211.62"/>
    <path class="st0" d="M249.82,248.54c9.13,0,15.23-5.69,15.23-14.41s-6.11-14.14-15.23-14.14h-5.49v28.55h5.49ZM235.07,211.62h14.82c14.55,0,24.7,8.92,24.7,22.5s-10.15,22.78-24.7,22.78h-14.82v-45.29Z"/>
    <path class="st0" d="M278.23,247.72l6.38-4.8c2.47,3.43,5.69,6.59,11.12,6.59,3.98,0,6.45-1.85,6.45-5.01,0-2.95-2.2-3.98-5.76-5.63l-4.87-2.2c-6.24-2.81-10.98-6.52-10.98-13.04,0-7.82,6.52-12.83,15.03-12.83,7.2,0,12.28,3.64,14.96,8.58l-6.31,4.87c-2.2-3.29-4.94-5.22-8.65-5.22-3.02,0-5.63,1.37-5.63,4.39,0,2.61,1.99,3.71,5.28,5.22l5.15,2.26c7.14,3.16,11.18,6.79,11.18,13.24,0,8.44-6.86,13.59-15.85,13.59-7.82,0-14.14-3.98-17.5-10.02"/>
  </g>
  <path class="st0" d="M316.06,214.54c.21,0,.34-.12.34-.3,0-.2-.13-.32-.34-.32h-.42v.63h.42ZM316.01,211.67c-1.74,0-3.11,1.4-3.11,3.2s1.34,3.22,3.11,3.22c.83,0,1.57-.32,2.12-.85h-1.18l-1.14-1.37-.17.03v1.34h-1.56v-4.71h1.98c1.14,0,1.93.7,1.93,1.7,0,.52-.21.97-.61,1.29l1.03,1.41c.44-.56.7-1.27.7-2.06,0-1.79-1.36-3.2-3.09-3.2M316.01,219.51c-2.54,0-4.61-2.09-4.61-4.65s2.07-4.63,4.61-4.63,4.58,2.08,4.58,4.63-2.05,4.65-4.58,4.65"/>
</svg>