<svg width="188" height="60" viewBox="0 0 188 60" fill="none" xmlns="http://www.w3.org/2000/svg">
<path fill-rule="evenodd" clip-rule="evenodd" d="M0 3.79206V3.77111C0 1.69821 1.56205 0 3.80205 0C5.177 0 6.00064 0.458475 6.67716 1.125L5.65643 2.30237C5.09369 1.792 4.52095 1.47921 3.79158 1.47921C2.56232 1.47921 1.67679 2.49995 1.67679 3.75016V3.77111C1.67679 5.02132 2.54184 6.06301 3.79158 6.06301C4.62521 6.06301 5.13558 5.72927 5.70832 5.2089L6.72953 6.24011C5.97969 7.04185 5.14606 7.54222 3.73921 7.54222C1.59395 7.54222 0 5.88542 0 3.79206" transform="translate(1.02832 52.1928)" fill="#8BBF41"/>
<path fill-rule="evenodd" clip-rule="evenodd" d="M0 0H1.60442V5.83353H5.23985V7.29179H0V0Z" transform="translate(13.209 52.318)" fill="#8BBF41"/>
<path fill-rule="evenodd" clip-rule="evenodd" d="M0 0H5.50074V1.42684H1.59395V2.90605H5.03132V4.33385H1.59395V5.86448H5.55264V7.29179H0V0Z" transform="translate(23.8262 52.318)" fill="#8BBF41"/>
<path fill-rule="evenodd" clip-rule="evenodd" d="M4.81221 4.29195L3.84384 1.92722L2.875 4.29195H4.81221ZM3.12505 0H4.60427L7.72932 7.34416H6.05206L5.38553 5.7088H2.30237L1.63537 7.34416H0L3.12505 0Z" transform="translate(34.3506 52.2657)" fill="#8BBF41"/>
<path fill-rule="evenodd" clip-rule="evenodd" d="M0 0H1.47921L4.89611 4.49001V0H6.47959V7.29179H5.11511L1.58348 2.65611V7.29179H0V0Z" transform="translate(47.375 52.318)" fill="#8BBF41"/>
<mask id="mask0" mask-type="alpha" maskUnits="userSpaceOnUse" x="0" y="0" width="188" height="60">
<path fill-rule="evenodd" clip-rule="evenodd" d="M0 59.735H187.988V0H0V59.735Z" fill="white"/>
</mask>
<g mask="url(#mask0)">
<path fill-rule="evenodd" clip-rule="evenodd" d="M0 7.29179H1.60442V0H0V7.29179Z" transform="translate(59.8477 52.318)" fill="#8BBF41"/>
<path fill-rule="evenodd" clip-rule="evenodd" d="M0 0H1.47921L4.89611 4.49001V0H6.47959V7.29179H5.11511L1.58348 2.65611V7.29179H0V0Z" transform="translate(67.4434 52.318)" fill="#8BBF41"/>
<path fill-rule="evenodd" clip-rule="evenodd" d="M0 3.79206V3.77111C0 1.69821 1.61442 0 3.823 0C5.13558 0 5.92732 0.354211 6.68764 1.00027L5.67737 2.21858C5.11463 1.75011 4.61474 1.47921 3.77111 1.47921C2.60421 1.47921 1.67679 2.5109 1.67679 3.75016V3.77111C1.67679 5.10464 2.59374 6.08348 3.88537 6.08348C4.46906 6.08348 4.98942 5.93779 5.396 5.64643V4.60427H3.78111V3.21884H6.94806V6.3858C6.19822 7.02138 5.167 7.54222 3.83348 7.54222C1.56205 7.54222 0 5.94827 0 3.79206" transform="translate(79.5205 52.1928)" fill="#8BBF41"/>
<path fill-rule="evenodd" clip-rule="evenodd" d="M2.87518 3.67731C3.67786 3.67731 4.14634 3.19789 4.14634 2.57326V2.55231C4.14634 1.83342 3.64597 1.44778 2.84423 1.44778H1.60449V3.67731H2.87518ZM0 0H2.97937C4.719 0 5.77116 1.03121 5.77116 2.5209V2.54184C5.77116 4.22958 4.45858 5.10464 2.82321 5.10464H1.60442V7.29227H0V0Z" transform="translate(99.4741 52.3178)" fill="#8BBF41"/>
<path fill-rule="evenodd" clip-rule="evenodd" d="M3.22939 3.54163C4.01113 3.54163 4.45865 3.12505 4.45865 2.51042V2.48947C4.45865 1.802 3.97923 1.44778 3.19844 1.44778H1.60449V3.54163H3.22939ZM0 0H3.33358C4.26053 0 4.97943 0.259945 5.45885 0.738892C5.86495 1.14547 6.08348 1.71868 6.08348 2.40568V2.42663C6.08348 3.604 5.44837 4.34385 4.52095 4.68711L6.30248 7.29179H4.42764L2.86463 4.95848H1.60442V7.29179H0V0Z" transform="translate(110.602 52.3182)" fill="#8BBF41"/>
<path fill-rule="evenodd" clip-rule="evenodd" d="M6.07299 3.79206V3.77111C6.07299 2.5209 5.15651 1.47922 3.8644 1.47922C2.57277 1.47922 1.67725 2.49995 1.67725 3.75017V3.77111C1.67725 5.02133 2.59372 6.06301 3.88535 6.06301C5.17698 6.06301 6.07299 5.0418 6.07299 3.79206V3.79206ZM0 3.79206V3.77111C0 1.69821 1.63537 0 3.88537 0C6.13585 0 7.75027 1.67726 7.75027 3.75016V3.77111C7.75027 5.84448 6.1149 7.54222 3.86442 7.54222C1.61442 7.54222 0 5.86495 0 3.79206V3.79206Z" transform="translate(121.981 52.1928)" fill="#8BBF41"/>
<path fill-rule="evenodd" clip-rule="evenodd" d="M1.60449 1.44778V5.844H2.84423C4.15633 5.844 5.04234 4.95847 5.04234 3.66684V3.64589C5.04234 2.35378 4.15633 1.44778 2.84423 1.44778H1.60449ZM0 0H2.84416C5.13558 0 6.71906 1.573 6.71906 3.62495V3.6459C6.71906 5.69832 5.13558 7.29179 2.84416 7.29179H0V0Z" transform="translate(135.329 52.318)" fill="#8BBF41"/>
<path fill-rule="evenodd" clip-rule="evenodd" d="M0 4.16674V0H1.60395V4.12484C1.60395 5.31269 2.19763 5.92732 3.17742 5.92732C4.15627 5.92732 4.75043 5.33364 4.75043 4.17721V0H6.35437V4.11485C6.35437 6.32295 5.11463 7.40653 3.15648 7.40653C1.19784 7.40653 0 6.31295 0 4.16674" transform="translate(147.53 52.318)" fill="#8BBF41"/>
<path fill-rule="evenodd" clip-rule="evenodd" d="M0 3.79206V3.77111C0 1.69821 1.56205 0 3.80205 0C5.177 0 6.00064 0.458475 6.67716 1.125L5.65643 2.30237C5.09369 1.792 4.52095 1.47921 3.79158 1.47921C2.56232 1.47921 1.67679 2.49995 1.67679 3.75016V3.77111C1.67679 5.02132 2.54184 6.06301 3.79158 6.06301C4.62521 6.06301 5.13558 5.72927 5.70832 5.2089L6.72953 6.24011C5.97969 7.04185 5.14606 7.54222 3.73921 7.54222C1.59395 7.54222 0 5.88542 0 3.79206" transform="translate(159.368 52.1928)" fill="#8BBF41"/>
<path fill-rule="evenodd" clip-rule="evenodd" d="M2.21858 1.47874H0V0H6.04158V1.47874H3.823V7.29179H2.21858V1.47874Z" transform="translate(171.027 52.3181)" fill="#8BBF41"/>
<path fill-rule="evenodd" clip-rule="evenodd" d="M0 6.3339L0.947895 5.19795C1.60395 5.73974 2.29142 6.08395 3.12458 6.08395C3.78111 6.08395 4.17721 5.82353 4.17721 5.396V5.37506C4.17721 4.96895 3.92727 4.76042 2.708 4.44811C1.23974 4.07295 0.291367 3.66685 0.291367 2.21858V2.19763C0.291367 0.875054 1.354 0 2.84416 0C3.90632 0 4.81232 0.333263 5.55216 0.927423L4.719 2.13574C4.07295 1.68726 3.43785 1.41684 2.82321 1.41684C2.20858 1.41684 1.88532 1.69821 1.88532 2.05242V2.0729C1.88532 2.55232 2.19763 2.70848 3.45879 3.03127C4.93753 3.4169 5.77116 3.94821 5.77116 5.2189V5.23985C5.77116 6.68764 4.66711 7.50032 3.09363 7.50032C1.98958 7.50032 0.875053 7.11517 0 6.3339" transform="translate(181.812 52.2137)" fill="#8BBF41"/>
<path fill-rule="evenodd" clip-rule="evenodd" d="M45.2285 3.16362C45.2285 1.42399 43.805 0 42.0649 0H3.16362C1.42351 0 0 1.42399 0 3.16362V38.8623C13.1134 31.7357 28.4183 26.0802 45.2285 22.331V3.16362Z" fill="#469845"/>
<path fill-rule="evenodd" clip-rule="evenodd" d="M3.16362 22.898H42.0654C43.805 22.898 45.2285 21.4745 45.2285 19.7344V0C28.4188 3.74921 13.1134 9.40468 0 16.5317V19.7344C0 21.4745 1.42399 22.898 3.16362 22.898" transform="translate(0 22.3307)" fill="#8BBF41"/>
<path fill-rule="evenodd" clip-rule="evenodd" d="M18.9429 16.8922L15.1294 7.58459L11.3164 16.8922H18.9429ZM12.3007 0H18.1224L30.4226 28.9053H23.8216L21.1974 22.4681H9.06142L6.43721 28.9053H0L12.3007 0Z" transform="translate(7.40283 8.16176)" fill="#FEFEFE"/>
<path fill-rule="evenodd" clip-rule="evenodd" d="M45.2285 3.16362C45.2285 1.42399 43.805 0 42.0649 0H3.16362C1.42303 0 0 1.42399 0 3.16362V21.8016C14.187 18.8194 29.3986 17.183 45.2285 17.144V3.16362Z" transform="translate(47.5869)" fill="#469845"/>
<path fill-rule="evenodd" clip-rule="evenodd" d="M3.16362 28.0846H42.0654C43.805 28.0846 45.2285 26.661 45.2285 24.9209V0C29.3986 0.0390394 14.187 1.67488 0 4.65759V24.9209C0 26.661 1.42351 28.0846 3.16362 28.0846" transform="translate(47.5864 17.1441)" fill="#8BBF41"/>
<path fill-rule="evenodd" clip-rule="evenodd" d="M13.4484 16.8517H6.1499V23.1656H13.6531C16.4411 23.1656 18.1221 22.1815 18.1221 20.0496V19.9677C18.1221 18.0405 16.6872 16.8517 13.4484 16.8517V16.8517ZM16.5234 8.48773C16.5234 6.60146 15.0471 5.53502 12.3824 5.53502H6.1499V11.6037H11.972C14.7605 11.6037 16.5234 10.7015 16.5234 8.56962V8.48773ZM0 0H13.3253C16.6055 0 19.1888 0.902191 20.8285 2.54184C22.1406 3.85395 22.7966 5.45361 22.7966 7.42081V7.50318C22.7966 10.7425 21.0746 12.5464 19.0246 13.6947C22.3453 14.9654 24.3958 16.8926 24.3958 20.7471V20.8289C24.3958 26.0769 20.1315 28.7011 13.6533 28.7011H0V0Z" transform="translate(59.3989 7.4509)" fill="#FEFEFE"/>
<path fill-rule="evenodd" clip-rule="evenodd" d="M45.2285 3.16362C45.2285 1.42399 43.8055 0 42.0649 0H3.16362C1.42351 0 0 1.42399 0 3.16362V17.154C15.8467 17.2802 31.0592 19.005 45.2285 22.0787V3.16362Z" transform="translate(95.1729)" fill="#469845"/>
<path fill-rule="evenodd" clip-rule="evenodd" d="M3.16362 28.075H42.0654C43.8055 28.075 45.2285 26.6515 45.2285 24.9114V4.92515C31.0596 1.85151 15.8471 0.12664 0 0V24.9114C0 26.6515 1.42399 28.075 3.16362 28.075" transform="translate(95.1729 17.1537)" fill="#8BBF41"/>
<path fill-rule="evenodd" clip-rule="evenodd" d="M0 14.9249V14.8426C0 6.68335 6.15013 0 14.9654 0C20.3776 0 23.6164 1.80438 26.2816 4.42859L22.2639 9.0619C20.0491 7.0528 17.7943 5.82258 14.9245 5.82258C10.0864 5.82258 6.60099 9.84078 6.60099 14.7607V14.8426C6.60099 19.763 10.0041 23.8631 14.9245 23.8631C18.2043 23.8631 20.2134 22.5514 22.4681 20.5009L26.4868 24.5601C23.5346 27.717 20.2543 29.6852 14.7193 29.6852C6.27296 29.6852 0 23.1661 0 14.9249" transform="translate(104.544 8.24783)" fill="#FEFEFE"/>
<path fill-rule="evenodd" clip-rule="evenodd" d="M45.2285 3.16362C45.2285 1.42399 43.805 0 42.0649 0H3.16362C1.42351 0 0 1.42399 0 3.16362V22.6281C16.8517 26.502 32.1675 32.2908 45.2285 39.5659V3.16362Z" transform="translate(142.76)" fill="#469845"/>
<path fill-rule="evenodd" clip-rule="evenodd" d="M3.16362 22.6009H42.0654C43.805 22.6009 45.2285 21.1774 45.2285 19.4373V16.9379C32.168 9.66272 16.8522 3.87442 0 0V19.4373C0 21.1774 1.42399 22.6009 3.16362 22.6009" transform="translate(142.759 22.6277)" fill="#8BBF41"/>
<path fill-rule="evenodd" clip-rule="evenodd" d="M23.9036 14.925V14.8426C23.9036 9.92267 20.2958 5.82259 15.2112 5.82259C10.127 5.82259 6.60107 9.84079 6.60107 14.7607V14.8426C6.60107 19.763 10.2089 23.8631 15.2935 23.8631C20.3777 23.8631 23.9036 19.8449 23.9036 14.925V14.925ZM0 14.9249V14.8426C0 6.68335 6.43674 0 15.2934 0C24.1497 0 30.5045 6.60146 30.5045 14.7607V14.8426C30.5045 23.0023 24.0678 29.6852 15.2111 29.6852C6.35533 29.6852 0 23.0842 0 14.9249V14.9249Z" transform="translate(150.122 7.77174)" fill="#FEFEFE"/>
<path fill-rule="evenodd" clip-rule="evenodd" d="M3.18266 5.97398L0.949323 2.67991L5.08083 4.0201L5.58311 0L7.59364 3.51783L10.8315 1.28401L9.52513 5.14844L13.4 5.97398L9.9379 7.76074L12.0598 10.9434L8.09543 9.7708L7.53698 13.6228L5.69499 10.1617L2.73609 12.0598L3.62876 8.4863L0 7.70504L3.18266 5.97398Z" transform="translate(158.674 15.8026)" fill="#FEFEFE"/>
</g>
</svg>
