<svg viewBox="0 0 350 49" fill="none" xmlns="http://www.w3.org/2000/svg">
<path d="M343.185 48.5977C342.053 48.5977 340.947 48.2622 340.007 47.6337C339.066 47.0053 338.333 46.112 337.9 45.0668C337.467 44.0217 337.354 42.8716 337.575 41.7621C337.795 40.6526 338.34 39.6334 339.14 38.8335C339.94 38.0336 340.959 37.4888 342.069 37.2681C343.178 37.0474 344.328 37.1607 345.373 37.5936C346.419 38.0265 347.312 38.7596 347.94 39.7002C348.569 40.6408 348.904 41.7467 348.904 42.878C348.915 43.6321 348.775 44.3808 348.491 45.0797C348.208 45.7786 347.787 46.4135 347.253 46.9468C346.72 47.4801 346.085 47.901 345.386 48.1846C344.687 48.4682 343.939 48.6086 343.185 48.5977ZM343.185 38.2129C342.262 38.2129 341.36 38.4865 340.593 38.9991C339.826 39.5117 339.228 40.2403 338.875 41.0927C338.522 41.9451 338.429 42.8831 338.609 43.7881C338.789 44.693 339.233 45.5242 339.886 46.1766C340.538 46.8291 341.37 47.2734 342.274 47.4534C343.179 47.6334 344.117 47.541 344.97 47.1879C345.822 46.8348 346.551 46.2369 347.063 45.4697C347.576 44.7025 347.85 43.8006 347.85 42.878C347.839 41.644 347.344 40.4636 346.472 39.591C345.599 38.7184 344.419 38.2235 343.185 38.2129Z" fill="#373637"/>
<path d="M341.44 39.9972H344.28C344.493 39.9748 344.709 39.9949 344.914 40.0563C345.12 40.1177 345.311 40.2193 345.477 40.3551C345.643 40.4909 345.78 40.6582 345.881 40.8475C345.982 41.0367 346.045 41.244 346.065 41.4575C346.065 42.1471 345.7 42.8773 345.01 42.8773C345.7 43.2424 345.7 43.2424 345.7 44.2971C345.7 45.3518 345.7 45.3518 346.065 45.3518H344.605V44.2971C344.605 43.5669 344.605 43.2424 343.915 43.2424H342.495V45.3518H341.44V39.9972ZM343.915 42.5122C344.605 42.5122 344.605 42.1471 344.605 41.7821C344.605 41.417 344.605 41.0924 343.915 41.0924H342.495V42.5122H343.915Z" fill="#373637"/>
<path d="M19.5526 10.3442L5.31409 47.5023H16.3479L30.911 10.3442H134.191L138.085 0H3.8943L0 10.3442H19.5526Z" fill="#373637"/>
<path d="M158.044 10.3442L143.805 47.5023H154.88L169.483 10.3442H346.025L350 0H143.481L139.181 10.3442H158.044Z" fill="#373637"/>
<path d="M217.188 14.2793H204.694L191.875 47.5025H203.274L208.263 34.6432L208.953 47.5025H213.618L223.192 34.6432L218.202 47.5025H229.601L242.42 14.2793H227.167L217.512 28.9235L217.188 14.2793Z" fill="#373637"/>
<path d="M119.588 47.5025L123.157 38.5781H108.919L110.014 35.7385H124.253L127.782 26.7735H113.178L114.598 23.9339H128.837L132.406 14.2793H106.769L93.9502 47.5025H119.588Z" fill="#373637"/>
<path d="M296.21 47.5025L299.779 38.5781H285.176L286.231 35.7385H300.875L304.404 26.7735H289.8L290.896 23.9339H305.134L309.028 14.2793H283.391L270.572 47.5025H296.21Z" fill="#373637"/>
<path d="M186.561 47.5025L190.131 38.5781H175.486L176.582 35.7385H191.185L194.715 26.7735H180.151L181.206 23.9339H195.445L199.38 14.2793H173.742L160.883 47.5025H186.561Z" fill="#373637"/>
<path d="M58.0092 14.2789H35.2113L22.3926 47.5022H33.0613L37.1179 38.2126H39.5924L43.6489 47.5022H55.3724C55.0479 46.8125 53.2224 41.7824 52.2083 39.6324C51.8026 38.9428 51.8026 38.2126 51.4781 38.2126H52.8979C53.8143 38.214 54.7108 37.9454 55.4755 37.4404C56.2402 36.9354 56.8393 36.2164 57.1978 35.373C57.1921 35.3271 57.1962 35.2805 57.2099 35.2364C57.2236 35.1922 57.2465 35.1514 57.2773 35.1169C57.308 35.0823 57.3458 35.0547 57.388 35.0359C57.4303 35.0171 57.4761 35.0076 57.5224 35.008C58.212 32.858 61.5789 24.9883 62.877 20.3638V18.9034C62.8613 18.2801 62.7228 17.666 62.4696 17.0962C62.2164 16.5263 61.8534 16.012 61.4013 15.5825C60.9492 15.1531 60.417 14.8169 59.8349 14.5932C59.2529 14.3696 58.6325 14.2628 58.0092 14.2789ZM49.1659 27.5033C48.9485 27.8688 48.6295 28.1632 48.2478 28.3505C47.866 28.5378 47.438 28.6099 47.0159 28.558H40.566L42.3103 24.5015H48.7196C49.4498 24.5015 49.8149 24.826 49.8149 25.9213C49.7472 26.5054 49.5071 27.0561 49.1253 27.5033H49.1659Z" fill="#373637"/>
<path d="M337.505 14.2795H314.707L301.889 47.5027H312.963L316.533 38.2132H319.372L322.942 47.5027H335.112C334.747 46.8131 332.597 41.783 331.542 39.633C331.319 39.1918 331.194 38.7073 331.177 38.2132H332.272C333.148 38.1731 333.994 37.8848 334.713 37.3821C335.431 36.8793 335.991 36.1828 336.329 35.3736H336.653V35.0085C337.384 32.8585 340.71 24.9888 342.049 20.3643V19.9993C342.049 19.6342 342.373 19.2691 342.373 18.904C342.321 17.6521 341.783 16.4698 340.875 15.6068C339.966 14.7438 338.758 14.2679 337.505 14.2795ZM328.621 27.5039C328.408 27.8731 328.09 28.1705 327.707 28.3583C327.324 28.5461 326.894 28.6158 326.471 28.5586H320.427L321.847 24.502H328.256C328.946 24.502 329.352 24.8266 329.352 25.9218C329.27 26.5098 329.016 27.0603 328.621 27.5039Z" fill="#373637"/>
<path d="M264.894 38.213H265.989C266.943 38.2187 267.879 37.9553 268.69 37.453C269.501 36.9507 270.153 36.2299 270.573 35.3734V35.0083C272.759 30.283 274.55 25.3849 275.928 20.3641C275.928 20.3162 275.937 20.2687 275.955 20.2244C275.974 20.1801 276.001 20.1399 276.035 20.106C276.068 20.0721 276.109 20.0452 276.153 20.0268C276.197 20.0085 276.245 19.999 276.293 19.999V18.9038C276.262 17.687 275.765 16.5286 274.904 15.6679C274.043 14.8072 272.885 14.3101 271.668 14.2793H248.668L235.687 47.5025H246.72L250.777 38.213H264.894ZM262.419 27.5037C262.195 27.8725 261.869 28.1684 261.48 28.3556C261.091 28.5428 260.657 28.6132 260.229 28.5584H254.184L255.969 24.5018H262.419C262.744 24.5018 263.474 24.8264 263.474 25.9216C263.441 26.2514 263.327 26.5681 263.143 26.8439C262.96 27.1197 262.711 27.3462 262.419 27.5037Z" fill="#373637"/>
<path d="M89.3663 14.2781C88.6361 15.6979 80.1173 36.792 80.1173 37.1571C80.1173 37.5222 78.6569 37.725 78.2919 37.725H73.3023C74.3976 35.2505 76.1419 30.2204 76.1419 30.2204L82.5512 13.9941H70.1787L59.8345 40.808V41.1731L59.4289 41.4976V42.2278L59.1043 43.2825C59.1043 43.6476 58.7393 43.6476 58.7393 44.0127C58.8433 44.9235 59.2529 45.7723 59.9012 46.4205C60.5494 47.0688 61.3982 47.4784 62.309 47.5824H85.8371C86.6251 47.6106 87.4007 47.38 88.0453 46.9258C88.6899 46.4716 89.1681 45.8189 89.4068 45.0674L101.13 13.9941L89.3663 14.2781Z" fill="#373637"/>
</svg>
