<svg viewBox="0 0 364.19 92.19" xmlns="http://www.w3.org/2000/svg" id="Artwork">
  <defs>
    <style>
      .cls-1 {
        fill: #231f20;
      }

      .cls-2 {
        fill: #ee3124;
      }
    </style>
  </defs>
  <g>
    <path d="M52.55,19.06s10.51,3.95.36,6.54c0,0-.95.15-1.85.28,0,0-12.54.83-14.86,6.15,0,0-2.37,4.26.55,7.9,0,0,1.81,3.8,12.14,1.7,0,0,9.05-1.23,12.21-8.02,0,0,4.56-7.48-2.59-13.56,0,0-3.77-2.35-5.59-2.35,0,0-.91-.13-1.03.31,0,0-.3.74.67,1.05Z" class="cls-1"></path>
    <path d="M46.22,16.91s.06-1.79,2.13-1.85c0,0,1.73-.22.76-1.64,0,0-.91-1.27-4.86.12,0,0-1.92.61-4.26,2.37l-.64.56s-4.98,4.08-2.25,7.29c0,0,2.43,2.72,6.87,1.48,0,0,3.89-1.23,4.01-4.75,0,0,.06-1.17-.91-1.88,0,0-1.03-.99-.85-1.69Z" class="cls-1"></path>
    <g>
      <path d="M69.59,49.89l-8.66-6.95h-29.35l-9.66,7.13c-.73.46-.36,1.67-.36,1.67l2.64,8.24h44.3l1.73-7.69c.46-1.76-.64-2.41-.64-2.41ZM25.39,49.8l6.84-5.28h28.07l6.29,5.28H25.39Z" class="cls-1"></path>
      <polygon points="34.77 46 32.68 47.8 58.74 47.76 56.83 46 34.77 46" class="cls-1"></polygon>
    </g>
    <rect y="61.09" x="28.05" class="cls-1"></rect>
    <rect y="61.09" x="40.26" class="cls-1"></rect>
    <rect y="61.09" x="52.84" class="cls-1"></rect>
    <rect width="4.92" y="66.28" x="28.05" class="cls-1"></rect>
    <rect width="4.92" y="66.28" x="58.82" class="cls-1"></rect>
    <polygon points="64.74 77.98 59.82 80.4 59.82 76.28 64.74 76.28 64.74 77.98" class="cls-1"></polygon>
    <polygon points="28.14 77.98 33.06 80.4 33.06 76.28 28.14 76.28 28.14 77.98" class="cls-1"></polygon>
    <rect y="66.28" x="34.25" class="cls-1"></rect>
    <rect width="10.84" y="66.28" x="46.83" class="cls-1"></rect>
    <rect y="76.28" x="34.25" class="cls-1"></rect>
    <rect width="10.84" y="76.28" x="46.83" class="cls-1"></rect>
    <rect y="71.47" x="28.05" class="cls-1"></rect>
    <rect y="71.47" x="40.26" class="cls-1"></rect>
    <rect height="1.43" y="80.82" x="40.26" class="cls-1"></rect>
    <rect y="71.47" x="52.84" class="cls-1"></rect>
  </g>
  <g>
    <path d="M71.37,69.7c-6.32,6.77-15.31,11.01-25.28,11.01-19.08,0-34.61-15.52-34.61-34.61S27.01,11.48,46.09,11.48c10.05,0,19.11,4.31,25.44,11.17,1.16-1.73,2.99-3.33,5.29-4.47.85-.42,1.7-.74,2.55-.98-7.79-9.09-19.5-14.59-33.28-14.59C22.12,2.62,2.62,22.12,2.62,46.09s19.5,43.48,43.48,43.48c12.82,0,24.37-5.58,32.33-14.45-3.18-1.07-5.78-3.21-7.05-5.43Z" class="cls-2"></path>
    <path d="M80.28,75.62c-8.3,9.59-20.54,15.68-34.19,15.68C21.17,91.3.89,71.02.89,46.09S21.17.89,46.09.89c14.72,0,27.17,6,35.25,15.91.36-.05.71-.08,1.06-.1C74.18,6.32,61.33,0,46.09,0,20.68,0,0,20.68,0,46.09s20.68,46.1,46.09,46.1c14.12,0,26.77-6.39,35.23-16.42-.34-.04-.69-.09-1.03-.15,0,0,0,0,0,0Z" class="cls-1"></path>
  </g>
  <g>
    <path d="M111.04,77.55c.31-1.03.79-2.03.91-3.08.28-2.47.47-4.97.55-7.46.11-3.55.13-7.11.12-10.66-.01-5.6-.06-11.21-.14-16.81-.02-1.43-.18-2.88-.4-4.29-.28-1.82-.76-3.58-2.54-4.79,4.52.22,8.82.02,12.88-1.72-.14,2.55-.27,5.05-.41,7.56.06.01.12.03.19.04.16-.31.3-.62.47-.92,1.95-3.41,4.79-5.66,8.74-6.04,4.34-.42,7.46,1.72,9.62,5.35,1.61,2.7,2.16,5.7,2.26,8.79.11,3.16-.06,6.3-1.17,9.31-2.09,5.67-6.21,8.88-12.11,9.86-1.32.22-2.69.29-4.03.29-1.32,0-2.64-.18-4-.29-.01,4.99-.13,10.03,1.61,14.88h-.95c-.1-.04-.2-.1-.31-.11-2.08-.09-4.16-.24-6.24-.25-1.19,0-2.38.23-3.58.36h-1.49ZM121.69,51.11h.23c0,1.95.01,3.88,0,5.82,0,.41.11.66.52.71,1.2.14,2.4.4,3.59.38,4.26-.08,6.55-1.99,7.38-6.13.53-2.67.5-5.37.12-8.05-.28-1.93-.82-3.78-2.02-5.36-1.97-2.58-5.13-2.63-7.19-.13-1.02,1.24-1.72,2.68-1.9,4.26-.33,2.83-.49,5.68-.72,8.52Z" class="cls-1"></path>
    <path d="M147.11,77.55c1.47-3.23,1.47-6.69,1.5-10.13.07-7.47.11-14.94.08-22.41-.01-3.01-.17-6.02-.4-9.02-.09-1.19-.46-2.38-.91-3.5-.3-.75-.95-1.37-1.43-2.03,4.25.21,8.5,0,12.59-1.72-.14,2.55-.28,5.04-.42,7.53.07.02.14.03.21.05.13-.27.26-.54.4-.8,1.7-3.13,4.25-5.26,7.74-6,4.07-.86,7.32.7,9.82,3.91,1.68,2.15,2.52,4.66,2.86,7.33.46,3.68.49,7.37-.57,10.97-1.86,6.31-6.13,9.91-12.58,10.98-2.62.43-5.24.38-7.89-.12,0,.9-.04,1.75,0,2.59.14,2.65.23,5.3.49,7.94.12,1.21.57,2.4.87,3.59.07.28.13.56.19.84h-.95c-.1-.04-.2-.11-.3-.11-2.06-.09-4.12-.24-6.17-.24-1.22,0-2.43.23-3.65.36h-1.49ZM170.07,47.61c-.07,0-.14-.01-.2-.02,0-.49.02-.99,0-1.48-.11-2.17-.42-4.3-1.42-6.26-.33-.65-.74-1.3-1.24-1.83-1.98-2.1-4.67-2.03-6.59.13-1.69,1.89-2.31,4.22-2.39,6.66-.14,4.04-.12,8.09-.19,12.13,0,.42.15.58.53.71,1.56.52,3.15.47,4.74.29,3.15-.35,5.26-2.02,5.99-5.15.39-1.7.54-3.45.79-5.18Z" class="cls-1"></path>
    <path d="M364.19,63.1c-1.99-.15-3.98-.4-5.96-.42-1.67-.02-3.35.21-5.04.33.09-2.24.19-4.44.28-6.65l-.17-.04c-.11.23-.23.46-.33.69-3.64,8.17-13.74,7.56-17.97,2.16-1.95-2.49-2.94-5.34-3.31-8.42-.46-3.88-.27-7.73,1.02-11.46,1.97-5.73,6.08-8.83,11.99-9.68,2.63-.38,5.25-.2,7.84.34.17.04.35.05.63.08-.31-3.4.35-6.87-1.63-10.06,4.11-.39,8.17-.73,12.01-2.56-.17,1.16-.36,2.17-.45,3.19-.27,3.25-.6,6.49-.7,9.75-.16,5.4-.23,10.8-.2,16.2.02,3.91.21,7.82.41,11.73.08,1.65.48,3.25,1.6,4.56v.27ZM353.18,41.91c-.06,0-.12,0-.19,0,0-1.98-.02-3.96.01-5.94,0-.48-.16-.64-.61-.75-1.78-.44-3.56-.49-5.36-.19-3.38.57-5.4,2.51-6.11,5.89-.59,2.79-.51,5.59-.04,8.38.31,1.81.83,3.55,1.95,5.05,1.88,2.51,5.4,2.76,7.63.54,1.38-1.37,2.02-3.11,2.2-4.96.27-2.66.34-5.33.5-8Z" class="cls-1"></path>
    <path d="M273.01,16.63c1.17.42,2.26.94,3.06,1.96,1.42,1.81,1.52,4.27.25,6.17-1.25,1.86-3.6,2.72-5.75,2.1-2.16-.62-3.7-2.59-3.78-4.82-.08-2.25,1.33-4.33,3.47-5.12.25-.09.49-.19.73-.29.68,0,1.35,0,2.03,0Z" class="cls-1"></path>
    <path d="M263.71,17.17c-.59,2.48-1.16,4.87-1.72,7.18-.84-.2-1.67-.48-2.53-.58-1.85-.21-3.24.88-3.57,2.71-.07.42-.1.85-.11,1.28-.02.85,0,1.7,0,2.7,1.83-.07,3.66-.14,5.54-.21v5.23c-1.87-.09-3.72-.18-5.61-.28-.03.25-.06.42-.07.59-.02,6.32-.06,12.65-.03,18.97.01,2.66.23,5.3,1.15,7.84.04.1.04.22.08.46-3.87-.5-7.69-.59-11.55.02.26-1.08.61-2.04.69-3.02.2-2.46.36-4.93.39-7.4.07-5.58.06-11.16.08-16.74,0-.18-.02-.36-.03-.65-1.6.09-3.18.18-4.82.27v-5.18h4.85c0-.26-.01-.54,0-.82.08-1.43.02-2.9.28-4.3.59-3.12,2.72-5.02,5.49-6.29,2.73-1.25,5.63-1.68,8.59-1.76.94-.03,1.89,0,2.88,0Z" class="cls-1"></path>
    <path d="M314.62,20.46c4.12.1,8-.66,11.85-2.08-.06,1.33-.15,2.51-.17,3.7-.07,3.06-.16,6.11-.18,9.17-.03,4.23-.08,8.46.01,12.69.1,4.79.29,9.57.54,14.35.08,1.55.5,3.09.78,4.66-3.7-.42-7.54-.62-11.44.04.18-1.26.4-2.44.5-3.64.18-2.22.36-4.44.4-6.66.08-4.77.12-9.54.1-14.3-.02-4.25-.1-8.5-.63-12.72-.26-2.1-.53-3.03-1.76-5.2Z" class="cls-1"></path>
    <path d="M228.09,28.8c-.18,3-.35,5.92-.52,8.84,2.78-4.66,6.42-7.88,12.03-8.33-.52,3.08-1.03,6.11-1.54,9.14-.76-.2-1.57-.47-2.39-.61-3.55-.61-6.38.99-7.46,4.43-.5,1.59-.79,3.3-.81,4.96-.04,3.82.11,7.65.24,11.47.05,1.56.49,3.02,1.86,4.27-4.25-.39-8.29-.61-12.39,0,.28-1.09.65-2.07.76-3.08.21-1.92.37-3.85.39-5.78.04-4.39.06-8.78-.06-13.16-.07-2.35-.38-4.7-.71-7.03-.23-1.59-.6-2.15-1.67-3.52,4.25.18,8.32-.32,12.27-1.59Z" class="cls-1"></path>
    <path d="M277.22,62.99c-1.83-.09-3.78-.28-5.73-.27-1.92,0-3.85.19-5.73.29.25-1.22.62-2.46.74-3.72.22-2.33.38-4.66.43-7,.08-4.14.08-8.28.05-12.42-.01-1.68-.11-3.38-.31-5.05-.27-2.21-.68-2.94-2.24-4.58,4.5.12,8.88-.15,13.28-1.28-.29.86-.67,1.57-.77,2.32-.29,2.29-.59,4.59-.67,6.9-.12,3.64-.12,7.29-.08,10.94.04,3.62.16,7.24.34,10.85.05,1.03.46,2.04.69,3.02Z" class="cls-1"></path>
    <path d="M311.55,47.57c0-.73,0-1.38,0-2.03.01-2.59-.13-5.17-.85-7.68-1.38-4.75-4.35-7.78-9.33-8.6-2.46-.41-4.94-.38-7.39.08-6.28,1.18-10.33,4.8-11.81,11.08-.85,3.6-.78,7.24,0,10.84,1.21,5.55,4.49,9.32,9.96,10.91,5.53,1.61,11.13,1.68,16.72.15.42-.12.43-.38.47-.69.19-1.54.37-3.08.58-4.62.1-.72.26-1.43.39-2.14-.87.59-1.65,1.27-2.54,1.7-2.96,1.41-6.08,1.48-9.22.74-2.04-.48-3.7-1.62-4.95-3.3-1.41-1.9-1.89-4.07-1.8-6.44h19.77ZM291.63,42.46c0-2.17.17-4.24,1.21-6.13.93-1.7,2.4-2.49,4.33-2.45,1.99.04,3.37,1,4.15,2.8.79,1.83.93,3.77.88,5.78h-10.57Z" class="cls-1"></path>
    <path d="M212.9,47.56c.12-3.16.09-6.24-.69-9.25-1.22-4.69-3.94-7.92-8.86-8.93-2.65-.55-5.32-.53-7.98-.03-6.14,1.14-10.19,4.64-11.73,10.75-1.03,4.08-.91,8.21.21,12.28,1.27,4.58,4.11,7.85,8.59,9.43,5.86,2.06,11.85,2.12,17.84.48.19-.05.38-.4.41-.63.22-1.51.38-3.03.58-4.55.1-.75.27-1.49.44-2.37-.26.22-.41.34-.55.47-1.13,1.04-2.45,1.73-3.94,2.12-1.76.45-3.55.51-5.36.37-3.95-.3-7.07-2.68-8.22-6.27-.4-1.24-.58-2.51-.46-3.86h19.71ZM193.02,42.46c.01-2.38.17-4.68,1.56-6.67,1.99-2.86,6.47-2.5,8,.63.93,1.89,1.03,3.93,1.01,6.05h-10.57Z" class="cls-1"></path>
    <path d="M107.35,45.71c-.15,2.5-.37,4.96-1.08,7.35-1.59,5.34-5.14,8.61-10.56,9.78-3.73.8-7.48.65-11.14-.45-4.52-1.36-7.5-4.38-8.86-8.87-1.45-4.78-1.51-9.63-.1-14.44,1.22-4.18,3.97-7.06,7.99-8.65,4.81-1.91,9.71-1.94,14.57-.21,4.85,1.73,7.55,5.33,8.53,10.28.34,1.71.44,3.47.64,5.21ZM97.53,45.47c-.07-.92-.11-2.41-.29-3.88-.23-1.91-.69-3.76-1.86-5.35-1.96-2.67-6.05-2.97-8.38-.61-1.08,1.09-1.65,2.46-2.02,3.91-.84,3.34-.83,6.72-.48,10.12.21,2,.62,3.95,1.69,5.7,1.2,1.97,2.98,2.87,5.27,2.75,2.11-.11,3.57-1.21,4.51-3.05.25-.5.46-1.03.63-1.56.8-2.43.82-4.95.92-8.03Z" class="cls-1"></path>
  </g>
</svg>