<svg xml:space="preserve" style="enable-background:new 0 0 330 65;" viewBox="0 0 330 65" y="0px" x="0px" xmlns:xlink="http://www.w3.org/1999/xlink" xmlns="http://www.w3.org/2000/svg" id="Layer_1" version="1.1">
<style type="text/css">
	.st0{fill:#231F20;}
	.st1{fill:#CE0E2D;}
	.st2{fill:#010101;}
	.st3{fill:url(#SVGID_1_);}
	.st4{fill:url(#SVGID_00000070803542491115762820000002974713793347428281_);}
	.st5{fill:url(#SVGID_00000128466688701815048100000014261029500182081419_);}
	.st6{fill:url(#SVGID_00000177470964244485525930000001591531097632464268_);}
	.st7{fill:url(#SVGID_00000027591237264123698840000011180988570113049228_);}
	.st8{fill:url(#SVGID_00000096765427348798910050000008464810718574307465_);}
</style>
<g>
	<g>
		<path d="M98,65c-1.7,0-3.1-0.7-3.9-1.8l1.4-1.3c0.7,0.8,1.6,1.1,2.6,1.1c1.2,0,1.7-0.3,1.7-1.1c0-0.6-0.3-0.9-2.2-1.4
			c-1.8-0.4-3.1-1-3.1-3c0-1.8,1.6-2.9,3.6-2.9c1.6,0,2.7,0.6,3.6,1.6l-1.4,1.4c-0.6-0.7-1.4-1-2.3-1c-1.1,0-1.4,0.5-1.4,0.9
			c0,0.6,0.4,0.8,2,1.2s3.3,0.9,3.3,3.1C102,63.8,100.8,65,98,65z" class="st0"></path>
		<path d="M105.5,64.9v-10h6.9v2h-4.9v1.7h2.9v1.9h-2.9v2.4h5.1v2L105.5,64.9L105.5,64.9z" class="st0"></path>
		<path d="M122.8,64.9l-0.8-2.2h-3.7l-0.8,2.2h-2.1l3.8-10h1.9l3.8,10H122.8z M120.7,58.9c-0.2-0.6-0.4-1.2-0.5-1.6
			c-0.1,0.4-0.3,1-0.5,1.6l-0.6,1.8h2.3L120.7,58.9z" class="st0"></path>
		<path d="M131.3,65c-1.7,0-3.1-0.7-3.9-1.8l1.4-1.3c0.7,0.8,1.6,1.1,2.6,1.1c1.2,0,1.7-0.3,1.7-1.1
			c0-0.6-0.3-0.9-2.2-1.4c-1.8-0.4-3.1-1-3.1-3c0-1.8,1.6-2.9,3.6-2.9c1.6,0,2.7,0.6,3.6,1.6l-1.4,1.4c-0.6-0.7-1.4-1-2.3-1
			c-1.1,0-1.4,0.5-1.4,0.9c0,0.6,0.4,0.8,2,1.2s3.3,0.9,3.3,3.1C135.3,63.8,134.1,65,131.3,65z" class="st0"></path>
		<path d="M142.5,65c-2.7,0-4.3-2.1-4.3-5.1s1.6-5.1,4.3-5.1s4.3,2.1,4.3,5.1C146.9,62.9,145.3,65,142.5,65z
			 M142.5,56.7c-1.6,0-2.3,1.4-2.3,3.2s0.7,3.2,2.3,3.2s2.3-1.4,2.3-3.2S144.2,56.7,142.5,56.7z" class="st0"></path>
		<path d="M156.6,64.9l-3.7-5.4c-0.2-0.4-0.6-0.9-0.7-1.1c0,0.4,0,1.6,0,2.2V65h-2V55h1.9l3.5,5.3
			c0.2,0.4,0.6,0.9,0.7,1.1c0-0.4,0-1.6,0-2.2V55h2v10h-1.7V64.9z" class="st0"></path>
		<path d="M174.6,64.9l-0.8-2.2h-3.7l-0.8,2.2h-2l3.8-10h1.9l3.8,10H174.6z M172.5,58.9c-0.2-0.6-0.4-1.2-0.5-1.6
			c-0.1,0.4-0.3,1-0.5,1.6l-0.6,1.8h2.3L172.5,58.9z" class="st0"></path>
		<path d="M182.1,56.9v1.9h3v1.9h-3v4.2h-2v-10h7.1v2L182.1,56.9L182.1,56.9z" class="st0"></path>
		<path d="M194.7,56.9v8h-2v-8h-2.9v-2h7.7v2H194.7z" class="st0"></path>
		<path d="M200.9,64.9v-10h6.9v2h-4.9v1.7h2.9v1.9h-2.9v2.4h5.1v2L200.9,64.9L200.9,64.9z" class="st0"></path>
		<path d="M217.4,64.9l-1.8-3.6h-2v3.6h-2v-10h4.6c1.9,0,3.4,1,3.4,3.2c0,1.5-0.6,2.4-1.9,2.9l1.9,3.9L217.4,64.9
			L217.4,64.9z M216.2,56.8h-2.6v2.6h2.6c0.9,0,1.4-0.4,1.4-1.3C217.6,57.2,217.1,56.8,216.2,56.8z" class="st0"></path>
		<path d="M232.1,65c-1.7,0-3.1-0.7-3.9-1.8l1.4-1.3c0.7,0.8,1.6,1.1,2.6,1.1c1.2,0,1.7-0.3,1.7-1.1
			c0-0.6-0.3-0.9-2.2-1.4c-1.8-0.4-3.1-1-3.1-3c0-1.8,1.6-2.9,3.6-2.9c1.6,0,2.7,0.6,3.6,1.6l-1.4,1.4c-0.6-0.7-1.4-1-2.3-1
			c-1.1,0-1.4,0.5-1.4,0.9c0,0.6,0.4,0.8,2,1.2s3.3,0.9,3.3,3.1C236.1,63.8,234.9,65,232.1,65z" class="st0"></path>
		<path d="M239.6,64.9v-10h6.9v2h-4.9v1.7h2.9v1.9h-2.9v2.4h5.1v2L239.6,64.9L239.6,64.9z" class="st0"></path>
		<path d="M256.9,64.9l-0.8-2.2h-3.7l-0.8,2.2h-2.1l3.8-10h1.9l3.8,10H256.9z M254.8,58.9c-0.2-0.6-0.4-1.2-0.5-1.6
			c-0.1,0.4-0.3,1-0.5,1.6l-0.6,1.8h2.3L254.8,58.9z" class="st0"></path>
		<path d="M265.4,65c-1.7,0-3.1-0.7-3.9-1.8l1.4-1.3c0.7,0.8,1.6,1.1,2.6,1.1c1.2,0,1.7-0.3,1.7-1.1
			c0-0.6-0.3-0.9-2.2-1.4c-1.8-0.4-3.1-1-3.1-3c0-1.8,1.6-2.9,3.6-2.9c1.6,0,2.7,0.6,3.6,1.6l-1.4,1.4c-0.6-0.7-1.4-1-2.3-1
			c-1.1,0-1.4,0.5-1.4,0.9c0,0.6,0.4,0.8,2,1.2s3.3,0.9,3.3,3.1C269.4,63.8,268.2,65,265.4,65z" class="st0"></path>
		<path d="M276.6,65c-2.7,0-4.3-2.1-4.3-5.1s1.6-5.1,4.3-5.1c2.7,0,4.3,2.1,4.3,5.1C281,62.9,279.4,65,276.6,65z
			 M276.6,56.7c-1.6,0-2.3,1.4-2.3,3.2s0.7,3.2,2.3,3.2c1.6,0,2.3-1.4,2.3-3.2C278.9,58.1,278.3,56.7,276.6,56.7z" class="st0"></path>
		<path d="M290.7,64.9l-3.7-5.4c-0.2-0.4-0.6-0.9-0.7-1.1c0,0.4,0,1.6,0,2.2V65h-2V55h1.9l3.5,5.3
			c0.2,0.4,0.6,0.9,0.7,1.1c0-0.4,0-1.6,0-2.2V55h2v10h-1.7V64.9z" class="st0"></path>
	</g>
	<path d="M65.4,24.3c0,4.4,1.4,8.1,4.2,10.8c6.1,6,16.7,5.9,16.8,5.9h0.2c0,0,0,0,0.1,0c0.3,0,1.7,0.1,2.8,0.1H105
		c-0.6-2-2.2-7.4-2.5-8.4H89.6c-3.4,0-10-1.8-10-8.5l0,0c0-6.7,6.5-8.4,10-8.5h12.9c0.3-1,1.9-6.4,2.5-8.4H89.5
		c-1.1,0-2.5,0.1-2.8,0.1h-0.1h-0.2c-0.1,0-10.7,0-16.8,5.9C66.8,16.2,65.4,19.9,65.4,24.3L65.4,24.3z" class="st1"></path>
	<path d="M125,10.7c-20.1,0-19.3,15.3-19.3,15.3s-0.8,15.2,19.3,15.2S144.3,26,144.3,26S145.1,10.7,125,10.7 M125,34
		c-4.4,0-8-3.6-8-8s3.6-8,8-8c4.4,0,8,3.6,8,8S129.4,34,125,34" class="st1"></path>
	<path d="M257.4,38.2c0,0,2.9,2.9,8.1,3h4.8c0,0,0-29.7,0-30.5h-11.7v16l-13.3-13c0,0-3-3-7.9-3h-5v30.5h11.5V24.8
		L257.4,38.2z" class="st1"></path>
	<path d="M305.9,34.8c0,0,4.8,6,5.1,6.4h12.2c-1.5-1.9-18.4-23.6-18.4-23.6c0-0.1-4.9-6.6-14.7-6.8c0,0-14.5,0-15.7,0
		v30.5h11.1V17.8h0.7c6.8,0.2,9.4,3.8,9.4,4l5.2,6.3c0,0-10.6,0-12.6,0c1.1,1.5,4.8,6.5,5.2,6.9C294,34.8,305.9,34.8,305.9,34.8" class="st1"></path>
	<path d="M208.8,10.7c-20.2,0-19.3,15.3-19.3,15.3s-0.8,15.2,19.3,15.2c20.2,0,19.3-15.2,19.3-15.2
		S228.9,10.7,208.8,10.7 M208.8,34c-4.4,0-8-3.6-8-8s3.6-8,8-8s8,3.6,8,8S213.2,34,208.8,34" class="st1"></path>
	<path d="M178.9,30.6c0,0,6.7-2.8,6.7-9.8s-7-9.8-11-10l-26.1-0.1c0,1.2,0,29.3,0,30.5h11.4V17.7l0,0l8.4,0.1
		c2.1,0.1,5.7,1.5,5.7,5.2s-3.2,4.9-3.5,5s-1.1,0.1-1.1,0.1s-4.9,0.1-6.9,0.1c1.5,1.5,12.8,12.7,13.2,13.1h13.8
		C187.9,39.6,178.9,30.6,178.9,30.6" class="st1"></path>
	<path d="M326.6,34.3c1.9,0,3.4,1.5,3.4,3.4s-1.5,3.4-3.4,3.4s-3.4-1.5-3.4-3.4S324.8,34.3,326.6,34.3 M326.6,40.5
		c1.4,0,2.7-1.3,2.7-2.7c0-1.5-1.3-2.7-2.7-2.7c-1.4,0-2.7,1.2-2.7,2.7C323.9,39.2,325.2,40.5,326.6,40.5 M326.1,39.6h-0.9v-3.7h1.7
		c0.2,0,1.4,0,1.4,1.1c0,0.7-0.5,0.9-0.7,1l0.7,1.6h-1l-0.6-1.4h-0.6V39.6z M326.1,37.5h0.5c0.3,0,0.7-0.1,0.7-0.5
		c0-0.2-0.1-0.4-0.6-0.4h-0.6V37.5z" class="st1"></path>
	<g>
		<g>
			<g>
				<path d="M26.6,50.5L26.6,50.5h-0.5c-5.5,0-11-0.6-16.4-1.5c-6.6-1.2-9.8-4.3-9.7-9.5C0.1,31.6,2.1,17.8,4.8,10
					c1.8-5.3,3.8-8.1,9.8-9.2c4-0.7,8.1-0.8,11.6-0.8h0.7c4,0,7.6,0.3,10.9,0.8c5.9,1,7.9,3.9,9.8,9.2c2.7,7.8,4.6,21.5,4.8,29.5
					c0.1,5.2-3.1,8.3-9.7,9.5C37,50,31.6,50.5,26.6,50.5L26.6,50.5z" class="st2"></path>
			</g>
		</g>
		
			<radialGradient gradientUnits="userSpaceOnUse" gradientTransform="matrix(1 0 0 -1 0 65.2)" r="20.983" cy="46.3626" cx="27.9505" id="SVGID_1_">
			<stop style="stop-color:#F1EBEA" offset="0.1643"></stop>
			<stop style="stop-color:#C0C0C2" offset="0.9342"></stop>
		</radialGradient>
		<path d="M47.1,10.2c-1.8-5.4-3.8-7.9-9.5-8.9c-3.9-0.7-7.9-0.9-11.5-0.8c-3.6,0-7.6,0.2-11.5,0.8
			C9,2.3,7,4.8,5.1,10.2c-2.6,7.5-4.6,20.9-4.7,29.2c-0.1,5.2,3.3,8,9.4,9.1S21.4,50,26.1,50s10.2-0.4,16.3-1.5s9.5-3.9,9.4-9.1
			C51.7,31.1,49.7,17.6,47.1,10.2z" class="st3"></path>
		
			<linearGradient gradientTransform="matrix(1 0 0 -1 0 65.2)" y2="57.9365" x2="26.36" y1="19.8034" x1="26.2269" gradientUnits="userSpaceOnUse" id="SVGID_00000055681437257314583290000012738187272717440697_">
			<stop style="stop-color:#F1EBEA" offset="0.1643"></stop>
			<stop style="stop-color:#81807F" offset="0.9342"></stop>
		</linearGradient>
		<path d="M42,44.4c-5.5,1-10.5,1.5-15.3,1.5h-0.4
			c-5.2,0-10.6-0.5-15.8-1.5c-5.8-1-5.6-4.8-5.6-6.4c0.3-8.9,2.2-20.1,4.4-26.6c1.6-4.7,4.2-5.7,6-6c3-0.5,6.6-0.8,10.3-0.8
			c0.2,0,0.4,0,0.7,0c3.3,0,7.1,0.1,10.9,0.8c1.8,0.3,4.4,1.3,6,6c2.2,6.5,4.1,17.7,4.4,26.6C47.6,39.6,47.7,43.3,42,44.4z" style="fill:url(#SVGID_00000055681437257314583290000012738187272717440697_);"></path>
		<g>
			<path d="M41.6,44c-5.4,1-10.3,1.5-15,1.5h-0.4c-5.1,0-10.3-0.5-15.5-1.5c-5.6-1-5.5-4.7-5.4-6.2
				c0.3-8.7,2.1-19.6,4.3-26c1.6-4.6,4.1-5.6,5.9-5.9c2.9-0.5,6.4-0.8,10.1-0.8c0.2,0,0.4,0,0.6,0c3.2,0,7,0.1,10.7,0.8
				c1.8,0.3,4.3,1.2,5.9,5.9c2.2,6.4,4,17.3,4.3,26C47.1,39.3,47.3,42.9,41.6,44z" class="st2"></path>
		</g>
		
			<linearGradient gradientTransform="matrix(1 0 0 -1 0 65.2)" y2="25.0195" x2="14.7724" y1="50.2635" x1="38.2307" gradientUnits="userSpaceOnUse" id="SVGID_00000135655301730625318240000015575260540599469216_">
			<stop style="stop-color:#F1EBEA" offset="0.1643"></stop>
			<stop style="stop-color:#81807F" offset="0.9342"></stop>
		</linearGradient>
		<path d="M45.8,37.8c-0.3-8.6-2.1-19.4-4.3-25.6
			c-1.3-3.9-3.3-4.7-4.8-5c-3.6-0.6-7.3-0.7-10.4-0.7c-0.2,0-0.4,0-0.6,0c-3.6,0-7,0.3-9.8,0.7c-1.5,0.3-3.5,1.1-4.8,5
			c-2.2,6.3-4,17.1-4.3,25.6c-0.1,1.5-0.2,4.1,4.4,4.9c5.1,0.9,10.2,1.4,15.3,1.4h0.4c4.6,0,9.4-0.5,14.8-1.4
			C45.9,41.8,45.8,39.3,45.8,37.8z" style="fill:url(#SVGID_00000135655301730625318240000015575260540599469216_);"></path>
		
			<radialGradient gradientUnits="userSpaceOnUse" gradientTransform="matrix(1 0 0 -1 0 65.2)" r="21.0491" cy="46.8647" cx="27.6547" id="SVGID_00000022549119985027799050000016345265735605260438_">
			<stop style="stop-color:#F1EBEA" offset="0.1643"></stop>
			<stop style="stop-color:#C0C0C2" offset="0.9342"></stop>
		</radialGradient>
		<path d="M45.1,37.3c-0.3-8.3-2-18.7-4.1-24.7
			c-1.3-3.8-3.2-4.5-4.7-4.8c-3.4-0.6-7-0.7-10.1-0.7c-0.2,0-0.4,0-0.6,0c-3.4,0-6.7,0.3-9.5,0.7c-1.5,0.3-3.4,1-4.7,4.8
			c-2.1,6.1-3.8,16.5-4.1,24.7c-0.1,1.5-0.1,3.9,4.2,4.7c4.9,0.9,9.8,1.3,14.7,1.4h0.4c4.4,0,9.1-0.5,14.2-1.4
			C45.2,41.2,45.1,38.8,45.1,37.3z" style="fill:url(#SVGID_00000022549119985027799050000016345265735605260438_);"></path>
		
			<linearGradient gradientTransform="matrix(1 0 0 -1 0 65.2)" y2="47.5869" x2="29.3725" y1="42.523" x1="23.3588" gradientUnits="userSpaceOnUse" id="SVGID_00000101079951851327441170000014821905193109287815_">
			<stop style="stop-color:#F1EBEA" offset="0.1643"></stop>
			<stop style="stop-color:#81807F" offset="0.9342"></stop>
		</linearGradient>
		<path d="M21.8,20.3c0-2.4,1.9-4.4,4.4-4.4
			c2.4,0,4.4,1.9,4.4,4.4c0,2.4-2,4.4-4.4,4.4C23.8,24.6,21.8,22.7,21.8,20.3z" style="fill:url(#SVGID_00000101079951851327441170000014821905193109287815_);"></path>
		<g>
			
				<linearGradient gradientTransform="matrix(1 0 0 -1 0 65.2)" y2="38.2121" x2="22.2844" y1="32.4763" x1="15.0736" gradientUnits="userSpaceOnUse" id="SVGID_00000179639504974617624350000017751075991511999625_">
				<stop style="stop-color:#F1EBEA" offset="0.1643"></stop>
				<stop style="stop-color:#81807F" offset="0.9342"></stop>
			</linearGradient>
			<path d="M26.7,31.4c2.8-2.8,14.6-14.6,14.6-14.3
				c0.3,15.6-9.8,21.3-9.8,21.3H20.8c0,0-10.1-5.7-9.8-21.3c0-0.3,11.9,11.6,14.6,14.3c0,0,0.2,0.2,0.5,0.2
				C26.5,31.6,26.7,31.4,26.7,31.4z" style="fill:url(#SVGID_00000179639504974617624350000017751075991511999625_);"></path>
		</g>
		<g>
			<path d="M26.2,16.7c2,0,3.5,1.6,3.5,3.6s-1.6,3.6-3.5,3.6c-2,0-3.6-1.6-3.6-3.6S24.2,16.7,26.2,16.7z" class="st2"></path>
		</g>
		<g>
			<path d="M31.3,37.6c-0.2,0.1-0.3,0.1-0.4,0.1h-9.3c-0.1,0-0.3,0-0.4-0.1c-3.1-2.1-8.3-8.3-8.9-17.6
				c0-0.2,0.2-0.2,0.3-0.1c2.7,2.7,8.9,8.6,12.6,12.2c0.1,0.1,0.5,0.5,1.1,0.5s1-0.4,1.1-0.5c3.7-3.5,9.9-9.5,12.6-12.2
				c0.1-0.1,0.3-0.1,0.3,0.1C39.6,29.3,34.4,35.4,31.3,37.6z" class="st2"></path>
		</g>
	</g>
</g>
</svg>
