<?xml version="1.0" encoding="utf-8"?>
<!-- Generator: Adobe Illustrator 28.1.0, SVG Export Plug-In . SVG Version: 6.00 Build 0)  -->
<svg version="1.1" id="Duravent_Logo_x5F_TM_x5F_RGB"
	 xmlns="http://www.w3.org/2000/svg" xmlns:xlink="http://www.w3.org/1999/xlink" x="0px" y="0px" viewBox="0 0 648 180"
	 style="enable-background:new 0 0 648 180;" xml:space="preserve">
<style type="text/css">
	.st0{fill:#204495;}
	.st1{fill:#EA2027;}
</style>
<g id="TM">
	<path d="M609.5,47.1v-8.1h-2.9v-1.2h7.2v1.2h-2.9v8.1H609.5z"/>
	<path d="M624.1,47.1v-7.4l-3,7.4h-0.6l-3-7.4v7.4h-1.4v-9.3h2l2.7,6.7l2.7-6.7h2v9.3H624.1z"/>
</g>
<g id="Duravent">
	<path d="M574.8,123V80.3h-12.2V66.2h12.2V46h16.1v20.2h15v14.1h-15V119c0,5,2.4,8.7,7,8.7c3.1,0,6-1.2,7.2-2.6l3.8,12.1
		c-2.9,2.8-7.7,4.7-15.2,4.7C581.4,142,574.8,135.2,574.8,123"/>
	<path d="M537.3,140.1V93.9c0-11.5-5.8-15.3-14.8-15.3c-8.3,0-15.3,4.9-19,9.9v51.6h-16.1V66.2h16.1v10.1c4.9-5.8,14.4-11.9,26-11.9
		c15.9,0,23.9,8.6,23.9,23.7v52H537.3z"/>
	<path d="M402.6,103.1c0-21.4,15.6-38.7,37.5-38.7c22.2,0,36.4,17,36.4,40.2v3.8h-57.1c1.2,11.2,9.6,20.4,23.6,20.4
		c7.2,0,15.8-2.9,21-8.1l7.3,10.6c-7.3,7-18.2,10.7-30,10.7C419.1,142,402.6,126.5,402.6,103.1 M440.1,77.5
		c-13.8,0-20,10.6-20.8,19.6h41.6C460.6,88.4,454.6,77.5,440.1,77.5"/>
	<polygon class="st0" points="349.6,140.1 319.5,66.2 336.6,66.2 358.2,121.6 379.8,66.2 397.1,66.2 366.9,140.1 	"/>
	<polygon class="st1" points="297.1,66.2 327.3,140.1 310.1,140.1 288.5,84.7 267,140.1 249.7,140.1 279.8,66.2 	"/>
	<path d="M209.3,140.1V66.2h16.1v10.9c5.5-7,14.4-12.5,24-12.5v15.9c-1.4-0.3-3.1-0.5-5-0.5c-6.7,0-15.8,4.6-19,9.8v50.3H209.3z"/>
	<path d="M172.4,140.1v-9.8c-5.4,6-14.5,11.6-26.2,11.6c-15.9,0-23.7-8.3-23.7-23.4V66.2h16.1v46.5c0,11.5,5.8,15,14.8,15
		c8.1,0,15.1-4.6,19-9.6V66.2h16.1v73.9H172.4z"/>
	<path d="M85.7,140.1V130C80,137.4,71.4,142,61.9,142C43,142,29,127.6,29,103.2c0-23.9,13.8-38.9,32.9-38.9
		c9.2,0,17.8,4.3,23.7,12.1V38h16.1v102.1H85.7z M85.7,117.9V88.5C82,83,74.2,78.6,66.5,78.6c-12.7,0-20.8,10.3-20.8,24.6
		c0,14.2,8.1,24.5,20.8,24.5C74.2,127.7,82,123.4,85.7,117.9"/>
</g>
</svg>
