<?xml version="1.0" encoding="UTF-8"?>
<svg xmlns="http://www.w3.org/2000/svg" xmlns:xlink="http://www.w3.org/1999/xlink" viewBox="0 0 182 48">
  <defs>
    <polygon id="a" points="0 48.47 181.612 48.47 181.612 0 0 0"></polygon>
  </defs>
  <g fill="none" fill-rule="evenodd">
    <path d="M0,18.1862 C0,8.1432 8.142,0.0002 18.185,0.0002 C19.149,0.0002 20.113,0.0782 21.034,0.2232 C20.342,0.8672 19.777,1.4952 19.777,1.8492 C19.777,2.1652 19.901,2.1012 19.948,2.3212 L25.068,1.7182 C24.813,1.5962 24.646,1.5092 24.558,1.4542 C24.606,1.3802 24.625,1.2822 24.646,1.1842 C25.192,1.3872 25.726,1.6262 26.242,1.8812 C25.319,2.4402 24.424,3.0282 23.612,3.5792 C23.534,3.6232 19.777,6.3872 19.777,7.2992 C19.777,7.6122 19.901,7.5482 19.948,7.7762 L25.068,7.1652 C24.813,7.0452 24.646,6.9612 24.558,6.9002 C24.677,6.7272 24.632,6.4142 24.807,6.2612 C25.963,5.1782 27.205,4.1552 28.488,3.2072 C29.3,3.7612 30.062,4.3852 30.774,5.0592 C30.613,5.1182 30.458,5.1782 30.308,5.2362 C28.118,6.0882 25.625,7.6712 23.612,9.0262 C23.534,9.0732 19.777,11.8362 19.777,12.7492 C19.777,13.0632 19.901,13.0052 19.948,13.2212 L25.068,12.6182 C24.813,12.4992 24.646,12.4092 24.558,12.3512 C24.677,12.1802 24.632,11.8672 24.807,11.7102 C26.999,9.6642 29.474,7.8312 31.958,6.3132 C32.823,7.3222 33.583,8.4182 34.216,9.6022 C32.852,9.8732 31.559,10.1922 30.308,10.6832 C28.118,11.5362 25.625,13.1222 23.612,14.4752 C23.534,14.5192 19.777,17.2862 19.777,18.1972 C19.777,18.5132 19.901,18.4512 19.948,18.6652 L25.068,18.0682 C24.813,17.9472 24.646,17.8582 24.558,17.8032 C24.677,17.6232 24.632,17.3122 24.807,17.1592 C27.766,14.3942 31.269,12.0102 34.565,10.2812 C35.234,11.6662 35.734,13.1562 36.035,14.7192 C33.999,15.0702 32.096,15.4302 30.308,16.1382 C28.118,16.9862 25.625,18.5732 23.612,19.9202 C23.534,19.9722 19.777,22.7312 19.777,23.6472 C19.777,23.9632 19.901,23.9002 19.948,24.1202 L25.068,23.5192 C24.813,23.3982 24.646,23.3082 24.558,23.2492 C24.677,23.0702 24.632,22.7622 24.807,22.6052 C28.228,19.4182 32.369,16.7272 36.084,14.9772 C36.27,16.0142 36.368,17.0852 36.368,18.1862 C36.368,18.8442 36.33,19.4882 36.267,20.1272 C34.139,20.4972 32.164,20.8492 30.308,21.5862 C28.118,22.4332 25.625,24.0182 23.612,25.3722 C23.534,25.4212 19.777,28.1852 19.777,29.0962 C19.777,29.4082 19.901,29.3532 19.948,29.5692 L25.068,28.9632 C24.813,28.8472 24.646,28.7542 24.558,28.6972 C24.677,28.5242 24.632,28.2112 24.807,28.0542 C28.276,24.8192 32.485,22.1002 36.241,20.3482 C36.014,22.2962 35.471,24.1492 34.67,25.8602 C33.142,26.1512 31.691,26.4892 30.308,27.0352 C28.118,27.8862 25.625,29.4672 23.612,30.8222 C23.534,30.8722 19.777,33.6312 19.777,34.5462 C19.777,34.8572 19.901,34.7952 19.948,35.0162 L25.068,34.4132 C24.813,34.2962 24.646,34.2032 24.558,34.1472 C24.677,33.9722 24.632,33.6642 24.807,33.5042 C27.651,30.8442 31,28.5422 34.184,26.8272 C31.11,32.5122 25.097,36.3722 18.185,36.3722 C8.142,36.3722 0,28.2302 0,18.1862" fill="#E0251B"></path>
    <polygon fill="#E0251B" points="41.477 8.6809 50.881 8.6809 50.881 14.0409 46.617 14.0409 46.617 15.9779 50.358 15.9779 50.358 20.8399 46.617 20.8399 46.617 27.3909 41.477 27.3909"></polygon>
    <path d="M58.4933,25.6486 L58.3783,25.6486 C57.5033,26.8886 56.7183,27.6846 55.3643,27.6846 C52.6823,27.6846 51.1983,24.0606 51.1983,20.8666 C51.1983,17.5366 52.7003,13.9186 55.4903,13.9186 C56.6813,13.9186 57.6663,14.4866 58.3783,15.7766 L58.4933,15.7766 L58.3423,14.2186 L63.0493,14.2186 L63.0493,27.3906 L58.3423,27.3906 L58.4933,25.6486 Z M57.2063,22.6726 C58.1233,22.6726 58.4933,21.7066 58.4933,20.6906 C58.4933,19.6756 57.9693,18.9296 57.2063,18.9296 C56.4443,18.9296 55.9603,19.7736 55.9603,20.7396 C55.9603,21.7816 56.3313,22.6726 57.2063,22.6726 L57.2063,22.6726 Z" fill="#E0251B"></path>
    <path d="M65.3905,22.2551 L65.6925,22.5001 C66.3565,23.0461 67.3275,23.7181 68.1505,23.7181 C68.4615,23.7181 68.8565,23.4921 68.8565,22.9921 C68.8565,22.2761 68.2765,22.2551 67.8845,22.1781 C66.2865,21.8801 64.7975,21.0111 64.7975,18.5331 C64.7975,15.2311 67.2935,13.9181 69.4095,13.9181 C70.6415,13.9181 72.1685,14.2411 73.2435,15.0341 L72.0735,18.6831 C71.4585,18.0891 70.6415,17.5891 69.8605,17.5891 C69.5615,17.5891 69.1715,17.7161 69.1715,18.1821 C69.1715,18.8321 69.6945,18.8811 70.3595,19.0291 C72.0735,19.4011 73.4695,20.1971 73.4695,22.8501 C73.4695,26.2711 70.9205,27.6851 68.6845,27.6851 C67.1275,27.6851 65.5965,27.0431 64.1665,26.2221 L65.3905,22.2551 Z" fill="#E0251B"></path>
    <polygon fill="#E0251B" points="80.3172 14.3862 81.9162 14.2902 81.9162 19.3252 80.3172 19.1982 80.3172 27.3912 75.4822 27.3912 75.4822 19.1982 74.3062 19.3252 74.3062 14.2902 75.4822 14.3862 75.4822 9.9722 80.3172 9.9722"></polygon>
    <path d="M87.352,21.8803 C87.352,22.9493 87.479,24.1413 88.485,24.1413 C88.991,24.1413 89.359,23.6643 89.451,23.0453 L94.12,23.0453 C93.491,26.2223 90.832,27.6853 88.562,27.6853 C85.454,27.6853 82.605,25.5543 82.605,21.0113 C82.605,16.6493 85.139,13.9183 88.281,13.9183 C91.799,13.9183 94.568,16.9413 94.329,21.8803 L87.352,21.8803 Z M89.601,19.1513 C89.601,18.2593 89.118,17.4413 88.435,17.4413 C87.706,17.4413 87.352,18.2373 87.352,19.1513 L89.601,19.1513 Z" fill="#E0251B"></path>
    <path d="M99.9269,16.32 L100.0429,16.32 C100.9739,14.885 101.6799,13.918 103.2259,13.918 C105.6789,13.918 106.6479,16.373 106.6479,19.274 L106.6479,27.391 L101.8479,27.391 L101.8479,20.963 C101.8479,20.197 101.8479,19.102 101.0289,19.102 C100.2269,19.102 100.2269,20.197 100.2269,20.963 L100.2269,27.391 L95.4269,27.391 L95.4269,14.219 L100.1159,14.219 L99.9269,16.32 Z" fill="#E0251B"></path>
    <path d="M110.424,8.6809 L115.672,8.6809 L117.607,18.5049 L117.742,18.5049 C117.837,17.6859 117.919,16.8229 118.092,16.0259 L119.675,8.6809 L124.864,8.6809 L127.171,27.3909 L122.241,27.3909 L121.55,17.1429 L121.459,17.1429 C121.368,17.7609 121.276,18.4089 121.124,19.0019 L119.098,27.3909 L116.121,27.3909 L114.293,19.4749 C114.148,18.6829 114.019,17.9379 113.98,17.1429 L113.813,17.1429 C113.773,17.8869 113.739,18.6539 113.684,19.4009 L113.089,27.3909 L108.159,27.3909 L110.424,8.6809 Z" fill="#E0251B"></path>
    <path d="M134.693,25.6496 L134.582,25.6496 C133.708,26.8876 132.922,27.6856 131.567,27.6856 C128.886,27.6856 127.398,24.0606 127.398,20.8666 C127.398,17.5366 128.903,13.9186 131.694,13.9186 C132.886,13.9186 133.874,14.4866 134.582,15.7766 L134.693,15.7766 L134.54,14.2186 L139.246,14.2186 L139.246,27.3906 L134.54,27.3906 L134.693,25.6496 Z M133.409,22.6736 C134.316,22.6736 134.693,21.7066 134.693,20.6906 C134.693,19.6756 134.17,18.9296 133.409,18.9296 C132.643,18.9296 132.164,19.7736 132.164,20.7396 C132.164,21.7816 132.535,22.6736 133.409,22.6736 L133.409,22.6736 Z" fill="#E0251B"></path>
    <path d="M141.5944,22.2551 L141.8934,22.5001 C142.5594,23.0461 143.5314,23.7181 144.3464,23.7181 C144.6654,23.7181 145.0584,23.4921 145.0584,22.9921 C145.0584,22.2761 144.4824,22.2551 144.0864,22.1781 C142.4904,21.8801 141.0014,21.0111 141.0014,18.5331 C141.0014,15.2311 143.4934,13.9181 145.6194,13.9181 C146.8454,13.9181 148.3714,14.2411 149.4474,15.0341 L148.2784,18.6831 C147.6644,18.0891 146.8454,17.5901 146.0594,17.5901 C145.7674,17.5901 145.3724,17.7161 145.3724,18.1821 C145.3724,18.8321 145.8944,18.8811 146.5634,19.0291 C148.2784,19.4021 149.6684,20.1971 149.6684,22.8501 C149.6684,26.2721 147.1244,27.6861 144.8924,27.6861 C143.3234,27.6861 141.8014,27.0431 140.3654,26.2221 L141.5944,22.2551 Z" fill="#E0251B"></path>
    <polygon fill="#E0251B" points="156.5222 14.3862 158.1202 14.2912 158.1202 19.3252 156.5222 19.1992 156.5222 27.3912 151.6832 27.3912 151.6832 19.1992 150.5092 19.3252 150.5092 14.2912 151.6832 14.3862 151.6832 9.9722 156.5222 9.9722"></polygon>
    <path d="M163.5561,21.8803 C163.5561,22.9493 163.6871,24.1413 164.6941,24.1413 C165.1931,24.1413 165.5651,23.6643 165.6591,23.0453 L170.3261,23.0453 C169.6971,26.2223 167.0321,27.6863 164.7611,27.6863 C161.6581,27.6863 158.8071,25.5543 158.8071,21.0113 C158.8071,16.6493 161.3391,13.9183 164.4861,13.9183 C168.0011,13.9183 170.7711,16.9413 170.5311,21.8803 L163.5561,21.8803 Z M165.8081,19.1523 C165.8081,18.2593 165.3211,17.4413 164.6361,17.4413 C163.9041,17.4413 163.5561,18.2373 163.5561,19.1523 L165.8081,19.1523 Z" fill="#E0251B"></path>
    <path d="M179.7573,20.4175 C179.2613,20.0225 178.9083,19.6985 178.2933,19.6985 C177.0463,19.6985 176.4113,20.6905 176.4113,22.3275 L176.4113,27.3905 L171.6113,27.3905 L171.6113,14.2185 L176.4113,14.2185 L176.2993,15.9785 L176.4113,15.9785 C177.2713,14.2415 178.1423,13.8655 179.7573,13.9185 L179.7573,20.4175 Z" fill="#E0251B"></path>
    <path d="M178.087,25.9332 C178.087,24.9582 178.866,24.1782 179.847,24.1782 C180.831,24.1782 181.612,24.9582 181.612,25.9332 C181.612,26.9082 180.831,27.6922 179.847,27.6922 C178.866,27.6922 178.087,26.9082 178.087,25.9332 L178.087,25.9332 Z M181.154,25.9332 C181.154,25.1482 180.605,24.6352 179.847,24.6352 C179.086,24.6352 178.549,25.1482 178.549,25.9332 C178.549,26.7182 179.086,27.2302 179.847,27.2302 C180.605,27.2302 181.154,26.7182 181.154,25.9332 L181.154,25.9332 Z M180.67,26.8512 L180.217,26.8512 L179.809,26.0702 L179.508,26.0702 L179.508,26.8512 L179.121,26.8512 L179.121,25.0102 L180.012,25.0102 C180.4,25.0102 180.64,25.1402 180.64,25.5752 C180.64,25.8832 180.459,26.0502 180.227,26.0702 L180.67,26.8512 Z M179.928,25.7202 C180.117,25.7202 180.283,25.7202 180.283,25.5212 C180.283,25.3652 180.117,25.3652 179.928,25.3652 L179.508,25.3652 L179.508,25.7202 L179.928,25.7202 Z" fill="#E0251B"></path>
    <path d="M68.6687,39.5244 L70.0237,39.5244 C71.5267,39.5244 72.2767,38.8714 72.2767,37.5654 C72.2767,36.2574 71.5267,35.6044 70.0237,35.6044 L68.6687,35.6044 L68.6687,39.5244 Z M68.6687,48.0314 L64.5827,48.0314 L64.5827,32.3104 L71.0877,32.3104 C72.8537,32.3104 74.2047,32.7694 75.1427,33.6864 C76.0807,34.6044 76.5507,35.8964 76.5507,37.5654 C76.5507,39.2334 76.0807,40.5254 75.1427,41.4424 C74.2047,42.3604 72.8537,42.8194 71.0877,42.8194 L68.6687,42.8194 L68.6687,48.0314 Z" fill="#313D48"></path>
    <path d="M81.8055,39.3369 L82.5765,39.3369 C83.3815,39.3369 84.0015,39.1699 84.4315,38.8359 C84.8625,38.5029 85.0785,38.0239 85.0785,37.3979 C85.0785,36.7719 84.8625,36.2929 84.4315,35.9589 C84.0015,35.6259 83.3815,35.4589 82.5765,35.4589 L81.8055,35.4589 L81.8055,39.3369 Z M90.7925,48.0319 L85.7045,48.0319 L81.8055,41.9849 L81.8055,48.0319 L77.7175,48.0319 L77.7175,32.3109 L84.0775,32.3109 C84.9525,32.3109 85.7175,32.4389 86.3705,32.6959 C87.0235,32.9529 87.5625,33.3049 87.9865,33.7489 C88.4105,34.1939 88.7305,34.7079 88.9465,35.2929 C89.1605,35.8759 89.2685,36.5009 89.2685,37.1679 C89.2685,38.3639 88.9795,39.3339 88.4035,40.0769 C87.8265,40.8209 86.9755,41.3249 85.8485,41.5879 L90.7925,48.0319 Z" fill="#313D48"></path>
    <path d="M94.6492,40.171 C94.6492,40.797 94.7662,41.373 95.0032,41.902 C95.2392,42.43 95.5572,42.888 95.9622,43.278 C96.3652,43.667 96.8332,43.969 97.3692,44.185 C97.9042,44.4 98.4712,44.508 99.0682,44.508 C99.6652,44.508 100.2332,44.4 100.7672,44.185 C101.3022,43.969 101.7762,43.667 102.1842,43.278 C102.5952,42.888 102.9182,42.43 103.1542,41.902 C103.3902,41.373 103.5102,40.797 103.5102,40.171 C103.5102,39.545 103.3902,38.969 103.1542,38.44 C102.9182,37.912 102.5952,37.454 102.1842,37.064 C101.7762,36.675 101.3022,36.373 100.7672,36.157 C100.2332,35.942 99.6652,35.834 99.0682,35.834 C98.4712,35.834 97.9042,35.942 97.3692,36.157 C96.8332,36.373 96.3652,36.675 95.9622,37.064 C95.5572,37.454 95.2392,37.912 95.0032,38.44 C94.7662,38.969 94.6492,39.545 94.6492,40.171 M90.3732,40.171 C90.3732,39.003 90.5892,37.915 91.0212,36.908 C91.4512,35.9 92.0492,35.021 92.8132,34.27 C93.5772,33.52 94.4912,32.933 95.5552,32.508 C96.6192,32.085 97.7892,31.872 99.0682,31.872 C100.3332,31.872 101.5002,32.085 102.5722,32.508 C103.6412,32.933 104.5622,33.52 105.3342,34.27 C106.1052,35.021 106.7052,35.9 107.1372,36.908 C107.5682,37.915 107.7842,39.003 107.7842,40.171 C107.7842,41.339 107.5682,42.427 107.1372,43.434 C106.7052,44.442 106.1052,45.321 105.3342,46.071 C104.5622,46.823 103.6412,47.409 102.5722,47.833 C101.5002,48.257 100.3332,48.47 99.0682,48.47 C97.7892,48.47 96.6192,48.257 95.5552,47.833 C94.4912,47.409 93.5772,46.823 92.8132,46.071 C92.0492,45.321 91.4512,44.442 91.0212,43.434 C90.5892,42.427 90.3732,41.339 90.3732,40.171" fill="#313D48"></path>
    <path d="M116.2065,44.5701 L117.1445,44.5701 C117.8545,44.5701 118.4875,44.4591 119.0425,44.2371 C119.5985,44.0141 120.0675,43.7081 120.4495,43.3191 C120.8325,42.9301 121.1245,42.4681 121.3255,41.9321 C121.5265,41.3981 121.6275,40.8101 121.6275,40.1711 C121.6275,39.5451 121.5235,38.9611 121.3155,38.4191 C121.1075,37.8771 120.8105,37.4111 120.4295,37.0231 C120.0455,36.6331 119.5765,36.3281 119.0215,36.1051 C118.4655,35.8831 117.8395,35.7721 117.1445,35.7721 L116.2065,35.7721 L116.2065,44.5701 Z M112.1205,32.3101 L118.1665,32.3101 C119.2375,32.3101 120.2415,32.5261 121.1805,32.9561 C122.1185,33.3881 122.9375,33.9611 123.6395,34.6771 C124.3415,35.3931 124.8935,36.2271 125.2975,37.1781 C125.7005,38.1311 125.9035,39.1281 125.9035,40.1711 C125.9035,41.2001 125.7045,42.1911 125.3085,43.1421 C124.9115,44.0941 124.3625,44.9321 123.6615,45.6541 C122.9595,46.3771 122.1385,46.9541 121.2005,47.3841 C120.2615,47.8161 119.2505,48.0311 118.1665,48.0311 L112.1205,48.0311 L112.1205,32.3101 Z" fill="#313D48"></path>
    <path d="M127.1524,37.3353 L130.9274,37.3353 L130.9274,39.0873 C131.3304,38.4483 131.8234,37.9573 132.4074,37.6173 C132.9924,37.2763 133.6724,37.1053 134.4504,37.1053 L134.7744,37.1053 C134.8924,37.1053 135.0274,37.1203 135.1814,37.1483 L135.1814,40.7543 C134.6794,40.5043 134.1374,40.3793 133.5554,40.3793 C132.6784,40.3793 132.0214,40.6403 131.5844,41.1613 C131.1454,41.6823 130.9274,42.4433 130.9274,43.4443 L130.9274,48.0313 L127.1524,48.0313 L127.1524,37.3353 Z" fill="#313D48"></path>
    <mask id="b" fill="#fff">
      <use xlink:href="#a"></use>
    </mask>
    <path d="M136.264,48.031 L140.039,48.031 L140.039,37.335 L136.264,37.335 L136.264,48.031 Z M136.014,33.228 C136.014,32.936 136.069,32.662 136.181,32.404 C136.292,32.148 136.444,31.921 136.639,31.726 C136.835,31.533 137.06,31.379 137.318,31.268 C137.574,31.157 137.849,31.101 138.142,31.101 C138.432,31.101 138.707,31.157 138.966,31.268 C139.221,31.379 139.447,31.533 139.643,31.726 C139.837,31.921 139.988,32.148 140.102,32.404 C140.212,32.662 140.268,32.936 140.268,33.228 C140.268,33.52 140.212,33.795 140.102,34.052 C139.988,34.309 139.837,34.534 139.643,34.729 C139.447,34.924 139.221,35.076 138.966,35.188 C138.707,35.299 138.432,35.355 138.142,35.355 C137.849,35.355 137.574,35.299 137.318,35.188 C137.06,35.076 136.835,34.924 136.639,34.729 C136.444,34.534 136.292,34.309 136.181,34.052 C136.069,33.795 136.014,33.52 136.014,33.228 L136.014,33.228 Z" fill="#313D48" mask="url(#b)"></path>
    <polygon fill="#313D48" mask="url(#b)" points="145.2081 37.3353 147.7541 42.8193 150.3371 37.3353 154.5491 37.3353 148.9831 48.0313 146.4601 48.0313 140.9551 37.3353"></polygon>
    <path d="M162.4521,41.13 C162.3271,40.602 162.0701,40.178 161.6811,39.858 C161.2921,39.539 160.8191,39.378 160.2641,39.378 C159.6791,39.378 159.2021,39.532 158.8351,39.838 C158.4671,40.143 158.2331,40.574 158.1371,41.13 L162.4521,41.13 Z M158.0331,43.319 C158.0331,44.946 158.7961,45.759 160.3261,45.759 C161.1471,45.759 161.7641,45.425 162.1811,44.757 L165.8301,44.757 C165.0941,47.205 163.2521,48.427 160.3041,48.427 C159.4001,48.427 158.5751,48.292 157.8241,48.021 C157.0741,47.75 156.4291,47.365 155.8951,46.864 C155.3591,46.363 154.9461,45.766 154.6551,45.071 C154.3631,44.375 154.2161,43.597 154.2161,42.736 C154.2161,41.847 154.3561,41.043 154.6341,40.328 C154.9111,39.611 155.3071,39.003 155.8221,38.503 C156.3361,38.002 156.9581,37.617 157.6891,37.346 C158.4171,37.075 159.2431,36.94 160.1581,36.94 C161.0621,36.94 161.8751,37.075 162.5981,37.346 C163.3211,37.617 163.9331,38.01 164.4321,38.524 C164.9331,39.039 165.3151,39.667 165.5801,40.41 C165.8441,41.154 165.9761,41.992 165.9761,42.923 L165.9761,43.319 L158.0331,43.319 Z" fill="#313D48" mask="url(#b)"></path>
    <path d="M167.1221,37.3353 L170.8971,37.3353 L170.8971,38.6903 C171.4101,38.0643 171.9331,37.6443 172.4601,37.4293 C172.9891,37.2133 173.6061,37.1053 174.3161,37.1053 C175.0671,37.1053 175.7091,37.2273 176.2441,37.4703 C176.7801,37.7143 177.2361,38.0583 177.6101,38.5033 C177.9151,38.8653 178.1241,39.2673 178.2361,39.7123 C178.3461,40.1573 178.4021,40.6643 178.4021,41.2333 L178.4021,48.0313 L174.6291,48.0313 L174.6291,42.6313 C174.6291,42.1023 174.5901,41.6763 174.5141,41.3493 C174.4371,41.0223 174.3021,40.7613 174.1081,40.5673 C173.9411,40.4013 173.7521,40.2823 173.5441,40.2123 C173.3351,40.1433 173.1141,40.1083 172.8771,40.1083 C172.2391,40.1083 171.7481,40.2993 171.4081,40.6823 C171.0671,41.0643 170.8971,41.6093 170.8971,42.3183 L170.8971,48.0313 L167.1221,48.0313 L167.1221,37.3353 Z" fill="#313D48" mask="url(#b)"></path>
  </g>
</svg>
