<?xml version="1.0" encoding="UTF-8"?> <svg xmlns="http://www.w3.org/2000/svg" xmlns:xlink="http://www.w3.org/1999/xlink" id="logo" viewBox="0 0 186.47 116.158"><defs><clipPath id="clip-path"><rect id="Rectangle_12" data-name="Rectangle 12" fill="none"></rect></clipPath></defs><g id="Group_12" data-name="Group 12" clip-path="url(#clip-path)"><path id="Path_3" data-name="Path 3" d="M162.924,4.683A18.046,18.046,0,0,0,151.156,0H31.821C22.557,0,16.937,8.475,14.978,18.409L.257,93.095C-.771,98.309,1.383,103.107,4.988,106.5a16.837,16.837,0,0,0,1.821,2.714,19.1,19.1,0,0,0,14.339,6.942H140.484c8.733,0,15.357-7.15,17.719-19.127l14.72-74.685a14.96,14.96,0,0,0-3.377-12.532,19.359,19.359,0,0,0-6.623-5.13" transform="translate(0)" fill="#fff"></path><path id="Path_4" data-name="Path 4" d="M46.189,76.019H44.342q.617-3,1.236-6.014h1.85c.887,0,1.465.218,1.734.666a3.61,3.61,0,0,1,.032,2.386,4.449,4.449,0,0,1-1.021,2.3,2.738,2.738,0,0,1-1.984.661m75.908,2.37a3.768,3.768,0,0,0,.066-2.149,1.241,1.241,0,0,0-1.284-.678,1.946,1.946,0,0,0-1.531.66,5,5,0,0,0-.941,2.167q-.307,1.329-.615,2.649h3.686q.31-1.321.618-2.649m8.613-34.631a1.821,1.821,0,0,0,1.36-.576,4.038,4.038,0,0,0,.773-1.815s2.447-13.292,2.488-13.76c.126-1.444-.255-2.044-1.342-2.044-1.425,0-1.863,1.26-2.042,2.044,0,0-.047.192-.168.821-.035.186-2.365,13.026-2.365,13.026-.328,1.95.382,2.3,1.3,2.3M169.546,9.814a14.956,14.956,0,0,1,3.377,12.532L158.2,97.031c-2.362,11.977-8.986,19.127-17.717,19.127H21.149a19.1,19.1,0,0,1-14.339-6.94A17.029,17.029,0,0,1,4.988,106.5c-3.6-3.4-5.76-8.194-4.732-13.408L14.978,18.409C16.937,8.476,22.557,0,31.821,0H151.156a18.046,18.046,0,0,1,11.767,4.683,19.344,19.344,0,0,1,6.623,5.13m-48.167,8.231L113.84,59.818h12.232l1.9-10.462a11.592,11.592,0,0,0,12.45.6c3.9-2.586,4.574-7.262,4.892-9s2-10.591,2.538-13.862c.549-3.3,0-6.269-1.884-7.778-1.554-1.241-3.341-1.541-5.761-1.457a15.908,15.908,0,0,0-7.305,2.381l.4-2.2Zm-6.44,75.761q.784-3.383,1.573-6.782h15.965q1.193-5.009,2.394-10.059c.673-2.823.521-4.808-.424-5.939s-2.97-1.708-6.014-1.708H116.265q-4.569,0-6.769,1.679t-3.175,5.968l-2.076,9.114q-1.033,4.54-2.062,9.059-.968,4.254.458,5.879c.955,1.089,2.93,1.625,5.939,1.625H120.6c3.009,0,5.261-.545,6.734-1.65s2.546-3.056,3.212-5.853q.663-2.785,1.328-5.582-6.28,0-12.537,0c-.331,1.416-.661,2.836-.991,4.248a4.325,4.325,0,0,1-.852,1.925,1.872,1.872,0,0,1-1.45.594,1.117,1.117,0,0,1-1.136-.62,3.2,3.2,0,0,1,.029-1.9m-19.523.734q1.048-4.656,2.1-9.33t2.115-9.394h5.1q.724-3.192,1.452-6.4h-5.114q1.028-4.571,2.063-9.168H90.686q-1.014,4.6-2.021,9.168H85.41q-.7,3.2-1.4,6.394,1.621,0,3.244,0-1.065,4.825-2.123,9.622t-2.109,9.556c-.624,2.827-.463,4.8.5,5.9s2.935,1.649,5.943,1.649h9.209q.711-3.129,1.425-6.269h-2.18a4.263,4.263,0,0,1-2.2-.378c-.348-.245-.437-.707-.292-1.355M70.636,69.419q-1.793,8.361-3.57,16.664Q65.3,94.34,63.54,102.542H75.768q1.793-8.189,3.6-16.459,1.815-8.291,3.646-16.664Zm12.894-2.365q.741-3.388,1.486-6.8H72.6q-.731,3.415-1.455,6.8ZM105.709,15.7h12.279L119.2,8.967H106.913Zm-.419,2.346L99.361,51.232h12.23l5.974-33.187ZM72.307,34.672q-1.454,8.286-2.9,16.561H81.645q1.019-5.767,2.039-11.537T85.73,28.123a4.2,4.2,0,0,1,.757-1.962,1.739,1.739,0,0,1,1.42-.6,1.183,1.183,0,0,1,1.179.623,3.353,3.353,0,0,1,.066,1.942c-.184,1.042-.369,2.091-.553,3.128h11.661q.329-1.846.66-3.706.847-4.736-.824-7.216T94.413,17.84a12.911,12.911,0,0,0-3.8.568,17.785,17.785,0,0,0-3.825,1.728c.123-.7.245-1.391.368-2.091H75.224q-1.462,8.334-2.917,16.627M30.734,49.243c1.236,1.533,3.7,2.294,7.371,2.294h8.922a18.691,18.691,0,0,0,6.111-.786,6.02,6.02,0,0,0,3.244-2.576c.3,1.016.615,2.039.929,3.057h8.442q1.06-6.067,2.123-12.13,1.065-6.079,2.131-12.174-9.515-.007-19.029,0-.813,4.707-1.626,9.409h2.284c-.152.874-.3,1.749-.453,2.617a4.71,4.71,0,0,1-.892,2.31,2.229,2.229,0,0,1-1.757.681,1.493,1.493,0,0,1-1.458-.7,3.81,3.81,0,0,1-.1-2.291c.5-2.928,1.013-5.868,1.52-8.8s1.016-5.872,1.525-8.817A4.878,4.878,0,0,1,50.918,19a2.147,2.147,0,0,1,1.71-.724,1.689,1.689,0,0,1,1.467.679,2.345,2.345,0,0,1,.284,1.82,2.41,2.41,0,0,1-.071.276c-.037.11-.056.21-.073.276-.058.236-.115.465-.166.69h16.8q.375-2.139.749-4.279c.563-3.215.163-5.516-1.2-6.921S66.5,8.707,62.74,8.707H45.473c-3.49,0-6.171.731-8.02,2.176s-3.046,3.732-3.58,6.86Q32.859,23.684,31.845,29.6T29.824,41.428c-.629,3.69-.324,6.285.91,7.815m-8.252,53.3H38.9q.883-4.3,1.77-8.613c.592-2.891,1.186-5.777,1.781-8.676h1.839a1.857,1.857,0,0,1,1.723.678,3.546,3.546,0,0,1,.039,2.344c-.494,2.386-.989,4.779-1.481,7.155s-.983,4.753-1.471,7.113H59.785c.381-1.784.761-3.577,1.144-5.366s.763-3.6,1.147-5.4c.761-3.582.808-6.284.121-8.092A5.932,5.932,0,0,0,57.678,80.1a11.435,11.435,0,0,0,5.916-3.149,13.661,13.661,0,0,0,2.986-6.536c.768-3.607.489-6.208-.836-7.783s-3.924-2.383-7.8-2.383H30.909q-2.134,10.713-4.246,21.313l-4.182,20.978M165.042,6.921A14.006,14.006,0,0,1,168,18.409L153.278,93.095c-1.957,9.933-7.579,18.409-16.843,18.409H17.1a17.74,17.74,0,0,1-9.836-3.157,18.208,18.208,0,0,0,13.886,6.921H140.486c9.262,0,14.884-8.476,16.841-18.409l14.721-74.685c1.229-6.24-2.08-11.9-7.007-15.252m18.114.439.618,1.105h-.966l-.587-1a4.742,4.742,0,0,0-1.028-1.4,2.193,2.193,0,0,0-1.155-.229h-.5V8.465h-.786V2.4h2.355a2.859,2.859,0,0,1,1.834.468,1.472,1.472,0,0,1,.555,1.166,1.578,1.578,0,0,1-.579,1.237,2.448,2.448,0,0,1-1.229.478,2.368,2.368,0,0,1,.515.308,4.137,4.137,0,0,1,.468.571,8.212,8.212,0,0,1,.484.729M181.99,5.029a.9.9,0,0,0,.5-.358.942.942,0,0,0,.2-.563,1,1,0,0,0-.331-.75,2.751,2.751,0,0,0-1.66-.311h-1.15v2.11h.77a7.047,7.047,0,0,0,1.681-.127m4.482.6a5.418,5.418,0,0,1-1.647,3.98,5.62,5.62,0,0,1-7.96,0,5.419,5.419,0,0,1-1.649-3.98,5.424,5.424,0,0,1,1.649-3.983,5.628,5.628,0,0,1,7.96,0,5.422,5.422,0,0,1,1.647,3.983m-.626,0a4.824,4.824,0,0,0-1.465-3.54,5,5,0,0,0-7.076,0,4.836,4.836,0,0,0-1.465,3.54A4.834,4.834,0,0,0,177.3,9.168a5,5,0,0,0,7.076,0,4.821,4.821,0,0,0,1.465-3.536" transform="translate(0)" fill="#ce0024"></path><path id="Path_5" data-name="Path 5" d="M169.287,19.542,154.566,94.227c-1.957,9.933-7.579,18.409-16.841,18.409H18.388A18.208,18.208,0,0,1,4.5,105.716a17.74,17.74,0,0,0,9.836,3.157H133.673c9.264,0,14.886-8.476,16.843-18.409l14.721-74.685A14.006,14.006,0,0,0,162.281,4.29c4.927,3.349,8.236,9.01,7.007,15.252" transform="translate(2.761 2.631)" fill="#0a0406"></path></g></svg> 