<svg id="Layer_1" data-name="Layer 1" xmlns="http://www.w3.org/2000/svg" viewBox="0 0 176.13 83.75"><defs><style>.cls-1,.cls-2{fill:#fff;}.cls-2{fill-rule:evenodd;}</style></defs><polygon class="cls-1" points="21.68 71.95 25.46 52.71 36.47 52.71 36.04 54.83 27.59 54.83 26.44 60.61 34.05 60.61 33.64 62.72 26.02 62.72 24.24 71.95 21.68 71.95"/><path class="cls-1" d="M85.11,87.67,96.24,68.42h3l3.58,19.25h-2.67l-.84-4.93H90.61L87.9,87.67Zm6.69-7.11h7.14L97.23,71Z" transform="translate(-53.08 -15.71)"/><polygon class="cls-1" points="74.42 71.95 71.78 71.95 75.14 54.83 68.31 54.83 68.73 52.71 85.04 52.71 84.62 54.83 77.78 54.83 74.42 71.95"/><polygon class="cls-1" points="86.97 69.84 96.83 69.84 96.42 71.95 83.97 71.95 87.75 52.71 99.89 52.71 99.47 54.82 89.92 54.82 88.81 60.61 97.99 60.61 97.59 62.73 88.4 62.73 86.97 69.84"/><polygon class="cls-1" points="112.67 69.16 115.91 52.71 118.45 52.71 114.71 71.95 111.17 71.95 105.86 55.35 102.62 71.95 100.1 71.95 103.88 52.71 107.36 52.71 112.67 69.16"/><polygon class="cls-1" points="122.35 69.84 132.16 69.84 131.75 71.95 119.3 71.95 123.09 52.71 135.31 52.71 134.89 54.82 125.31 54.82 124.2 60.63 133.27 60.63 132.87 62.75 123.79 62.75 122.35 69.84"/><path class="cls-1" d="M207.52,74.17a5.08,5.08,0,0,1,.62-2.36,5.23,5.23,0,0,1,1.49-1.88,6.68,6.68,0,0,1,2.24-1.32,9.85,9.85,0,0,1,3.26-.61,18.36,18.36,0,0,1,3.58.34A22.49,22.49,0,0,1,221,69l-.53,2.54a13.68,13.68,0,0,0-3-1.16,9.22,9.22,0,0,0-2.43-.23,6.81,6.81,0,0,0-1.94.3,4.91,4.91,0,0,0-1.53.79,3.23,3.23,0,0,0-1,1.16,3.3,3.3,0,0,0-.34,1.49,1.9,1.9,0,0,0,.25,1.08,1.38,1.38,0,0,0,.6.57,4.9,4.9,0,0,0,1.08.5c.44.15.9.24,1.38.38.71.2,2,.49,2.64.72a7.87,7.87,0,0,1,1.82.88,4.87,4.87,0,0,1,1.31,1.47,4.72,4.72,0,0,1,.35,2,5.62,5.62,0,0,1-.56,2.63,5.42,5.42,0,0,1-1.65,2A7.58,7.58,0,0,1,215,87.55a13.56,13.56,0,0,1-5.87.35,13.55,13.55,0,0,1-1.71-.31,9.29,9.29,0,0,1-1.31-.41,7.86,7.86,0,0,1-.92-.37l.53-2.64c.32.18.81.43,1.2.63a11,11,0,0,0,2.89,1,7.52,7.52,0,0,0,1.24.16,9,9,0,0,0,2.35-.17,6.22,6.22,0,0,0,1.91-.82,3.92,3.92,0,0,0,1.21-1.33,3.81,3.81,0,0,0,.34-1.67,2.58,2.58,0,0,0-.38-1.36,2.28,2.28,0,0,0-1.13-.88,10.83,10.83,0,0,0-1.85-.58c-.55-.12-1.07-.26-1.63-.42a13.23,13.23,0,0,1-1.68-.56,6.74,6.74,0,0,1-1.54-.86,2.84,2.84,0,0,1-.91-1.35,5.61,5.61,0,0,1-.2-1.76" transform="translate(-53.08 -15.71)"/><path class="cls-1" d="M106.56,74.17a5.9,5.9,0,0,1,2.11-4.24,6.78,6.78,0,0,1,2.24-1.32,9.86,9.86,0,0,1,3.27-.61,18.52,18.52,0,0,1,3.58.34A23,23,0,0,1,120,69l-.53,2.54a13.68,13.68,0,0,0-3-1.16,9.15,9.15,0,0,0-2.43-.23,6.73,6.73,0,0,0-1.93.3,5,5,0,0,0-1.54.79,3.34,3.34,0,0,0-1,1.16,3.3,3.3,0,0,0-.34,1.49,1.9,1.9,0,0,0,.26,1.08,1.41,1.41,0,0,0,.59.57,5,5,0,0,0,1.09.5c.43.15.9.24,1.37.38.72.2,2,.49,2.64.72a7.5,7.5,0,0,1,1.82.88,4.74,4.74,0,0,1,1.31,1.47,4.44,4.44,0,0,1,.35,2,5.51,5.51,0,0,1-2.2,4.61A7.68,7.68,0,0,1,114,87.55a13.61,13.61,0,0,1-5.88.35,13.7,13.7,0,0,1-1.7-.31,9.29,9.29,0,0,1-1.31-.41,7.44,7.44,0,0,1-.93-.37l.54-2.64c.31.18.81.43,1.19.63a11,11,0,0,0,2.89,1,7.52,7.52,0,0,0,1.24.16,9,9,0,0,0,2.35-.17,6.11,6.11,0,0,0,1.91-.82,3.82,3.82,0,0,0,1.21-1.33,3.67,3.67,0,0,0,.34-1.67,2.49,2.49,0,0,0-.38-1.36,2.28,2.28,0,0,0-1.13-.88,10.56,10.56,0,0,0-1.85-.58c-.54-.12-1.07-.26-1.62-.42a12.72,12.72,0,0,1-1.68-.56,6.34,6.34,0,0,1-1.54-.86,2.79,2.79,0,0,1-.92-1.35,5.61,5.61,0,0,1-.2-1.76" transform="translate(-53.08 -15.71)"/><path class="cls-1" d="M201,79.92a2.85,2.85,0,0,0-1-1.22,4.73,4.73,0,0,0-.64-.29A5.5,5.5,0,0,0,202,77.08a5,5,0,0,0,1.52-2.52,5.91,5.91,0,0,0-.07-3.22,4.24,4.24,0,0,0-2.29-2.45,8,8,0,0,0-3.38-.47H192.2l-3.69,19.25h2.64l1.56-8.17h2.77a3.23,3.23,0,0,1,2.81,1.07,9.12,9.12,0,0,1,1,2.28c.4,1.25,1.48,4.82,1.48,4.82h2.76s-1.37-4.26-1.64-5.13a17.19,17.19,0,0,0-.93-2.62m-2.66-2.84a7.09,7.09,0,0,1-2,.3h-3.17l1.33-6.9h3.28a2.87,2.87,0,0,1,3.09,3.75,3.6,3.6,0,0,1-1.6,2.41,9,9,0,0,1-.93.44" transform="translate(-53.08 -15.71)"/><path class="cls-1" d="M186.32,95.74a3.84,3.84,0,0,0,0,.5,1.12,1.12,0,0,0,.12.39.63.63,0,0,0,.25.26.67.67,0,0,0,.39.1.68.68,0,0,0,.4-.1.67.67,0,0,0,.24-.26,1.12,1.12,0,0,0,.12-.39,2.6,2.6,0,0,0,0-.5v-5h1.36v5a3.08,3.08,0,0,1-.18,1.13,1.78,1.78,0,0,1-.48.71,1.51,1.51,0,0,1-.69.35,3.59,3.59,0,0,1-.81.09,3.5,3.5,0,0,1-.8-.08,1.66,1.66,0,0,1-.7-.32,1.74,1.74,0,0,1-.48-.7,3.25,3.25,0,0,1-.18-1.18v-5h1.37Zm.39-5.75h-1.06V88.8h1.06Zm1.86,0h-1.06V88.8h1.06Z" transform="translate(-53.08 -15.71)"/><path class="cls-1" d="M187.11,98.08a4.2,4.2,0,0,1-.81-.08,1.71,1.71,0,0,1-.72-.34,1.69,1.69,0,0,1-.5-.72,3.37,3.37,0,0,1-.18-1.2V90.67h1.47v5.07a2.49,2.49,0,0,0,0,.49,1.24,1.24,0,0,0,.11.37.66.66,0,0,0,.23.24.64.64,0,0,0,.36.09.65.65,0,0,0,.37-.09.57.57,0,0,0,.22-.24,1,1,0,0,0,.12-.37,3.68,3.68,0,0,0,0-.49V90.67h1.48v5.07a2.94,2.94,0,0,1-.19,1.15,1.88,1.88,0,0,1-.49.73,1.65,1.65,0,0,1-.72.37,3.68,3.68,0,0,1-.82.09m-2.1-7.3v5a3.08,3.08,0,0,0,.18,1.15,1.57,1.57,0,0,0,.46.68,1.54,1.54,0,0,0,.67.32,3.82,3.82,0,0,0,1.58,0,1.53,1.53,0,0,0,.67-.34,1.87,1.87,0,0,0,.47-.69,3.16,3.16,0,0,0,.17-1.11v-5H188v5a4.06,4.06,0,0,1,0,.51,1.31,1.31,0,0,1-.13.41.7.7,0,0,1-.26.28.78.78,0,0,1-.43.1.77.77,0,0,1-.42-.1.81.81,0,0,1-.27-.28,1.64,1.64,0,0,1-.13-.41,4.12,4.12,0,0,1,0-.51v-5Zm3.61-.74h-1.17v-1.3h1.17Zm-1.06-.11h.95V88.86h-.95Zm-.79.11h-1.18v-1.3h1.18Zm-1.07-.11h1V88.86h-1Z" transform="translate(-53.08 -15.71)"/><path class="cls-1" d="M191.74,90.72V93h0a1.44,1.44,0,0,1,.47-.48,1.16,1.16,0,0,1,.63-.16,1.28,1.28,0,0,1,1.19.66,4.76,4.76,0,0,1,.37,2.19,4.62,4.62,0,0,1-.37,2.16,1.27,1.27,0,0,1-1.19.65,1.38,1.38,0,0,1-.67-.15,1.32,1.32,0,0,1-.48-.53h0v.57h-1.26V90.72Zm.13,5.82a.54.54,0,0,0,.56.45.55.55,0,0,0,.56-.45,5.4,5.4,0,0,0,.13-1.33,5.5,5.5,0,0,0-.13-1.34.55.55,0,0,0-.56-.45.54.54,0,0,0-.56.45,5,5,0,0,0-.13,1.34,5,5,0,0,0,.13,1.33" transform="translate(-53.08 -15.71)"/><path class="cls-1" d="M192.86,98.08a1.39,1.39,0,0,1-.7-.16,1.25,1.25,0,0,1-.42-.41V98h-1.36v-7.3h1.42v2.17a1.53,1.53,0,0,1,.4-.37,1.18,1.18,0,0,1,.66-.17,1.33,1.33,0,0,1,1.24.7,4.79,4.79,0,0,1,.38,2.2,4.58,4.58,0,0,1-.39,2.2,1.32,1.32,0,0,1-1.23.68m-1.23-.8h.11v0a1.42,1.42,0,0,0,.47.52,1.38,1.38,0,0,0,.64.14,1.2,1.2,0,0,0,1.13-.63,4.48,4.48,0,0,0,.38-2.14,4.58,4.58,0,0,0-.38-2.15,1.19,1.19,0,0,0-1.13-.64,1.08,1.08,0,0,0-.6.16,1.32,1.32,0,0,0-.45.46l0,0h-.11V90.78h-1.19v7.08h1.14Zm.8-.24a.59.59,0,0,1-.61-.49,6.53,6.53,0,0,1,0-2.69.59.59,0,0,1,.61-.49.58.58,0,0,1,.61.49,7,7,0,0,1,0,2.69.58.58,0,0,1-.61.49m0-3.56a.48.48,0,0,0-.5.41,6.72,6.72,0,0,0,0,2.63.48.48,0,0,0,.5.41.48.48,0,0,0,.5-.41,6.72,6.72,0,0,0,0-2.63.48.48,0,0,0-.5-.41" transform="translate(-53.08 -15.71)"/><path class="cls-1" d="M196.49,95.85a3.59,3.59,0,0,0,0,.47,1.56,1.56,0,0,0,.11.4.75.75,0,0,0,.2.28.44.44,0,0,0,.3.11.55.55,0,0,0,.49-.25,1.89,1.89,0,0,0,.2-.77H199a2.29,2.29,0,0,1-.48,1.44,1.74,1.74,0,0,1-1.37.49,2.07,2.07,0,0,1-1.11-.25,1.48,1.48,0,0,1-.58-.66,2.77,2.77,0,0,1-.24-.93c0-.34,0-.68,0-1a8.64,8.64,0,0,1,.07-1,2.51,2.51,0,0,1,.29-.9,1.52,1.52,0,0,1,.61-.62,2,2,0,0,1,1.06-.23,2,2,0,0,1,.93.19,1.46,1.46,0,0,1,.57.56A2.29,2.29,0,0,1,199,94a7.87,7.87,0,0,1,.07,1.13v.32h-2.58Zm1.3-1.81a2,2,0,0,0-.1-.4.57.57,0,0,0-.2-.25.58.58,0,0,0-.33-.09.52.52,0,0,0-.33.1.63.63,0,0,0-.2.25,1.2,1.2,0,0,0-.11.35,2.34,2.34,0,0,0,0,.38v.21h1.33c0-.21,0-.39,0-.55" transform="translate(-53.08 -15.71)"/><path class="cls-1" d="M197.15,98.08a2.19,2.19,0,0,1-1.14-.26,1.57,1.57,0,0,1-.61-.69,2.82,2.82,0,0,1-.23-.94c0-.35,0-.69,0-1a7.2,7.2,0,0,1,.08-1.05,2.48,2.48,0,0,1,.29-.92,1.61,1.61,0,0,1,.63-.64,2.15,2.15,0,0,1,1.09-.24,2.07,2.07,0,0,1,1,.2,1.5,1.5,0,0,1,.59.58,2.47,2.47,0,0,1,.29.88,7.94,7.94,0,0,1,.08,1.14v.37h-2.58v.38a3.44,3.44,0,0,0,0,.46,1.48,1.48,0,0,0,.1.39.73.73,0,0,0,.19.26.37.37,0,0,0,.26.09.47.47,0,0,0,.44-.22,2.09,2.09,0,0,0,.2-.74V96h1.29v.06a2.28,2.28,0,0,1-.48,1.48,1.81,1.81,0,0,1-1.42.51m.06-5.67a2.08,2.08,0,0,0-1,.23,1.52,1.52,0,0,0-.58.6,2.41,2.41,0,0,0-.28.87,7.17,7.17,0,0,0-.07,1c0,.35,0,.69,0,1a2.54,2.54,0,0,0,.23.9,1.45,1.45,0,0,0,.56.64,2.05,2.05,0,0,0,1.08.25,1.67,1.67,0,0,0,1.33-.48,2.21,2.21,0,0,0,.46-1.34h-1.07a1.82,1.82,0,0,1-.21.74.59.59,0,0,1-.53.28.56.56,0,0,1-.34-.12.77.77,0,0,1-.21-.31,1.64,1.64,0,0,1-.12-.41,3.87,3.87,0,0,1,0-.48v-.49H199V95.1a7.55,7.55,0,0,0-.08-1.12,2.37,2.37,0,0,0-.28-.85,1.4,1.4,0,0,0-.55-.53,1.94,1.94,0,0,0-.9-.19m.67,2.24h-1.45v-.27a2.56,2.56,0,0,1,0-.39,2,2,0,0,1,.12-.37.73.73,0,0,1,.22-.27.61.61,0,0,1,.36-.1.66.66,0,0,1,.36.09.63.63,0,0,1,.22.28,1.44,1.44,0,0,1,.1.42c0,.15,0,.34,0,.55Zm-1.33-.12h1.21a3.43,3.43,0,0,0,0-.48,1.39,1.39,0,0,0-.1-.39.48.48,0,0,0-.17-.22.56.56,0,0,0-.3-.08.5.5,0,0,0-.29.08.71.71,0,0,0-.19.23,1.22,1.22,0,0,0-.1.34,2.22,2.22,0,0,0,0,.37Z" transform="translate(-53.08 -15.71)"/><path class="cls-1" d="M201.21,92.5v.72h0a2.12,2.12,0,0,1,.49-.63,1,1,0,0,1,.69-.23h.12l.11,0V93.7h-.4a1,1,0,0,0-.34.06.81.81,0,0,0-.32.16.84.84,0,0,0-.22.3,1.08,1.08,0,0,0-.09.46v3.25H200V92.5Z" transform="translate(-53.08 -15.71)"/><path class="cls-1" d="M201.32,98H199.9V92.44h1.36V93a2.16,2.16,0,0,1,.41-.48,1.08,1.08,0,0,1,.73-.25h.12l.12,0h.05v1.44h-.26a1.6,1.6,0,0,0-.53,0,.76.76,0,0,0-.29.16.67.67,0,0,0-.21.28,1.06,1.06,0,0,0-.08.43ZM200,97.86h1.19v-3.2a1.14,1.14,0,0,1,.1-.48.77.77,0,0,1,.24-.32.89.89,0,0,1,.33-.18,1.54,1.54,0,0,1,.56-.05h.15V92.42h-.18a1,1,0,0,0-.66.23,1.72,1.72,0,0,0-.46.61l0,0h-.11v-.73H200Z" transform="translate(-53.08 -15.71)"/><path class="cls-1" d="M206.45,92.45a1.64,1.64,0,0,0-.14-.39.89.89,0,0,0-.24-.3.61.61,0,0,0-.36-.11.76.76,0,0,0-.71.58,6.27,6.27,0,0,0-.22,1.94c0,.43,0,.82,0,1.16a5,5,0,0,0,.14.9,1.4,1.4,0,0,0,.28.56.66.66,0,0,0,.48.2.72.72,0,0,0,.27-.07.94.94,0,0,0,.28-.22,1.3,1.3,0,0,0,.21-.35,1.36,1.36,0,0,0,.09-.51v-.73h-.9V94h2.2v3.87h-1v-.66h0a1.48,1.48,0,0,1-.59.6,2.25,2.25,0,0,1-1.85-.06,1.48,1.48,0,0,1-.61-.71,3.76,3.76,0,0,1-.3-1.2,15.64,15.64,0,0,1-.08-1.64,10.43,10.43,0,0,1,.11-1.59,3.32,3.32,0,0,1,.37-1.14,1.74,1.74,0,0,1,.71-.69,2.19,2.19,0,0,1,1.08-.24,2,2,0,0,1,1.61.59,2.58,2.58,0,0,1,.5,1.69h-1.31a2.71,2.71,0,0,0,0-.41" transform="translate(-53.08 -15.71)"/><path class="cls-1" d="M205.43,98.08a2,2,0,0,1-1.05-.24,1.62,1.62,0,0,1-.64-.74,3.82,3.82,0,0,1-.3-1.21,15.84,15.84,0,0,1-.08-1.65,10.57,10.57,0,0,1,.11-1.6,3.76,3.76,0,0,1,.38-1.16,1.87,1.87,0,0,1,.73-.72,2.43,2.43,0,0,1,1.11-.23,2,2,0,0,1,1.66.61,2.65,2.65,0,0,1,.5,1.72v.06h-1.42v-.06a1.81,1.81,0,0,0,0-.4,1.35,1.35,0,0,0-.13-.37.91.91,0,0,0-.23-.28.49.49,0,0,0-.32-.1.69.69,0,0,0-.65.54,5.84,5.84,0,0,0-.22,1.92c0,.42,0,.82,0,1.16a4.85,4.85,0,0,0,.13.88,1.24,1.24,0,0,0,.28.54.55.55,0,0,0,.43.18.61.61,0,0,0,.25-.06,1.16,1.16,0,0,0,.25-.2,1.4,1.4,0,0,0,.21-.34,1.44,1.44,0,0,0,.08-.49v-.68h-.9V94h2.32v4h-1.12v-.55a1.41,1.41,0,0,1-.53.48,1.84,1.84,0,0,1-.85.18m.26-7.44a2.25,2.25,0,0,0-1.06.23,1.66,1.66,0,0,0-.68.66,3.34,3.34,0,0,0-.36,1.13,9.24,9.24,0,0,0-.11,1.58,15.88,15.88,0,0,0,.07,1.64,3.63,3.63,0,0,0,.3,1.17,1.45,1.45,0,0,0,.59.69,1.91,1.91,0,0,0,1,.23,1.78,1.78,0,0,0,.8-.17,1.45,1.45,0,0,0,.57-.58l0,0h.11v.67h.88V94.09h-2.09v1h.9v.79a1.44,1.44,0,0,1-.09.53,1.21,1.21,0,0,1-.22.37A1,1,0,0,1,206,97a.72.72,0,0,1-.3.07.7.7,0,0,1-.52-.21,1.42,1.42,0,0,1-.3-.59,5.1,5.1,0,0,1-.13-.9c0-.35,0-.74,0-1.17a6.16,6.16,0,0,1,.22-2,.8.8,0,0,1,.76-.62.63.63,0,0,1,.39.13,1,1,0,0,1,.26.31,1.32,1.32,0,0,1,.14.41,2.23,2.23,0,0,1,.05.36h1.19a2.47,2.47,0,0,0-.48-1.59,1.93,1.93,0,0,0-1.57-.57" transform="translate(-53.08 -15.71)"/><path class="cls-1" d="M210.28,92.5v.72h0a2,2,0,0,1,.48-.63,1,1,0,0,1,.69-.23h.12l.12,0V93.7h-.41a1,1,0,0,0-.34.06.77.77,0,0,0-.31.16.86.86,0,0,0-.23.3,1.08,1.08,0,0,0-.09.46v3.25H209V92.5Z" transform="translate(-53.08 -15.71)"/><path class="cls-1" d="M210.39,98H209V92.44h1.37V93a1.89,1.89,0,0,1,.4-.48,1.1,1.1,0,0,1,.73-.25h.12l.13,0h.05v1.44h-.27a1.53,1.53,0,0,0-.52,0,.73.73,0,0,0-.3.16.89.89,0,0,0-.21.28,1.06,1.06,0,0,0-.08.43Zm-1.31-.11h1.2v-3.2a1.14,1.14,0,0,1,.09-.48.87.87,0,0,1,.24-.32.89.89,0,0,1,.33-.18,1.6,1.6,0,0,1,.57-.05h.14V92.42h-.18a1,1,0,0,0-.65.23,1.74,1.74,0,0,0-.47.61l0,0h-.11v-.73h-1.14Z" transform="translate(-53.08 -15.71)"/><path class="cls-1" d="M212.34,94a2,2,0,0,1,.14-.79,1.4,1.4,0,0,1,.39-.52,1.52,1.52,0,0,1,.57-.28,2.56,2.56,0,0,1,.69-.08,3.1,3.1,0,0,1,1,.12,1.24,1.24,0,0,1,.56.34,1.21,1.21,0,0,1,.27.53A2.81,2.81,0,0,1,216,94v2.85a4.47,4.47,0,0,0,0,.59,2.23,2.23,0,0,0,.13.45h-1.25a1.08,1.08,0,0,1-.1-.27l-.06-.29h0a1.13,1.13,0,0,1-.53.55,2,2,0,0,1-.77.12,1.28,1.28,0,0,1-.58-.12,1,1,0,0,1-.37-.35,1.4,1.4,0,0,1-.21-.5,2.08,2.08,0,0,1-.07-.55,2.59,2.59,0,0,1,.08-.66,1.22,1.22,0,0,1,.23-.47,1.31,1.31,0,0,1,.4-.33,3.68,3.68,0,0,1,.58-.23l.74-.21a.75.75,0,0,0,.4-.22.63.63,0,0,0,.12-.41.79.79,0,0,0-.14-.49.66.66,0,0,0-.92,0,.82.82,0,0,0-.15.52v.15h-1.18Zm2.1,1.35-.27.1a1,1,0,0,0-.57.3.9.9,0,0,0-.17.57,1.13,1.13,0,0,0,.12.54.39.39,0,0,0,.37.22,1,1,0,0,0,.28,0,.94.94,0,0,0,.26-.14,1,1,0,0,0,.2-.27,1,1,0,0,0,.07-.38V95.21a1.05,1.05,0,0,1-.29.17" transform="translate(-53.08 -15.71)"/><path class="cls-1" d="M213.41,98.08a1.24,1.24,0,0,1-.6-.13,1,1,0,0,1-.4-.37,1.79,1.79,0,0,1-.22-.51,2.76,2.76,0,0,1-.06-.57,2.7,2.7,0,0,1,.07-.67,1.26,1.26,0,0,1,.25-.49,1.18,1.18,0,0,1,.41-.35,2.5,2.5,0,0,1,.59-.23l.74-.21a.68.68,0,0,0,.38-.21.55.55,0,0,0,.1-.37.76.76,0,0,0-.12-.46.53.53,0,0,0-.43-.15.48.48,0,0,0-.41.17.78.78,0,0,0-.14.48v.2h-1.29V94a2.14,2.14,0,0,1,.15-.82,1.43,1.43,0,0,1,1-.82,2.76,2.76,0,0,1,.71-.09,3.24,3.24,0,0,1,1,.12,1.34,1.34,0,0,1,.58.36,1.2,1.2,0,0,1,.28.55A3,3,0,0,1,216,94v2.85a4.3,4.3,0,0,0,0,.58,1.93,1.93,0,0,0,.12.44l0,.08h-1.37l0,0a1,1,0,0,1-.1-.29.85.85,0,0,1,0-.17,1.09,1.09,0,0,1-.49.47,2.06,2.06,0,0,1-.8.13m.71-4.84a.64.64,0,0,1,.52.2.86.86,0,0,1,.15.53.75.75,0,0,1-.13.45.79.79,0,0,1-.44.23l-.73.22a2.94,2.94,0,0,0-.58.22,1.16,1.16,0,0,0-.37.32,1.07,1.07,0,0,0-.23.45,2.41,2.41,0,0,0-.07.64,2.48,2.48,0,0,0,.06.54,1.73,1.73,0,0,0,.2.48,1,1,0,0,0,.36.33,1.18,1.18,0,0,0,.55.12,1.77,1.77,0,0,0,.75-.13,1.05,1.05,0,0,0,.5-.52l0,0h.1v0a2.86,2.86,0,0,0,.07.28.75.75,0,0,0,.08.24h1.13a1.6,1.6,0,0,1-.1-.39,3.18,3.18,0,0,1,0-.6V94a2.73,2.73,0,0,0-.07-.66,1.13,1.13,0,0,0-.25-.5,1.31,1.31,0,0,0-.54-.33,3,3,0,0,0-.93-.12,2.48,2.48,0,0,0-.68.09,1.35,1.35,0,0,0-.55.27,1.3,1.3,0,0,0-.36.49,1.89,1.89,0,0,0-.14.77v.07h1.06V94a.84.84,0,0,1,.16-.55.62.62,0,0,1,.5-.22m-.2,3.92a.45.45,0,0,1-.43-.25,1.19,1.19,0,0,1-.12-.56,1,1,0,0,1,.19-.61,1,1,0,0,1,.6-.32l.26-.09a1,1,0,0,0,.27-.17l.1-.08v1.19a1,1,0,0,1-.08.41,1,1,0,0,1-.21.28,1.12,1.12,0,0,1-.28.16,1,1,0,0,1-.3,0m.75-1.84a.78.78,0,0,1-.2.11,1.43,1.43,0,0,1-.29.1,1,1,0,0,0-.53.28.83.83,0,0,0-.16.54,1,1,0,0,0,.11.51.32.32,0,0,0,.32.19.78.78,0,0,0,.26,0,.72.72,0,0,0,.24-.14.55.55,0,0,0,.18-.24.8.8,0,0,0,.07-.36Z" transform="translate(-53.08 -15.71)"/><path class="cls-1" d="M219.65,97.34a1.32,1.32,0,0,1-.48.53,1.38,1.38,0,0,1-.67.15,1.27,1.27,0,0,1-1.19-.65,4.6,4.6,0,0,1-.38-2.16,4.74,4.74,0,0,1,.38-2.19,1.28,1.28,0,0,1,1.19-.66,1.18,1.18,0,0,1,.63.16,1.44,1.44,0,0,1,.47.48h0V90.72h1.3v7.19h-1.25v-.57Zm-1.28-.8a.54.54,0,0,0,.55.45.56.56,0,0,0,.57-.45,5.4,5.4,0,0,0,.13-1.33,5.5,5.5,0,0,0-.13-1.34.56.56,0,0,0-.57-.45.54.54,0,0,0-.55.45,5,5,0,0,0-.13,1.34,5,5,0,0,0,.13,1.33" transform="translate(-53.08 -15.71)"/><path class="cls-1" d="M218.5,98.08a1.32,1.32,0,0,1-1.23-.68,4.58,4.58,0,0,1-.39-2.2,4.79,4.79,0,0,1,.38-2.2,1.33,1.33,0,0,1,1.24-.7,1.16,1.16,0,0,1,.66.17,1.39,1.39,0,0,1,.4.37V90.67H221V98h-1.36v-.46a1.19,1.19,0,0,1-.43.41,1.33,1.33,0,0,1-.69.16m0-5.67a1.22,1.22,0,0,0-1.14.64A4.73,4.73,0,0,0,217,95.2a4.63,4.63,0,0,0,.37,2.14,1.23,1.23,0,0,0,1.14.63,1.38,1.38,0,0,0,.64-.14,1.4,1.4,0,0,0,.46-.52l0,0h.11v.58h1.14V90.78h-1.2v2.28h-.11v0a1.52,1.52,0,0,0-.45-.46,1.08,1.08,0,0,0-.6-.16m.43,4.63a.58.58,0,0,1-.61-.49,7,7,0,0,1,0-2.69.58.58,0,0,1,.61-.49.59.59,0,0,1,.61.49,7,7,0,0,1,0,2.69.59.59,0,0,1-.61.49m0-3.56a.49.49,0,0,0-.51.41,7.27,7.27,0,0,0,0,2.63.49.49,0,0,0,.51.41.48.48,0,0,0,.5-.41,6.72,6.72,0,0,0,0-2.63.48.48,0,0,0-.5-.41" transform="translate(-53.08 -15.71)"/><path class="cls-1" d="M223.09,95.85a2.42,2.42,0,0,0,0,.47,1.56,1.56,0,0,0,.1.4.75.75,0,0,0,.2.28.48.48,0,0,0,.3.11.54.54,0,0,0,.49-.25,2,2,0,0,0,.21-.77h1.17a2.23,2.23,0,0,1-.47,1.44,1.74,1.74,0,0,1-1.38.49,2,2,0,0,1-1.1-.25,1.45,1.45,0,0,1-.59-.66,2.76,2.76,0,0,1-.23-.93c0-.34,0-.68,0-1a7,7,0,0,1,.07-1,2.5,2.5,0,0,1,.28-.9,1.58,1.58,0,0,1,.61-.62,2.06,2.06,0,0,1,1.06-.23,2,2,0,0,1,.94.19,1.46,1.46,0,0,1,.57.56,2.29,2.29,0,0,1,.28.86,7.8,7.8,0,0,1,.08,1.13v.32h-2.59Zm1.3-1.81a1.46,1.46,0,0,0-.1-.4.51.51,0,0,0-.2-.25.54.54,0,0,0-.33-.09.47.47,0,0,0-.32.1.58.58,0,0,0-.21.25,1.2,1.2,0,0,0-.1.35,1.58,1.58,0,0,0,0,.38v.21h1.34c0-.21,0-.39,0-.55" transform="translate(-53.08 -15.71)"/><path class="cls-1" d="M223.75,98.08a2.12,2.12,0,0,1-1.13-.26,1.51,1.51,0,0,1-.61-.69,2.83,2.83,0,0,1-.24-.94c0-.35,0-.69,0-1a7.22,7.22,0,0,1,.07-1.05,2.68,2.68,0,0,1,.29-.92,1.68,1.68,0,0,1,.63-.64,2.15,2.15,0,0,1,1.09-.24,2.07,2.07,0,0,1,1,.2,1.59,1.59,0,0,1,.6.58,2.47,2.47,0,0,1,.29.88,8,8,0,0,1,.07,1.14v.37h-2.58v.38a3.44,3.44,0,0,0,0,.46,1.48,1.48,0,0,0,.11.39.71.71,0,0,0,.18.26.4.4,0,0,0,.27.09.46.46,0,0,0,.43-.22,1.89,1.89,0,0,0,.2-.74V96h1.28v.06a2.33,2.33,0,0,1-.49,1.48,1.81,1.81,0,0,1-1.42.51m.06-5.67a2,2,0,0,0-1,.23,1.62,1.62,0,0,0-.59.6,2.62,2.62,0,0,0-.28.87,8.93,8.93,0,0,0-.07,1c0,.35,0,.69,0,1a2.77,2.77,0,0,0,.23.9,1.41,1.41,0,0,0,.57.64,2,2,0,0,0,1.07.25,1.7,1.7,0,0,0,1.34-.48,2.14,2.14,0,0,0,.45-1.34h-1.06a2,2,0,0,1-.21.74.59.59,0,0,1-.53.28.54.54,0,0,1-.34-.12.79.79,0,0,1-.22-.31,1.64,1.64,0,0,1-.11-.41,3.87,3.87,0,0,1,0-.48v-.49h2.58V95.1a6.41,6.41,0,0,0-.08-1.12,2.36,2.36,0,0,0-.27-.85,1.55,1.55,0,0,0-.55-.53,2,2,0,0,0-.91-.19m.68,2.24H223v-.27a2.56,2.56,0,0,1,0-.39,1.45,1.45,0,0,1,.11-.37.84.84,0,0,1,.22-.27.62.62,0,0,1,.37-.1.63.63,0,0,1,.35.09.57.57,0,0,1,.22.28,1.42,1.42,0,0,1,.11.42c0,.15,0,.34,0,.55Zm-1.34-.12h1.22c0-.18,0-.34,0-.48a1.87,1.87,0,0,0-.09-.39.58.58,0,0,0-.18-.22.52.52,0,0,0-.29-.08.53.53,0,0,0-.3.08.58.58,0,0,0-.18.23,1.23,1.23,0,0,0-.11.34,2.22,2.22,0,0,0,0,.37Z" transform="translate(-53.08 -15.71)"/><rect class="cls-1" x="131.58" y="82.79"/><path class="cls-1" d="M202.81,99.47h-18.2v-1h18.2Zm-18.09-.12h18v-.78h-18Z" transform="translate(-53.08 -15.71)"/><polygon class="cls-1" points="172.43 52.28 170.03 52.28 170.03 52.71 170.95 52.71 170.95 54.98 171.5 54.98 171.5 52.71 172.43 52.71 172.43 52.28"/><polygon class="cls-1" points="175.35 52.28 174.55 53.48 173.75 52.28 172.97 52.28 172.97 54.98 173.52 54.98 173.52 52.83 174.41 54.13 174.69 54.13 175.58 52.83 175.58 54.98 176.13 54.98 176.13 52.28 175.35 52.28"/><path class="cls-1" d="M114.19,61.88c-5.24,3.21-13.93,4.41-18.31,4.51-16.8.38-28-8.21-28-25C67.84,26.93,77,16,95.08,16a44.77,44.77,0,0,1,17.36,3.71l.06,10a35.67,35.67,0,0,0-12-4.24C88,23.66,80.76,29.7,80.76,41.08c0,10.72,5,16.79,16.23,16.26a23.61,23.61,0,0,0,5.46-.9V47H94.77V38.57h19.42Z" transform="translate(-53.08 -15.71)"/><path class="cls-1" d="M94.81,66.69c-8.21,0-15-2.22-19.75-6.42a21.17,21.17,0,0,1-5.55-7.93,29,29,0,0,1-2-10.94c0-7.46,2.4-13.8,6.94-18.33,4.83-4.81,12-7.36,20.59-7.36a45.12,45.12,0,0,1,17.48,3.74l.17.07.06,10.67-.44-.26a34.71,34.71,0,0,0-11.87-4.2,28.15,28.15,0,0,0-4.1-.31c-9.74,0-15.33,5.71-15.33,15.66,0,10.62,4.91,16,14.6,16l1.33,0a23,23,0,0,0,5.19-.83v-9H94.48v-9h20V62l-.14.09c-5.54,3.39-14.49,4.45-18.45,4.54l-1.08,0m.27-50.4c-16.62,0-26.95,9.62-26.95,25.11s10,24.71,26.68,24.71h1.07c4.5-.1,13-1.36,18-4.38V38.85H95.06v7.84h7.68v10l-.21.07a24.19,24.19,0,0,1-5.53.9c-.45,0-.91,0-1.35,0-5.1,0-9-1.48-11.52-4.39s-3.65-6.88-3.65-12.19c0-5.1,1.39-9.12,4.15-11.95s6.72-4.28,11.75-4.28a29.12,29.12,0,0,1,4.18.31,35.65,35.65,0,0,1,11.65,4l0-9.28a44.5,44.5,0,0,0-17.08-3.61" transform="translate(-53.08 -15.71)"/><path class="cls-1" d="M120.73,16.84h20.38c11.61,0,17.49,4.82,17.49,12.89,0,6.5-1.83,10.46-9.58,13.13a7.57,7.57,0,0,1,4.39,2.23c1.56,1.41,3.16,3.69,5,7.51l6.31,12.95H151.43s-.64-1.31-6.39-12.87c-2.63-5.29-5.22-5.58-8.92-5.58h-2.67V65.55H120.73Zm12.72,21.63H137c4.11,0,9.07.11,9.07-6.41,0-5.78-4.21-6-9.07-6h-3.58Z" transform="translate(-53.08 -15.71)"/><path class="cls-1" d="M165.16,65.84H151.25l-.08-.16s-.71-1.45-6.38-12.87c-2.57-5.16-5-5.42-8.67-5.42h-2.38V65.84h-13.3V16.55h20.67c11.46,0,17.77,4.68,17.77,13.18,0,3.64-.59,6.16-1.93,8.16s-3.57,3.62-6.87,4.89a9.38,9.38,0,0,1,3.52,2.1c1.72,1.56,3.33,4,5.05,7.6Zm-13.55-.58h12.63l-6.1-12.53c-1.7-3.56-3.26-5.92-4.92-7.42A7.37,7.37,0,0,0,149,43.15L147.79,43l1.13-.39c7.85-2.71,9.39-6.76,9.39-12.86A11,11,0,0,0,154,20.49c-2.94-2.23-7.29-3.36-12.92-3.36H121V65.26h12.15V46.81h3a10.67,10.67,0,0,1,5,.84c1.6.82,2.93,2.38,4.19,4.91,4.74,9.53,6,12.11,6.31,12.7M137.47,38.75h-4.3v-13H137c2.54,0,4.78.07,6.48.87,1.94.91,2.88,2.69,2.88,5.43,0,2.94-1,4.84-3,5.82-1.77.87-4.08.87-5.94.87m-3.73-.57h3.71c1.81,0,4.05,0,5.71-.81s2.66-2.61,2.66-5.31c0-2.53-.81-4.1-2.55-4.91s-3.77-.81-6.24-.81h-3.29Z" transform="translate(-53.08 -15.71)"/><polygon class="cls-1" points="114.73 1.12 127.22 1.12 127.22 19.05 145.36 1.12 159.86 1.12 136.54 24.28 162.21 49.84 146.51 49.84 127.22 30.74 127.22 49.84 114.73 49.84 114.73 1.12"/><path class="cls-1" d="M216,65.84H199.47l-18.88-18.7v18.7H167.53V16.55h13.06V34.08l17.74-17.53h15.31L190,40Zm-16.27-.58H214.6L189.21,40l23-22.86H198.56L180,35.45V17.13H168.1V65.26H180V45.76Z" transform="translate(-53.08 -15.71)"/><polygon class="cls-1" points="172.92 76.19 172.57 76.19 172.57 76.06 173.41 76.06 173.41 76.19 173.06 76.19 173.06 77.22 172.92 77.22 172.92 76.19"/><path class="cls-1" d="M227.66,92.43c0-.17,0-.36,0-.51h0c0,.14-.09.28-.14.45l-.2.56h-.12l-.18-.56c-.05-.16-.1-.31-.13-.45h0c0,.15,0,.34,0,.52l0,.49h-.14l.08-1.16h.19l.19.57q.08.21.12.39h0q0-.18.12-.39l.2-.57h.19l.07,1.16h-.14Z" transform="translate(-53.08 -15.71)"/><path class="cls-2" d="M53.42,61.3l.49-.93.78-.94.73-.63.73-.53,1.1-.49,1-.34.71-.16.11-.65.54-1.13,1.19-1.3,1.5-.87L63.6,53l1.2,0,.64.14.49.1.46.14.61.35.62.41.31.31.28.32,2.11-.1.14,0-.45.08.11.4.82.1.55,0v.47l-.14.74-.09.93,0,.77,0,.68.09.76,0,.31,2.77-.4,1.13-.12,1,0a1.89,1.89,0,0,1,.32.25c0,.07.13.27.13.27l.09.34,0,.72-.07.34-1.24.24.18.11.78,1.49v.64l-.24.54-.34.23-1.39,0-.64.27-.16.39-.06.36-.19.49-.85.21.72.47.53.07.27-.31.49-.22.58.21.83-.34.65-.71.33-.55.41-.19.52.16.11.25v.58l.54-.14.42.07.27.28v.63l.14.18.12.52-.1.31-.38.42-.29.36-.18.27-.38.14-1-.21-.7-.18-.38.12-1.15.4-.92-.13-.48.92-.75,1v.13l.61.08.51.31-.87.07.17.18.58.57.29.42.12.38-.33,1.46-.52.69-3.64,2.7.17,1.17.63,2.09.52,1.42.26,1-1.18-1.47-.49-.48L69,81.17l-1.72-1.81-.38-1.45-1.07-.4-1.1-1.11-.92-2.31-1.16-.56-1.51-1.35-.33.06-.21.31-1.45.56-.94,1.74-.94.86-.66.07-1.07-.45-.62-.25-.13-.74-.24-.08-.32-.15-.15-.36.07-.46.9-.76a2.57,2.57,0,0,1,0-.33s-.11-1-.11-1l.13-.44.38-.16.67.32.57.31.56.17.51-.09.31-.21-.1-.63.48-.35.76.06.22,0v-.65l.39-1.5.65-1.44,1-1.33.37-.49-1.67-1.5L59,62.52l-.88-.46-.25-.14.8-1.9.39-.5.14-.25L59,59.1l-.3.19-.78.31-.71.24-.52.2-.46.3-.33-.07-.35.33-.89.42-.49.22-.84.5-.11,0,0-.22Z" transform="translate(-53.08 -15.71)"/><path class="cls-2" d="M53.18,61.85s0,.1.11,0,.47-.28.57-.35a.28.28,0,0,0,.12-.11,1.48,1.48,0,0,0,.34-.09,2.33,2.33,0,0,0,.57-.29l.31-.22a.43.43,0,0,0,.39-.08l.48-.33s0,.08.24,0l.52-.29c.13-.07.11.07.34-.06a5,5,0,0,1,.51-.26c.13,0,.14,0,.31-.07l.39-.26s0,0,.17,0A1,1,0,0,0,59,59.3c.12-.07.38-.26.38-.26l1-1,.14-.29a6.7,6.7,0,0,0-1.11.13,8.38,8.38,0,0,0-.83.26c-.25.11-.53.2-.87.36s-.89.4-1,.51l-.07-.06-.46.27a3.6,3.6,0,0,0-.46.33c-.1.11-.27.2-.36.35a8.89,8.89,0,0,1-.67.73c-.15.16-.69.59-.86.72s-.28.2-.47.33-.11.19-.11.19" transform="translate(-53.08 -15.71)"/><path class="cls-2" d="M59.61,55.64a3.07,3.07,0,0,1,.81-.24,4,4,0,0,1,1.35,0,3.27,3.27,0,0,1,1,.27,8.51,8.51,0,0,1,.82.51l-1.68.91A1.16,1.16,0,0,0,61.5,57,12.34,12.34,0,0,0,60,57l-.86.06Z" transform="translate(-53.08 -15.71)"/><path class="cls-2" d="M60.11,55.11s.81-.15,1.08-.16a2.78,2.78,0,0,1,.74.07,3.78,3.78,0,0,0,.39.08h.13a.42.42,0,0,0-.09-.44,1,1,0,0,0-.65-.38c-.26-.06-.78-.11-.78-.11l-.84.95" transform="translate(-53.08 -15.71)"/><path class="cls-2" d="M62.55,64.38l-.61-.53-1.25-.79-1.17-.6L58,62l.58.33.26.1.12,0a4.21,4.21,0,0,0,.47.36,16.28,16.28,0,0,1,1.39,1.1,4.89,4.89,0,0,1,.85.91s-.54.62-.93,1.13a7,7,0,0,0-.95,1.77,7.4,7.4,0,0,0-.38,1.81c0,.38.16.27.39.08l.6-.48.44-2,1.4-2.1,0-.2.25-.17Z" transform="translate(-53.08 -15.71)"/><path class="cls-2" d="M63.87,69.72l.26.21A10.15,10.15,0,0,1,65,69a8.18,8.18,0,0,1,1.76-1.3,9.23,9.23,0,0,1,2-.93,21.47,21.47,0,0,1,2.36-.6c.81-.15.86-.17,1.42-.25s1.33-.16,1.63-.19.35-.06.34-.14,0-.09-.09-.09-.12,0-.08-.09-.11-.09-.11-.09l.15-.06a.16.16,0,0,0,0-.21s-4,.54-4,.54l-1.46.49-2.66,1.39L64.2,69.21Z" transform="translate(-53.08 -15.71)"/><path class="cls-2" d="M73.92,69.09l.46-.21a.61.61,0,0,0,.3.24,1.06,1.06,0,0,0,.68,0,1.09,1.09,0,0,0,.26-.23.9.9,0,0,0,.42,0,3.51,3.51,0,0,0,.38-.14.17.17,0,0,1,.2,0,2.77,2.77,0,0,0,.95.3,1.41,1.41,0,0,0,.63,0,.92.92,0,0,0,.42-.26.84.84,0,0,0,.2-.35v-.23a.64.64,0,0,0,.33-.13,2.26,2.26,0,0,0,.34-.51l-.31.17-.41.09,0,.19-.1.33-.2.26-.32.07-.86-.17-.6-.17h-.34l-.35.09-.3,0-.29.12-.26.06-.27-.11-.43-.32-.4,0Z" transform="translate(-53.08 -15.71)"/><path class="cls-2" d="M69.79,77.82a3.65,3.65,0,0,0,1.06-.35,6.86,6.86,0,0,0,1.45-.86,3.87,3.87,0,0,0,1-1,5.42,5.42,0,0,0,.49-1l-1.86,1L70,76.83l-.16.22Z" transform="translate(-53.08 -15.71)"/><path class="cls-2" d="M54.8,71a.53.53,0,0,0-.21.28,1.26,1.26,0,0,0,0,.61,1.3,1.3,0,0,0,.2.39l.29.29.5-.25-.11-.13L55,71.66l-.13-.5Z" transform="translate(-53.08 -15.71)"/><path class="cls-2" d="M55,75.35a1,1,0,0,0,.38.26,2,2,0,0,0,.32,0,1.32,1.32,0,0,0,.62.4,1.6,1.6,0,0,0,1.1,0,1.4,1.4,0,0,0,.75-.65,9.53,9.53,0,0,0,.58-1.23,2.33,2.33,0,0,1,.46-.81.71.71,0,0,1,.54-.25,1.06,1.06,0,0,0,.7-.24,1.21,1.21,0,0,0,.38-.44c0-.1.09-.11.17,0s.37.39.66.66a6.36,6.36,0,0,0,.92.68c.26.15.9.48.9.48a10.35,10.35,0,0,0,.39,1.33,6.35,6.35,0,0,0,.85,1.26,4.84,4.84,0,0,0,1.15.94,8.22,8.22,0,0,0,.8.38A9,9,0,0,0,67,79.32a5.62,5.62,0,0,0,.75,1.28,9.79,9.79,0,0,0,.92.91,5.5,5.5,0,0,1,.67.75,4.6,4.6,0,0,1,.55.79,2.94,2.94,0,0,0,.26.37c.07.11.14.06.1-.08s-.13-.44-.25-.81-.36-1.17-.36-1.17l-.56-.56-.73-.92-.72-1.2-.36-1.18-.36-.21-.87-.38-.89-.78-.43-.62-.5-1.33-.18-.78L63,73l-1.3-.79-.63-1-.47.1-.19.17,0,.36-.22.53-.41.23-.36,0-.42.25-.58.76-.49.91-.4.88-.31.25-.31.1-.27,0-.34-.18-.13-.25-.05-.18Z" transform="translate(-53.08 -15.71)"/><polygon class="cls-2" points="13.32 57.94 13.13 58.42 13.09 58.99 13.89 59.42 14.19 59.49 14.88 57.9 14.88 57.74 13.32 57.94"/><path class="cls-2" d="M77.28,62.88c0-.09-.38-.1-.55-.1l-1.9,0c-.32,0-1.35.1-1.74.14a9.29,9.29,0,0,0-1,.16s-.19.13.12.08l.68-.09c.26,0,.29,0,.33,0s0,.05-.19.07l-.62.09c-.15,0-.17.14,0,.12l.63-.06c.22,0,.28,0,.3,0s0,.08-.29.11l-.8.11c-.17,0-.15.13.07.12l.89-.11c.25,0,.29,0,.32.06s-.06.1-.17.1-.38,0-.61,0-.15.19.21.16l.66,0c.22,0,.14.1,0,.11a4.35,4.35,0,0,1-.57.06c-.13,0,0,.15.07.15s.4,0,.52,0,.12,0,.11.11a.12.12,0,0,0,.13.13l2.07,0c.2,0,.22,0,.37,0s.18,0,.32,0a.91.91,0,0,0,.33,0c.08,0,.11-.1.13-.18s0-.12,0-.2a1.15,1.15,0,0,0,.06-.17c0-.06,0-.08,0-.14s.07-.05.07-.18-.05-.17-.08-.27,0-.15.08-.23a.34.34,0,0,0,0-.22m-.06.17a.12.12,0,0,1-.09.09c-.06,0-.08,0-.15,0s-.1,0-.13,0,0-.06.06-.09A.3.3,0,0,1,77,63a.22.22,0,0,0,.14,0s.06,0,.06.06" transform="translate(-53.08 -15.71)"/><path class="cls-2" d="M70.85,62l1.65-.42c.4-.09,2-.35,2.44-.38s1.69-.08,1.75-.08.18.09.12.14a.6.6,0,0,1-.38.14,5.53,5.53,0,0,1-.56,0l0,.06a7.18,7.18,0,0,0,.84,0l.28,0v.29h.21s.12,0,.11.07,0,.07-.07.07-.12,0-.12,0a.21.21,0,0,0,.13.16l.17,0s.1.06,0,.1-.17,0-.18.1,0,.17,0,.26,0,.17-.12.18-2,0-2.42,0-1.64.11-1.77.13-.2-.06-.08-.09.19,0,.16-.08-.22,0-.36,0l-.36.06c-.1,0-.14-.08,0-.11s.38-.07.52-.09.24,0,.2-.12,0-.1-.26-.07L72,62.6c-.2,0-.24,0-.24,0s0-.07.23-.09l.63-.13c.14,0,.21,0,.17-.09s-.11-.06-.27,0l-.87.17c-.14,0-.26,0,0-.1l.71-.15c.17,0,.36,0,.32-.12s-.21,0-.49,0l-1,.19c-.16,0-.27,0-.12-.07s.77-.16.92-.2.21,0,.18-.08-.21,0-.46,0-.58.11-.73.16-.15-.06-.15-.06" transform="translate(-53.08 -15.71)"/><path class="cls-2" d="M71.77,54.76s-.07,0-.07-.12.08-.19.25-.15a.47.47,0,0,0,.22,0,.3.3,0,0,1,.16.05s0-.08.1-.13.14-.08.15,0a.09.09,0,0,0,.08.1s.11,0,0,.08a.59.59,0,0,1-.21.05s-.06,0-.1,0,0,.08-.14.08,0,0-.19.07a.49.49,0,0,1-.27-.05" transform="translate(-53.08 -15.71)"/><path class="cls-2" d="M72.23,55s0-.11.06-.14.15-.08.17,0,0,0,0,.09,0,.09-.08.1a.22.22,0,0,1-.12,0" transform="translate(-53.08 -15.71)"/><path class="cls-2" d="M71.83,55.18c.06,0,.07,0,.08-.12S72,54.93,72,55s.08,0,.1.1.12,0,.1.1,0,.14-.09.12-.14-.05-.22,0-.09,0-.09,0" transform="translate(-53.08 -15.71)"/><path class="cls-2" d="M71.51,55.17s0-.1,0-.15,0-.11,0-.12h.14s.07-.06.11,0,.08,0,0,.09,0,0-.06.1,0,.07,0,.1a.3.3,0,0,1-.15.06c-.07,0-.08,0-.08,0" transform="translate(-53.08 -15.71)"/><path class="cls-2" d="M77.13,61.43a.79.79,0,0,1,.15-.26c.07-.08.1-.13.22-.1s.14.07.12.12,0,.05-.06.05-.14,0-.13,0,0,.09.07.08l.15,0s.06,0,0,.08.06,0,.1,0,0,0,0-.14,0-.19.15-.11.12.11.07.17,0,.11-.14.17a.51.51,0,0,1-.24.08c-.18,0-.11,0-.26,0s-.13.06-.2,0a.1.1,0,0,1-.05-.11" transform="translate(-53.08 -15.71)"/><path class="cls-2" d="M77.46,61.77c.1,0,.1-.07.15,0s.16.08.08.12-.08.08-.16.07a.18.18,0,0,1-.13-.07s.06-.1.06-.1" transform="translate(-53.08 -15.71)"/><path class="cls-2" d="M77.68,62.15c.06,0,.11,0,.1,0s0,.07,0,.11,0,.07-.12,0-.12-.1-.09-.12a.62.62,0,0,1,.14-.06" transform="translate(-53.08 -15.71)"/><path class="cls-2" d="M76.84,59.24s0,.13,0,.16a.23.23,0,0,0,.16,0c.07,0,.18,0,.15-.1s-.05-.08-.12-.08a1,1,0,0,0-.19,0" transform="translate(-53.08 -15.71)"/><path class="cls-2" d="M77.28,59.08c.07,0,.14-.06.16,0s0,.09.09.06.12,0,.13,0,0,.06-.08.1-.12.05-.21,0-.11,0-.13-.07,0-.11,0-.11" transform="translate(-53.08 -15.71)"/><path class="cls-2" d="M77,59.73a.33.33,0,0,1,.26-.15h.25c.16,0,.22,0,.14.09s-.07,0-.12.08,0,.06-.15.09-.19.07-.26,0-.12-.15-.12-.15" transform="translate(-53.08 -15.71)"/><path class="cls-2" d="M77.11,60.08c0-.08,0-.09.07,0a.06.06,0,0,0,.1,0s.08-.06.08,0,0,.07,0,.11,0,0-.08,0,0,0-.07,0,0-.1,0-.1" transform="translate(-53.08 -15.71)"/><path class="cls-2" d="M77.42,63.54h.16c.06,0,0,0,.12,0s.13.06.11.12,0,.16-.13.16-.13-.08-.19-.08,0,0-.11,0-.07,0-.07-.09a.09.09,0,0,1,.11-.09" transform="translate(-53.08 -15.71)"/><path class="cls-2" d="M77.16,64.26a.26.26,0,0,1,.21-.07s0,0,.06,0,.07,0,.11,0,0,.08.09.11.08,0,0,.06,0,.07-.17.07-.12-.07-.2-.07-.12,0-.14,0a.14.14,0,0,1,0-.07" transform="translate(-53.08 -15.71)"/><path class="cls-2" d="M77.49,62.81c0-.05.06-.1.12-.11s.1,0,.1,0,0,0,0,.09-.06.08,0,.11a.1.1,0,0,0,.09,0s.06,0,.06,0,0,.05.07,0S78,63,78,63s.13.1,0,.11-.08,0-.09.07,0,.09,0,.06a.12.12,0,0,0-.11,0s0,0-.12,0-.1,0-.14-.1a.43.43,0,0,1-.08-.19.31.31,0,0,1,0-.11" transform="translate(-53.08 -15.71)"/><path class="cls-2" d="M76.37,64.57s-.16,0,0,.07.16,0,.22.09.06,0,.13,0,0-.08.13,0a.22.22,0,0,0,.1,0,.06.06,0,0,0-.06-.07c-.07,0,0,0-.1,0a.31.31,0,0,0-.19,0l-.11,0-.12,0" transform="translate(-53.08 -15.71)"/><path class="cls-2" d="M76,65s0,.06.09.07,0,0,.07.08a.15.15,0,0,0,.15,0,.23.23,0,0,1,.12,0,.1.1,0,0,0,.08-.08.11.11,0,0,1,0-.1s.09,0,.08-.06,0-.08,0-.06,0,0-.05,0,0,0-.06,0,0-.07,0-.07,0,0-.06,0,0-.06-.07-.07h-.09s0-.1-.06,0,0,.06-.07.07L76,65" transform="translate(-53.08 -15.71)"/><path class="cls-2" d="M65.53,64.14a3.62,3.62,0,0,0,1,.08A3.38,3.38,0,0,0,67.77,64a3.42,3.42,0,0,0,1.11-.67,1.07,1.07,0,0,0,.27-.37,2.77,2.77,0,0,1,.19-.26c.1-.1.17-.14.19,0a.41.41,0,0,1,0,.27c0,.08-.09,0-.2.2a4.35,4.35,0,0,1-.72.64,9.57,9.57,0,0,1-.95.53.46.46,0,0,0,.28.07.48.48,0,0,0,.34-.12c.08-.07.19-.12.14,0a1,1,0,0,1-.33.53,1.15,1.15,0,0,1-.74.4,1.43,1.43,0,0,1-.66-.08,2,2,0,0,0-.56-.09.83.83,0,0,0-.27.06c-.15.06-.22.06-.28-.15a3.55,3.55,0,0,1,0-.81" transform="translate(-53.08 -15.71)"/><path class="cls-2" d="M63.35,60.29a.92.92,0,1,0,.91.91.91.91,0,0,0-.91-.91m-.41,1.11a.24.24,0,1,1,0-.47.23.23,0,0,1,.23.24.23.23,0,0,1-.23.23" transform="translate(-53.08 -15.71)"/><path class="cls-2" d="M67.87,58.53a.92.92,0,1,0,.91.91.91.91,0,0,0-.91-.91m-.35,1.06a.23.23,0,0,1-.23-.24.23.23,0,0,1,.23-.23.23.23,0,0,1,.24.23.24.24,0,0,1-.24.24" transform="translate(-53.08 -15.71)"/><path class="cls-2" d="M60.52,60.61l.88-.29a6.37,6.37,0,0,1,.93-.21l.73,0c.33,0,.47.06.51,0s-.06-.15-.12-.18,0-.09-.06-.11,0-.06-.07-.08l-.12,0s0-.12,0-.1l.27.13c.09,0,.16,0,.12-.06s0-.16,0-.11,0,.12,0,.15.06,0,.13,0,.21,0,.11-.12a1.34,1.34,0,0,0-.61-.25,4.19,4.19,0,0,1-.63-.07,3,3,0,0,0-.66-.11c-.28,0-.53,0-1,0a3.88,3.88,0,0,0-.72.06,1.36,1.36,0,0,0-.38.09c-.06,0,0,.11.06.12l.31,0c.11,0,.22.09.15.11s-.15,0-.15.06,0,.13,0,.15l-.33.05c-.14,0-.19.15,0,.13l.4,0c.14,0,.27,0,.47,0s.21.05.3.05.11,0,.21,0,.15,0,.07.07-.11.06-.2.06-.17,0-.23,0-.09.12,0,.12l.25,0c.11,0,.11,0,.23-.05l.23-.06s.12,0,0,.08-.13.07-.36.16l-.51.18c-.2.08-.33.11-.32.16s.1,0,.1,0" transform="translate(-53.08 -15.71)"/><path class="cls-2" d="M66.66,58.21c.1-.2.28-.42.35-.57s.17-.12.28-.27a4.21,4.21,0,0,1,.45-.59c.2-.17.45-.37.66-.56s.36-.3.53-.44.16-.09.24-.11.1,0,0,.06,0,.07,0,.13.1.07.11.11,0,0-.07.12-.16.1-.21.17,0,.06,0,.16,0,.16.1.12.09,0,.08-.13,0-.08.07-.11,0-.11.14-.12.25-.09.26,0,0,.1,0,.16a.78.78,0,0,1-.18.11c-.07,0-.06,0-.08.09s0,.09-.1.15-.2.17-.1.12l.28-.12c.12,0,.25,0,.25,0s0,.07-.15.15-.18.13-.34.22-.31.13-.45.23-.5.33-.75.5a4,4,0,0,0-.56.45c-.12.14-.19.26-.22.23s0,0-.06.06-.07.15-.12.12,0-.1-.12,0l-.13.13s0-.08,0,0-.1.12-.13.07-.08-.05,0-.22,0-.1,0-.13.06-.18.06-.18" transform="translate(-53.08 -15.71)"/><path class="cls-2" d="M73.73,66c.21-.05.24.13.07.12s-.22-.07-.18-.1l.11,0" transform="translate(-53.08 -15.71)"/><path class="cls-2" d="M72.25,83a6.74,6.74,0,0,1,.12.81c0,.29,0,.51,0,.51s-.08,0-.1-.22-.05-.37-.08-.61-.06-.4-.07-.55.09-.14.14.06" transform="translate(-53.08 -15.71)"/><path class="cls-2" d="M79.62,66.8a.55.55,0,0,0-.25-.29.92.92,0,0,0,.12-.3.52.52,0,0,0-.09-.39.68.68,0,0,0-.35-.33,1,1,0,0,0-.49,0,1.57,1.57,0,0,0-.4.16,1.44,1.44,0,0,0,.07-.25.92.92,0,0,0,0-.43.66.66,0,0,0-.41-.39.8.8,0,0,0-.55,0,.84.84,0,0,0-.47.39,2.44,2.44,0,0,0-.32.58c-.08.18-.07.19-.19.3a1.5,1.5,0,0,1-.57.29,1.52,1.52,0,0,0-.44.24,2.33,2.33,0,0,0-.31-.2.77.77,0,0,0-.7,0,.6.6,0,0,0-.37.42c-.06.14-.14.19-.22.11l-.36-.28a2.53,2.53,0,0,0-.39-.24l.57-.1c.13,0,.08-.09-.06-.09l-.72,0c-.32,0-.84.11-1.35.18a11.25,11.25,0,0,0-1.35.32,9.77,9.77,0,0,0-1.56.58,7.06,7.06,0,0,0-1.32.75,8.35,8.35,0,0,0-1.21,1A8.81,8.81,0,0,0,65,70c-.15.2-.3.13-.58,0a1.6,1.6,0,0,1-.36-.23s.47-.53.82-.86a10,10,0,0,1,2.17-1.57c.55-.32,1.34-.66,1.8-.87a15.83,15.83,0,0,1,1.65-.6,27.42,27.42,0,0,1,3-.61L75.45,65c.24,0,0-.12-.13-.11a6.32,6.32,0,0,0-.69,0,5.83,5.83,0,0,1-.73,0s.37-.08.57-.1.08-.06,0-.06h-.27l.29-.08a6.3,6.3,0,0,1,.66-.1,7.38,7.38,0,0,1,.81,0c.25,0,.13-.16.13-.16s-.41,0-.84,0-1,0-1.62.08a13.65,13.65,0,0,0-1.87.29,15.05,15.05,0,0,0-1.93.57,14.5,14.5,0,0,0-2.11.94,14.84,14.84,0,0,0-1.62,1,12.24,12.24,0,0,0-1.77,1.45,7.66,7.66,0,0,0-1,1.36,2.92,2.92,0,0,0-.43,1.59,2.37,2.37,0,0,0,.39,1.29l-.44-.23a4.73,4.73,0,0,1-1.45-1.27l.14,0a1.12,1.12,0,0,0,.28,0c.17,0,.2-.16.18-.29s-.28-.16-.43-.18a2.32,2.32,0,0,0-.64.15,3.89,3.89,0,0,0-.43.19L60.25,71a2,2,0,0,0-.37-.44l-.23-.28a2,2,0,0,0,.56-.39,3.78,3.78,0,0,0,.52-.6c.18-.28.33-.56.33-.56h-.29l-.17.3a2,2,0,0,1,0-.52,6.88,6.88,0,0,1,.33-1,10.4,10.4,0,0,1,.84-1.53,11.77,11.77,0,0,1,1.26-1.42c.35-.34,1-.83,1.41-1.16a17.71,17.71,0,0,1,1.82-1.12c.33-.18,1.1-.56,1.5-.73s1.26-.45,1.62-.58,1.89-.46,2.06-.49.12,0,.08.07-.22.08-.44.13l-.87.2c-.22.05-.29.11-.26.16s.18,0,.4,0l.93-.23c.15,0,.15,0,.17,0s0,0,.14,0,0,.07,0,.08l-.42.1-.8.19c-.2.05-.14.17,0,.12l.66-.14c.2-.06.72-.16.72-.16s0,.05.06.06l.14,0-1.08.24c-.16,0-.09.18,0,.15s.82-.19,1-.24.19.07,0,.11l-.39.09c-.15,0-.1.16.07.13a3.21,3.21,0,0,0,.4-.11l.12.1-.26.07c-.12,0-.15,0-.13.1s.15,0,.39,0,.28,0,.64-.1,1.23-.19,1.84-.27,1.46-.11,1.79-.13l.52,0A.49.49,0,0,0,77,61a.31.31,0,0,0,0-.25c0-.06-.12-.17-.16-.25s0-.11.07-.16.12-.07.15-.13,0-.1-.08-.1-.09-.09-.11-.24-.09-.12-.18-.12H76v-.06l-.19-.09a2,2,0,0,1-.29,0c-.19,0-.92.06-1.48.12s-1.68.23-2.16.32-1.23.27-1.83.43a18.86,18.86,0,0,0-2.54.88l-1.37.65c-.22.12-.21,0,0-.14s1.6-.75,2-.93,2.13-.69,2.67-.82,1-.2,1.41-.27c1.29-.21,2.81-.35,3.28-.38l1.16-.07v-.12h-.23l0-.08-1.1.06c-.47,0-1.1.11-1.7.19s-2.15.31-2.15.31l-.08-.58c0-.3-.06-1.08-.06-1.43s.1-1,.13-1.29.14-.77.17-.9.06-.24.08-.31a1,1,0,0,0,0-.17l-1.49,0,0-.06.94,0v0h-.35l0-.1-.48,0,.82-.12.52-.05s0-.08-.06-.1a.27.27,0,0,1-.06-.07s-.47.07-.81.08-1.14,0-2.09.12a18.61,18.61,0,0,0-3.87.93,13.52,13.52,0,0,0-3,1.48,6.25,6.25,0,0,0-1,0l-1.42.14a2.19,2.19,0,0,1,.08-.37,9.33,9.33,0,0,1,.58-1.25,8,8,0,0,1,1.46-1.44,6.34,6.34,0,0,1,2-.83,6.41,6.41,0,0,1,2-.07,5.09,5.09,0,0,1,1.51.51,6.71,6.71,0,0,1,1.12.82l.07-.06a.71.71,0,0,0-.1-.15,5,5,0,0,0-.9-.79,4.71,4.71,0,0,0-1.75-.68,6.25,6.25,0,0,0-2.5.11,5.51,5.51,0,0,0-2.29,1.22,6.24,6.24,0,0,0-1.2,1.57,5.2,5.2,0,0,0-.42,1.49l-.27,0a8.35,8.35,0,0,0-1.7.55,6.91,6.91,0,0,0-2.41,1.73,5.84,5.84,0,0,0-1.17,1.81l-.2.15,0,.12a.44.44,0,0,0,.18-.12c.12-.1.34-.28.53-.46s.93-.82,1.26-1.08l.17-.12a2.82,2.82,0,0,1-.25.3,9.2,9.2,0,0,1-.76.71c-.29.25-.5.41-.67.53l-.39.28v.07a2.15,2.15,0,0,0,.63-.4,12.44,12.44,0,0,0,1-.83c.25-.24.45-.46.6-.62l.32-.36.79-.53-.12.21c-.08.13-.35.39-.49.58a4.56,4.56,0,0,1-.5.55c-.13.14-.52.48-.52.48s-.18.15-.14.19.06,0,.16-.08l.56-.52c.2-.19.29-.31.51-.55s.33-.39.52-.62.24-.32.31-.42l.1-.06.57-.3-.27.36a6.93,6.93,0,0,1-.49.6l-.47.5-.24.21v.11l.09,0s.26-.31.49-.55a9.57,9.57,0,0,0,.74-.85l.39-.53.32-.15c.07,0,.2-.08.34-.14l-.2.29c-.1.14-.44.55-.62.75s-.68.67-.68.67v.1h.09a1.83,1.83,0,0,0,.16-.16c.1-.12.34-.37.57-.62a6.19,6.19,0,0,0,.6-.72l.28-.38.49-.17-.33.44a6.54,6.54,0,0,1-.5.64c-.25.32-.58.67-.58.67h.12a3.65,3.65,0,0,0,.33-.34c.15-.18.31-.34.49-.58s.23-.29.4-.53a3.72,3.72,0,0,1,.29-.37l.24-.07.2-.05-.21.28c-.17.22-.28.33-.46.57s-.39.48-.39.48c-.17.19-.17.34,0,.14s.37-.46.59-.72.41-.53.48-.62a1.12,1.12,0,0,1,.13-.16l.27-.06a3.57,3.57,0,0,1-.21.3c-.13.19-.28.37-.39.52l-.27.35c-.08.1-.13.16-.1.18s0,.06.16-.09.3-.39.45-.57.23-.3.36-.45l.23-.27.21,0a4.46,4.46,0,0,1-.28.39,3.05,3.05,0,0,1-.32.38,12,12,0,0,0-1.15,1.3A7.26,7.26,0,0,0,58,61.11a3.85,3.85,0,0,0-.32.91l.61.12a14.12,14.12,0,0,1,1.35.45,8.39,8.39,0,0,1,1.32.71,11.17,11.17,0,0,1,1.45,1.07l-.14.13-1-.81c-.18-.15-.59-.39-.81-.54a10.92,10.92,0,0,0-1-.52,7.5,7.5,0,0,0-.92-.35h-.25a2.65,2.65,0,0,0,.39.15c.16.05.78.31,1.1.47s1,.59,1.39.86a11.6,11.6,0,0,1,1,.85l-.46.61a7.14,7.14,0,0,0-1,1.75,5.71,5.71,0,0,0-.49,1.48,5.08,5.08,0,0,0-.08,1l-.28.3a1.59,1.59,0,0,1-.39.31,2.07,2.07,0,0,0-.46-.21,1.28,1.28,0,0,0-.7.08.91.91,0,0,0-.49.67,1.09,1.09,0,0,0,.09.58,1.7,1.7,0,0,1-.77.11,1.81,1.81,0,0,1-.8-.38,3.53,3.53,0,0,0-.71-.44.55.55,0,0,0-.55,0,.93.93,0,0,0-.31.58,1,1,0,0,0,.21.73,1.11,1.11,0,0,0,.45.41l-.32.14a2.57,2.57,0,0,0-.83.52,1.11,1.11,0,0,0-.33.8.79.79,0,0,0,.36.59.74.74,0,0,0,.43.13,1,1,0,0,0-.08.27.65.65,0,0,0,.18.56.74.74,0,0,0,.71.24,1.74,1.74,0,0,0,.51-.15.72.72,0,0,0,.08.3.69.69,0,0,0,.3.25A1,1,0,0,0,57,76a1,1,0,0,0,.62-.44,2.45,2.45,0,0,0,.37-.72c.13-.3.17-.46.33-.76a3.31,3.31,0,0,1,.47-.68,3.46,3.46,0,0,1,.63-.54,1.22,1.22,0,0,0,.31.08c.15,0,.23,0,.51-.22a.88.88,0,0,0,.39-.55,1.82,1.82,0,0,0,0-.59l.3-.08s.1.17.21.33a5.57,5.57,0,0,0,.69.68,6,6,0,0,0,1,.72c.39.21,1.17.55,1.17.55a5,5,0,0,0,.22,1A4.49,4.49,0,0,0,65,76.22a3.7,3.7,0,0,0,1.1.93c.3.16,1,.44,1,.44a11.31,11.31,0,0,0,.39,1.18,8.86,8.86,0,0,0,.82,1.35,9.17,9.17,0,0,0,.77.9c.3.32.89,1,1.19,1.33a10.08,10.08,0,0,1,.77,1c.19.25.42.63.42.63h.07s-.06-.41-.13-.68-.07-.33-.19-.71-.21-.65-.36-1.07-.38-1-.49-1.36A11.29,11.29,0,0,1,70,78.59c-.06-.35-.09-1.29-.09-1.29a3.1,3.1,0,0,0,.53-.15A10.66,10.66,0,0,0,72,76.39a7.42,7.42,0,0,0,1.66-1.45,2.94,2.94,0,0,0,.72-1.46,1.58,1.58,0,0,0-.07-1.06,1.7,1.7,0,0,0-.47-.71,3,3,0,0,0-.55-.4s.48,0,.67,0,0-.09-.18-.09-.17-.07-.17-.07h-.32c-.21,0-.44,0-.75,0a4.79,4.79,0,0,0-1.06.17,6,6,0,0,0-1.23.5,7.37,7.37,0,0,0-1,.7c-.3.24-.89.86-.89.86a1.54,1.54,0,0,1,.19-.37,8.4,8.4,0,0,1,.93-.81,6.82,6.82,0,0,1,1.67-.89A7.69,7.69,0,0,1,72.68,71a6.17,6.17,0,0,1,.78,0l0-.11-.24,0-.23,0s.46-.53.7-.87a2.76,2.76,0,0,0,.43-.88,3.17,3.17,0,0,0,.15-.69h.22a.91.91,0,0,0,.28.35.7.7,0,0,0,.62.13.4.4,0,0,0,.34-.25.77.77,0,0,0,.24.06.54.54,0,0,0,.3-.1.8.8,0,0,1,.52,0c.19,0,.6.23.93.31a1.18,1.18,0,0,0,.73,0,.71.71,0,0,0,.45-.53.78.78,0,0,0,0-.35,1.45,1.45,0,0,0,.48-.12.62.62,0,0,0,.33-.47.75.75,0,0,0-.07-.53M65.45,62.38c-.1.08-.51.34-.66.45a.74.74,0,0,1-.21.13l-.06,0a2.48,2.48,0,0,1,.39-.31c.2-.12.37-.26.44-.3s.2,0,.1.07m5.76-5.19a11.12,11.12,0,0,0,0,1.57c0,.36.13,1.08.13,1.08l-.18,0a11,11,0,0,1-.1-1.33,9.16,9.16,0,0,1,.11-1.64c.08-.36.29-1.15.29-1.15s-.14.77-.21,1.43m-11.14.29a12.43,12.43,0,0,0-2,.57,12.29,12.29,0,0,0-1.79.93,18.67,18.67,0,0,0-1.62,1.18l-1.15,1a7.82,7.82,0,0,1,.68-1.07,8.78,8.78,0,0,1,1.1-1.1,5.58,5.58,0,0,1,1.27-.8,10.65,10.65,0,0,1,1.6-.59c.48-.11,1.06-.23,1.56-.29s1-.09,1.15-.09l.42,0-.22.16a5.84,5.84,0,0,0-1,.1m.65,0,.24,0-.2.17-.27.22Zm.5,5.77a11.85,11.85,0,0,0-1.71-.85A12.65,12.65,0,0,0,58.05,62a8.42,8.42,0,0,1,.43-1.06A9.35,9.35,0,0,1,59.81,59a10.47,10.47,0,0,1,2.36-1.74,15,15,0,0,1,3.66-1.42,20.31,20.31,0,0,1,3.49-.55l1.59,0h.51a5.05,5.05,0,0,1-.13.49A13.4,13.4,0,0,0,71,57.34a11,11,0,0,0-.06,1.49c0,.46,0,1.09,0,1.09s-1.51.37-2.14.58a18.93,18.93,0,0,0-2.49,1,14.4,14.4,0,0,0-2,1.19c-.6.45-1,.74-1.21,1l-.56.51s-.81-.65-1.31-1M59,72.53a.48.48,0,0,1-.21.4,3,3,0,0,0-.45.53,2.51,2.51,0,0,0-.4.67,7.19,7.19,0,0,1-.49,1.11.86.86,0,0,1-.55.38.74.74,0,0,1-.52-.12.31.31,0,0,1-.13-.33,1.57,1.57,0,0,1,.22-.43c.12-.19.32-.58.42-.7s0-.22-.11-.05a5.26,5.26,0,0,1-.56.73,1.62,1.62,0,0,1-.47.34.82.82,0,0,1-.46.06.42.42,0,0,1-.32-.23.66.66,0,0,1,.05-.56,3.48,3.48,0,0,1,.54-.55c.19-.15.35-.27.46-.34s.07-.19-.09-.08-.5.32-.67.45a1.83,1.83,0,0,1-.55.31.44.44,0,0,1-.46-.14.62.62,0,0,1,.05-.63,2.32,2.32,0,0,1,.59-.58,2.51,2.51,0,0,1,.59-.32.84.84,0,0,1,.39-.1c.17,0,.22.05.24,0a.19.19,0,0,0,0-.1,1.65,1.65,0,0,1-.63-.29c-.34-.23-.57-.55-.53-.81s.17-.56.49-.37.48.28.72.44a1.62,1.62,0,0,0,.73.36,1.21,1.21,0,0,0,.76-.06c.2-.12.26-.24.36-.29a.35.35,0,0,1,.43.07,1.26,1.26,0,0,1,.45.62,1.67,1.67,0,0,1,.1.59m.91-.06c-.18.1-.36.18-.49,0s-.14-.28-.23-.49a2.08,2.08,0,0,0-.38-.58,1.68,1.68,0,0,0-.49-.33c-.11,0-.24,0-.25-.25a.51.51,0,0,1,.16-.4.62.62,0,0,1,.74-.13,2.4,2.4,0,0,1,.8.83,1.31,1.31,0,0,1,.33.76c0,.3,0,.44-.19.55m8.6.89A5.68,5.68,0,0,1,70.39,72a4.55,4.55,0,0,1,2-.51,1.84,1.84,0,0,1,1.16.43,1.75,1.75,0,0,1,.48.83,2.1,2.1,0,0,1,0,1c-.07.22-.23.58-.23.58a1,1,0,0,0-.52-.35,2.54,2.54,0,0,0-1.32-.14,2.71,2.71,0,0,0-1.33.71,2.91,2.91,0,0,0-.72,1.13A4.67,4.67,0,0,0,69.6,77a8.65,8.65,0,0,0,.15,1.65,11.58,11.58,0,0,0,.39,1.38c.18.51.48,1.28.58,1.61s.23.91.23.91-.45-.49-.81-.91S69,80.54,68.59,80a7.47,7.47,0,0,1-1.11-2.45,6,6,0,0,1,.07-2.33,4.61,4.61,0,0,1,1-1.81m5.25-4.87a4.84,4.84,0,0,1-.15.71c-.05.13-.14.31-.14.31a7.55,7.55,0,0,0-1.39.07,10.11,10.11,0,0,0-2.08.47,7.66,7.66,0,0,0-1.72.88A4.9,4.9,0,0,0,67,72.35a4.8,4.8,0,0,0-.8,1.74,3.24,3.24,0,0,0-.1,1.19,4.19,4.19,0,0,0,.24,1,5,5,0,0,0,.3.58A7.46,7.46,0,0,1,65.39,76a4.26,4.26,0,0,1-.83-1.32,4.75,4.75,0,0,1-.21-1.59,5.36,5.36,0,0,1,.36-1.85,5.61,5.61,0,0,1,1.43-2.1,7.61,7.61,0,0,1,2.32-1.62,12.29,12.29,0,0,1,2.19-.74L72,66.53a1.5,1.5,0,0,1,1,.14,2,2,0,0,1,.69.86,2.27,2.27,0,0,1,.15,1m.76-.74a.55.55,0,0,1,0,.12h-.27a1.89,1.89,0,0,0-.12-.43,3,3,0,0,0-.26-.45.67.67,0,0,1,.42.13,1,1,0,0,1,.25.38.49.49,0,0,1,0,.25m1.11.31c-.1.24-.3.44-.43.43a.41.41,0,0,1-.31-.13.81.81,0,0,1-.15-.23.67.67,0,0,0,.08-.51,1,1,0,0,0-.28-.54,1.38,1.38,0,0,0-.33-.2.34.34,0,0,1,.23-.35.87.87,0,0,1,.68.1,1.4,1.4,0,0,1,.47.62,1.15,1.15,0,0,1,0,.81m3.53-.47a1,1,0,0,1-.53.11h-.58c-.12,0-.33,0-.34,0s0,.1.19.1a1.67,1.67,0,0,1,.56.06c.09.06.24.22.2.36a.37.37,0,0,1-.27.31,1.13,1.13,0,0,1-.55,0c-.22,0-.49-.15-.74-.22a1.21,1.21,0,0,0-.37-.06,1.24,1.24,0,0,0-.21,0s0-.18-.13-.12a.93.93,0,0,1-.31.13.36.36,0,0,1-.22,0,1.63,1.63,0,0,0,.09-.56,1.31,1.31,0,0,0-.2-.65c-.12-.17-.36-.43-.36-.43a.73.73,0,0,1,.32-.18,1.39,1.39,0,0,0,.52-.21,1.31,1.31,0,0,0,.4-.37c.1-.16.18-.39.32-.61s.25-.34.4-.38a.45.45,0,0,1,.49.15.62.62,0,0,1,0,.51,1.22,1.22,0,0,1-.29.55.86.86,0,0,1-.28.24c-.09,0-.14.11-.06.14s.14.09.26,0,.14-.18.29-.34a.88.88,0,0,1,.45-.3,1,1,0,0,1,.59-.08.36.36,0,0,1,.29.32.48.48,0,0,1-.2.48,1.74,1.74,0,0,1-.45.16c-.19.06-.29.07-.38.16s-.11.19,0,.12a4.29,4.29,0,0,1,.47-.16,1.11,1.11,0,0,1,.56,0,.35.35,0,0,1,.25.37.52.52,0,0,1-.25.47" transform="translate(-53.08 -15.71)"/></svg>