<svg xmlns="http://www.w3.org/2000/svg" id="Layer_1" data-name="Layer 1" version="1.1" viewBox="0 0 792 504"><defs><clipPath id="clippath"><path d="M31.3 68.7h717.1v319.8H31.3z" style="stroke-width:0;fill:#e32726"/></clipPath><style>.cls-3{stroke-width:0;fill:#fff}</style></defs><path d="M31.3 68.7h717.1v319.8H31.3z" style="fill:#e32726"/><g style="clip-path:url(#clippath)"><path d="M288.4 164c.1 0 .2 0 .3-.1l10.5 17.7c15.3 25.9 30.7 51.9 46 77.8.4.6.7 1.4.7 2.2.1 5.5.2 11.1.2 16.6 0 16.8.1 33.5.2 50.3v6h67.1v-1.8c0-3.9-.1-7.7-.2-11.6l-.3-30-.3-26.7c0-1.3.2-2.4.9-3.5 26.1-45.4 52.1-90.9 78.1-136.3.3-.5.5-1 .8-1.6h-72.8c-1 0-1.4.5-1.9 1.3l-30.3 57.6c-2.3 4.4-4.6 8.8-7.1 13.4-.4-.6-.6-1.1-.8-1.5l-34.8-69.3c-.6-1.1-1.2-1.4-2.4-1.4H219.1v70.8c0 1.4-.4 1.7-1.7 1.7h-29.9c-1.1 0-1.7.3-2.3 1.2-10.2 14.9-20.5 29.8-30.8 44.6-.6.8-1.2 1.6-1.8 2.5h-.3V123.3H84.8v209.5q0 2 2.1 2h65.5v-70.7c0-2.4 0-2.4 2.5-2.4h62.2c1.1 0 1.7.3 1.6 1.6 0 2 0 4.1.1 6.1 0 8.7.2 17.5.3 26.3.1 12.4.2 24.9.4 37.3 0 .6 0 1.1.1 1.7h67.7c1.2 0 1.5-.4 1.5-1.5v-13.7c0-31-.2-62-.2-93v-62.3" class="cls-3"/><path d="M488.6 264.4c1.2 4.8 2.4 9.7 4 14.4 5.1 15.1 13.3 28.2 25.4 38.7 17.5 15.3 38.3 22.1 61 23.7 4.6.3 9.3 0 13.9.1 10.6.4 21.1-.3 31.5-2.6 16.9-3.8 31.6-11.7 43.7-24 11.8-12 19.6-26.4 24.6-42.4.9-2.9 1.5-5.9 2.4-9.1h-2c-4.3 0-8.5.1-12.8.1-16.4 0-32.8.1-49.2 0-1.8 0-2.4.5-3 2.1-6.8 19.2-24.9 29.1-44.7 24.1-14.8-3.8-23.8-13.7-27.7-28.3-2.8-10.5-3-21.4-2.4-32.1.6-10.4 1.6-20.9 3.1-31.2 1.8-12.3 8.8-21 20.3-25.9 6.7-2.8 13.8-3.1 20.9-2.2 14.5 1.9 24.6 9.5 30 23.2.5 1.2 1 1.7 2.3 1.7h63.3c-.6-3.2-1.1-6.1-1.8-9-5.1-21.4-16.1-38.8-34.7-51-17.1-11.2-36.3-16-56.4-16.9-9.9-.5-19.8-.1-29.6 1.1-11.7 1.5-23 4.5-33.5 9.9-23.9 12.1-38.6 31.7-45.6 57.3-.8 3-1.4 6.2-2.1 9.4h-17.7c-1.3 0-1.9.4-2.5 1.5-11.9 20.7-23.9 41.4-35.9 62-.5.8-.9 1.6-1.4 2.5 0 0-.3.9 1.2.9h53.2s1.8 0 2.3 2.1Z" class="cls-3"/></g><path d="M61.5 450.9v-13.8H47.3v13.8h-4.6V420h4.6v12.5h14.2V420h4.6v30.9zm23.9.5c-7.8 0-13.1-6.3-13.1-15.9s5.4-16 13.2-16 13.2 6.3 13.2 15.9-5.4 16-13.3 16m-.1-27.4c-4.9 0-8.4 4.3-8.4 11.3s3.6 11.4 8.5 11.4 8.4-4.3 8.4-11.3-3.6-11.4-8.6-11.4Zm42.6 26.9v-21.8c-.4.9-1.2 3.1-2 4.9l-7.5 17.4L111 434c-.8-1.8-1.6-4-2-4.9v21.8h-4.4V420h4.8l6.9 16.5c.8 1.8 1.7 4 2.1 5.3.4-1.3 1.3-3.5 2.1-5.3l6.8-16.5h5v30.9h-4.6Zm12.6 0V420h19.9v4.5h-15.3v7.6h8.9v4.5h-8.9v9.8h16v4.5zm48.4.5c-4.5 0-8.4-1.9-11-5l3.3-3.2c2.1 2.3 5.1 3.7 8 3.7 4.3 0 6.4-1.5 6.4-4.5s-1.8-3.6-7-5.1c-6.5-1.9-9.7-3.6-9.7-9.1s4.5-8.6 10.2-8.6 7.4 1.5 10.1 4.2l-3.3 3.3c-1.9-2-4.2-3-7.2-3s-5.2 1.8-5.2 3.8 1.4 3.2 6.8 4.8c6.1 1.9 9.9 3.8 9.9 9.3s-3.5 9.4-11.4 9.4Zm30 0c-7.8 0-13.1-6.3-13.1-15.9s5.4-16 13.2-16 13.2 6.3 13.2 15.9-5.4 16-13.3 16m-.1-27.4c-4.9 0-8.4 4.3-8.4 11.3s3.6 11.4 8.5 11.4 8.4-4.3 8.4-11.3-3.6-11.4-8.6-11.4Zm19.9 26.9V420h4.6v26.4h15.4v4.6h-20.1Zm37.6.5c-7.6 0-11.6-5-11.6-13.5V420h4.6v17.8c0 5.8 2.4 9 7.1 9s7.2-3 7.2-8.7V420h4.6v18c0 8.7-4.2 13.4-11.9 13.4m31.5-26.9v26.4h-4.6v-26.4h-9v-4.6h22.7v4.6h-9Zm15.3 26.4V420h4.6v30.9zm24.5.5c-7.8 0-13.1-6.3-13.1-15.9s5.4-16 13.2-16 13.2 6.3 13.2 15.9-5.4 16-13.3 16m0-27.4c-4.9 0-8.4 4.3-8.4 11.3s3.6 11.4 8.5 11.4 8.4-4.3 8.4-11.3-3.6-11.4-8.6-11.4Zm38.9 26.9-12.3-19.4c-.7-1.1-1.8-3-2.3-3.8v23.2h-4.5V420h4.7l11.8 18.9c.8 1.3 2.1 3.6 2.6 4.4v-23.2h4.5V451h-4.4Zm21.7.5c-4.5 0-8.4-1.9-11-5l3.3-3.2c2.1 2.3 5.1 3.7 8 3.7 4.3 0 6.4-1.5 6.4-4.5s-1.8-3.6-7-5.1c-6.5-1.9-9.7-3.6-9.7-9.1s4.5-8.6 10.2-8.6 7.4 1.5 10.1 4.2l-3.3 3.3c-1.9-2-4.2-3-7.2-3s-5.2 1.8-5.2 3.8 1.4 3.2 6.8 4.8c6.1 1.9 9.9 3.8 9.9 9.3s-3.5 9.4-11.4 9.4Zm42.6-.5h-12.3V420h12.7c5.4 0 8.9 2.8 8.9 8s-1.7 5.1-3.9 6.2c2.4.7 5.2 2.9 5.2 7.2 0 6.3-3.8 9.5-10.6 9.5m.4-26.7h-8.3v8h8.3c3 0 4.3-1.9 4.3-3.9s-1.2-4.1-4.3-4.1m.1 12.2h-8.4v10.2h8.3c4.1 0 5.6-2.1 5.6-5.1s-2-5.1-5.5-5.1m28.4 15c-7.6 0-11.6-5-11.6-13.5V420h4.6v17.8c0 5.8 2.4 9 7.1 9s7.2-3 7.2-8.7V420h4.6v18c0 8.7-4.2 13.4-11.9 13.4m19.9-.5V420h4.6v30.9zm12.9 0V420h4.6v26.4h15.4v4.6h-20.1Zm35.8-26.4v26.4h-4.6v-26.4h-9v-4.6h22.7v4.6h-9Zm39.3 26.4h-12.3V420H588c5.4 0 8.9 2.8 8.9 8s-1.7 5.1-3.9 6.2c2.4.7 5.2 2.9 5.2 7.2 0 6.3-3.8 9.5-10.6 9.5m.4-26.7h-8.3v8h8.3c3 0 4.3-1.9 4.3-3.9s-1.2-4.1-4.3-4.1m.1 12.2h-8.4v10.2h8.3c4.1 0 5.6-2.1 5.6-5.1s-2-5.1-5.5-5.1m17.1 14.5V420h19.9v4.5h-15.3v7.6h8.9v4.5h-8.9v9.8h15.9v4.5h-20.6Zm38.9-26.4v26.4h-4.6v-26.4h-9v-4.6h22.7v4.6h-9Zm27.1 0v26.4h-4.6v-26.4h-9v-4.6h22.7v4.6h-9Zm15.1 26.4V420h19.9v4.5h-15.3v7.6h8.9v4.5h-8.9v9.8h16v4.5zm43.9-12.7 6.3 12.6h-5.4l-6.1-12.2h-7v12.2h-4.6v-30.9H727c5.4 0 9.9 2.9 9.9 9.2s-2.6 8-6.8 9.1Zm-3.1-13.9h-9v9.9h9c3.1 0 5.3-1.6 5.3-5s-2.1-5-5.3-5Z" style="stroke-width:0;fill:#231f20"/><text style="font-family:Interstate-Bold,Interstate;font-size:24px;font-weight:700;fill:#231f20" transform="translate(754 388.5)"><tspan x="0" y="0">®</tspan></text></svg>