<svg xmlns="http://www.w3.org/2000/svg" id="logo" width="600" height="260" viewBox="0 0 185.06 80">
	<title>Radians</title>
	<path id="logo-brandmark" fill="#c8102e" d="M15.9 10.73S45.04-2.67 82.86.48c0 0 33.02 2.9 34.13 19.44S81.94 34.05 81.94 34.05s15.38 14.32 36.85 15.42 28.67-2.03 38.56-7.9c0 0-14.91 13.03-45.34 12.66S58.98 35.2 53.3 29.66c0 0 21.33 2.03 31.21.56s12.66-4.99 12.84-10.12-4.8-13.62-30.1-15.97-51.36 6.6-51.36 6.6" transform="translate(2.6)"></path>
	<g id="logo-text" fill="#000">
		<path d="M16.16 56.04c2.78-.05 4.18 2.12 4.52 4.36a6.78 6.78 0 0 1-1 4.18 4.8 4.8 0 0 1 .97 2.55v3.33H16.9v-4H3.74v4l-3.73.02L0 56.03l16.16.01zm.78 3.6H3.74v3.22h13.2v-3.22z" transform="translate(0 9.18)"></path>
		<path d="M42.21 59.66h-16.6v-3.63l16.04.02a4.5 4.5 0 0 1 4.32 4.74v9.69l-16.21-.01a4.73 4.73 0 0 1-4.88-4.58 4.62 4.62 0 0 1 4.65-4.47h12.69v-1.76zm0 7.21v-1.83H28.76v1.83z" transform="translate(4.08 9.18)"></path>
		<path d="M50.3 56.03l15.55.02a4.7 4.7 0 0 1 5.04 4.5l.01 5.42a4.76 4.76 0 0 1-5.1 4.49H50.3zm16.84 10.83v-7.2H54.03v7.2z" transform="translate(8.24 9.18)"></path>
		<path d="M75.31 56.05h3.75v14.4l-3.74.01v-14.4z" transform="translate(12.34 9.19)"></path>
		<path d="M102.96 59.67l-16.6-.01v-3.61l15.88-.01a4.55 4.55 0 0 1 4.45 4.65l.01 9.8-16.3-.01a4.73 4.73 0 0 1-4.82-4.6 4.59 4.59 0 0 1 4.63-4.46h12.74v-1.75zm0 7.2v-1.82H89.5l-.01 1.81z" transform="translate(14.03 9.18)"></path>
		<path d="M111.02 59.27a3.52 3.52 0 0 1 3.63-3.48 4.84 4.84 0 0 1 3.25 1.54l9.84 9.67-.02-10.92h3.74l.01 10.71a3.7 3.7 0 0 1-3.68 4.07 4.53 4.53 0 0 1-3.07-1.4l-9.96-9.74v10.8h-3.74V59.26z" transform="translate(18.2 9.14)"></path>
		<path d="M157.2 56.05v3.61h-17.43v1.7h13.37c2.54 0 5.07 1.9 5.06 4.54a4.66 4.66 0 0 1-4.8 4.56l-16.7.02.01-3.6 17.73-.02v-1.79l-13.74-.01a4.76 4.76 0 0 1-4.9-4.53c0-2.86 2.86-4.49 5.46-4.49l15.94.01z" transform="translate(22.26 9.19)"></path>
		<path d="M159.52 57.7a1.85 1.85 0 1 1-1.84-1.85 1.85 1.85 0 0 1 1.84 1.85m-3.35.01a1.49 1.49 0 1 0 1.5-1.48 1.49 1.49 0 0 0-1.5 1.48m1.59-.96c.43 0 .66.2.66.54a.6.6 0 0 1-.49.57c.19-.06.6.86.6.86h-.47l-.21-.42c-.15-.25-.25-.35-.44-.4h-.19v.82l-.38-.02v-1.95zm-.53.83l.46.01c.23 0 .32-.12.32-.27s-.11-.25-.33-.25h-.44v.51z" transform="translate(25.54 9.15)"></path>
	</g>
</svg>