<svg id="logosandtypes_com" xmlns="http://www.w3.org/2000/svg" viewBox="0 0 150 150.2"><style>.st1{fill:#b12729}</style><path d="M0 .2h150v150H0V.2z" fill="none" id="Layer_3"/><g id="satco"><path class="st1" d="M26.1 20.6c-1.6 1.9-3.3 1.9-4.9 3.1H121c1.4-1.2 2.8-1.2 4-3.1H26.1zM135.7 16.3H37.6c-1.5.1-2.9.5-4.2 1.2H131c3-1.2 4.7-1.2 4.7-1.2zM11.8 33h99.6c.7 0 1.6-2.1 2.5-3.1 1.1-1.1 2.2-1.9 3.2-3.1H16.9c-2 1.3-3.8 4.4-5.1 6.2zM30 73.4c12.8 7.9 16.1 14.1 16.6 25s-8.5 23.2-21.8 32.2c.5.5 97.7 0 97.7 0s19.4-9 19.4-28.9-15.7-28.5-23.2-33.2c-4.1-2.5-9.1-10.6-10.6-18.1H10c2.3 12.4 9.5 16.5 20 23zM9.3 42c0 1 0 1 .1 2.9h98.2c.1-3.1.5-4.3 1.5-7.4H9.9c-.4 1.4-.6 2.9-.6 4.5z"/></g></svg>