<?xml version="1.0" encoding="utf-8"?>
<!-- Generator: Adobe Illustrator 22.1.0, SVG Export Plug-In . SVG Version: 6.00 Build 0)  -->
<svg version="1.1" xmlns="http://www.w3.org/2000/svg" xmlns:xlink="http://www.w3.org/1999/xlink" x="0px" y="0px"
	 viewBox="0 0 673.5 305.6" style="enable-background:new 0 0 673.5 305.6;" xml:space="preserve">
<metadata><?xpacket begin="﻿" id="W5M0MpCehiHzreSzNTczkc9d"?>
<x:xmpmeta xmlns:x="adobe:ns:meta/" x:xmptk="Adobe XMP Core 5.6-c143 79.161356, 2017/09/07-01:11:22        ">
   <rdf:RDF xmlns:rdf="http://www.w3.org/1999/02/22-rdf-syntax-ns#">
      <rdf:Description rdf:about=""/>
   </rdf:RDF>
</x:xmpmeta>
                                                                                                    
                                                                                                    
                                                                                                    
                                                                                                    
                                                                                                    
                                                                                                    
                                                                                                    
                                                                                                    
                                                                                                    
                                                                                                    
                                                                                                    
                                                                                                    
                                                                                                    
                                                                                                    
                                                                                                    
                                                                                                    
                                                                                                    
                                                                                                    
                                                                                                    
                                                                                                    
                           
<?xpacket end="w"?></metadata>
<style type="text/css">
	.st0{display:none;}
	.st1{display:inline;fill:#223A45;}
	.st2{display:inline;}
	.st3{fill:#FFFFFF;}
	.st4{fill:#00BEE8;}
	.st5{fill:#223A45;}
	.st6{display:inline;fill:#FFFFFF;}
	.st7{display:inline;fill:#00BDE7;}
	.st8{fill:#00B8E6;}
	.st9{fill:none;}
</style>
<g id="Background" class="st0">
	<rect class="st1" width="673.5" height="305.6"/>
</g>
<g id="HoldRite" class="st0">
	<g class="st2">
		<path class="st3" d="M336.6-0.1C257.5-0.1,191,40.2,191,40.2V223l145.6,57.4L482.4,223V40.2C482.4,40.2,415.8-0.1,336.6-0.1z"/>
		<path class="st4" d="M482.4-15.2v39.6c-13.4-7.2-72.3-42.7-145.8-42.7c-73.5,0-132.3,35.5-145.6,42.7v-39.6
			c30.2-17.3,84.5-41.9,145.6-41.9C397.7-57.1,452.2-32.5,482.4-15.2z"/>
		<path class="st4" d="M336.6,304.2l-145.6-66v10c0,22.4,16.3,53,36.1,63.5l109.5,57.5l109.4-60c20-10.3,36.3-37,36.3-59.5v-11.6
			L336.6,304.2z"/>
		<path class="st5" d="M388.6,226.9v-65.6l8.8-1.6l16.8,59.1l35.5-11.3l-19.5-64.8c14.7-12,19.9-27.8,19.9-46.2
			c0-33-11.2-52-49.6-60.1c-25.5-6-50.3-7.6-50.3-7.6v210.3L388.6,226.9z M388.6,73.1l11.4,1.3c11.5,1.3,15.3,8.2,15.3,23.8
			c0,15.1-4,22.1-15.3,22.8l-11.4,0.7V73.1z M323.3,28.9v210.4l-36.9-11.2v-68.4l-26.3-4v64.4L226.8,210V54
			c8.9-4,20.2-8.6,33.2-12.8v73.3l26.3,0.1V34.2C298,31.6,310.4,29.7,323.3,28.9z"/>
	</g>
</g>
<g id="Reliance" class="st0">
	<path class="st6" d="M301.6,203.1l-40.4-58.7v160.5c-55.5-27.8-93.7-85.4-93.7-151.5c0-38.3,12.8-73.6,34.4-102.1L178,16.6
		c-31.7,36.8-50.9,84.5-50.9,136.7c0,103.6,75.5,190.1,174.5,206.6V203.1z"/>
	<path class="st7" d="M467.6,317c-35.8,28.7-81.5,46.1-130.9,46.1c-2.9,0-5.8-0.3-8.7-0.3v-40.6c2.9,0.3,5.8,0.3,8.7,0.3
		c26.4,0,51.5-6.1,73.8-17.1l-91-130.2h55.4c21.8,0,36.4-17.7,36.4-39.6c0-21.7-14.6-39.6-36.4-39.6h-109l-46-65.1L196.7-2.6
		c37.1-33.3,86.3-53.8,140-53.8c115.5,0,209.6,94.1,209.6,209.8c0,56.5-22.5,107.7-59,145.7l-23.6-34.2
		c26.2-29.7,42.2-68.7,42.2-111.5C505.9,60,429.9-16,336.7-16c-30.6,0-59.3,8.3-84.1,22.5l34.1,49.1h88.1c44.1,0,76.8,36,76.8,80
		c0,36.8-22.8,68-56,77.3L467.6,317z"/>
</g>
<g id="Streamlabs" class="st0">
	<g class="st2">
		<path class="st8" d="M494-69.9v-38.7C356-107.6,243.8,4.3,242,142.2h38.7C282.5,25.6,377.3-68.9,494-69.9z"/>
		<path class="st8" d="M494,3.4v-38.7c-97.8,0.2-177.4,79.5-177.9,177.5h38.7C355.3,65.7,417.4,3.6,494,3.4z"/>
		<path class="st8" d="M494,37c-57.2,1.2-103.1,47.9-103.3,105.3h38.7c0.2-36,28.9-65.3,64.6-66.4V37z"/>
	</g>
	<g class="st2">
		<path class="st3" d="M176.9,229.8c35.7-0.9,64.6-30,65-65.9h38.7c-0.4,57.3-46.7,103.7-103.7,104.7V229.8z"/>
		<path class="st3" d="M316.2,163.9h38.7c-0.5,98-80.1,177.5-178.1,177.5v-38.7C253.4,302.7,315.7,240.4,316.2,163.9z"/>
		<path class="st3" d="M429.2,163.9c-2,137.8-114.2,249.6-252.3,250.3v-38.7c116.6-0.7,211.6-95.2,213.6-211.6H429.2z"/>
	</g>
</g>
<g id="JG" class="st0">
	<g class="st2">
		<path class="st4" d="M586.7,150.1c0-138.8-112.5-251.3-251.2-251.3c-138.7,0-251.2,112.5-251.2,251.3
			c0,138.8,112.5,251.3,251.2,251.3C474.2,401.4,586.7,288.9,586.7,150.1z"/>
		<path class="st3" d="M488.8,121.6h35.3V48.2h-34.2v23.7c-17.8-14.7-40.6-23.6-65.5-23.6c-51.2,0-94,37.9-101.6,87.4H303V79.5h19.9
			V48.4h-72.2v31.2h20.2v56.3H135.1c-0.3,28.6,0.5,59.9,19.6,87.1c14.9,21.3,37.4,32.2,64.3,32.2c25.9,0,49.9-9.7,65.2-30.6
			c10.8-14.8,18.4-36,18.4-56.9h20.1c7.6,49.6,50.3,87.4,101.6,87.4c56.9,0,102.9-46.4,102.9-103.4c0-5.5-0.2-10.6-0.5-16H355.2
			c7.3-31.8,35.6-55.5,69.2-55.5c28.3,0,52.8,16.7,64.2,40.7L488.8,121.6z M219.5,223.2c-38,0-50.6-32.7-50.6-55.5h102
			C270.9,208.6,241.3,223.2,219.5,223.2z M424.3,223.2c-33.6,0-61.9-23.7-69.2-55.5h138.5C486.4,199.5,458.1,223.2,424.3,223.2z"/>
	</g>
</g>
<g id="Speedfit" class="st0">
	<g class="st2">
		<path class="st4" d="M423.5,23.1l27.6-26l-54-57.4l-26.8,25.2l17.5,18.6C363-15,338.7-5.2,319.2,13.2
			c-40.1,37.7-45.7,98.8-15.1,143.1l-15.5,14.5l-41.4-44l15.6-14.7l-22.9-24.4L183.3,141l22.9,24.4l15.8-14.9l41.4,44l-106.2,99.9
			c20.8,22.6,44.4,46.5,79.4,53.7c27.3,5.7,53-2.3,74-22.1c20.2-19,31.9-44.3,28.5-71.9c-2.4-19.5-12.1-41.7-27.5-58l15.7-14.8
			c42.4,33.2,103.7,31.4,143.8-6.4c44.5-41.8,46.4-112,4.4-156.6c-4-4.3-8-8.2-12.1-12.1L329.4,132.5c-17.7-30.2-13-69.6,13.3-94.3
			c22.1-20.8,53.6-25.7,80.2-15.3L423.5,23.1z M287.6,300.7c-29.7,28-63.7,11.7-80.4-6.2l79.8-75.1
			C317.1,251.4,304.6,284.7,287.6,300.7z M447.8,150c-26.3,24.7-65.9,27-95,7.5L461.2,55.5C478.9,85.8,474.2,125.1,447.8,150z"/>
	</g>
</g>
<g id="SharkBite">
	<g>
		<path class="st9" d="M271.3,102.5c0,0-2.3-2.9-5.1-5.6c-2.5-2.5-5.8-4.9-5.8-4.9l-4.5,7.1l6.1,5.8L271.3,102.5z"/>
		<path class="st9" d="M273.1,120.6l11.3,1.4c0,0-1.3-3.1-3.1-6.2c-1.7-2.9-4.1-5.8-4.1-5.8l-8,4.1L273.1,120.6z"/>
		<path class="st9" d="M250.9,85c0,0-3.1-2.3-6.6-4.2c-3.2-1.7-6.9-3.3-6.9-3.3l-0.1,9.4l7.4,4.2L250.9,85z"/>
		<path class="st9" d="M163.8,90.9c-1.3,2.5-1.9,5.7-1.9,5.7l14,4.2l2.7-5.8l-11.4-9.2C167.1,85.9,165.1,88.1,163.8,90.9z"/>
		<path class="st9" d="M178,76.6c-2.5,1.5-4.7,3.7-4.7,3.7l12,7.8l5.6-3.3l-7.1-10.6C183.9,74.1,180.8,75,178,76.6z"/>
		<path class="st9" d="M197.8,70.4c-3.2,0.2-6.4,1.1-6.4,1.1l8.7,10l7.3-0.7l-2.5-10.4C204.9,70.4,201.4,70.1,197.8,70.4z"/>
		<path class="st9" d="M213.7,70.8l4.5,10.3l7.9,1.9l2.1-8.7c0,0-3.5-1.4-7.3-2.3C217.4,71.2,213.7,70.8,213.7,70.8z"/>
		<path class="st3" d="M237.5,40.6c-5,0-9.2,3.4-9.2,7.7s4.1,7.7,9.2,7.7c5.1,0,9.3-3.4,9.3-7.7S242.7,40.6,237.5,40.6z"/>
		<path class="st3" d="M161.1,104.9l13.5,5.7l1,7.4l-12,0.3c0.8,3,1.8,5.9,3.1,8.8l11.9,1.3l4.1,7.6l-8.7,4.1
			c2.2,3.2,4.6,6.3,7.3,9.3l9.6-2.9l6.9,6.5l-4.9,7.4c3.2,2.6,6.6,5.1,10.2,7.4l6.5-6.8l8.5,4.2l-0.3,10.5c0.1,0,0.2,0,0.3,0.1
			c3.4,1.3,7,2.4,10.5,3.3l2.1-9.7l8.5,1.3l4.5,10.6c3.4,0,6.6,0,9.7-0.3l-2.7-10.6l7.1-1.7l8.1,9.3c2.6-1,5-2.3,7.3-3.8l-6.5-9.5
			l4.7-4.1l9.6,6.3c1.6-2.3,3-4.7,4.1-7.2l-9-7.3l1.7-5.8l9.7,2.9c0.2-2.6,0.3-5.1,0-7.9l-9.3-4.1l-1.3-6.8l10.5-0.5
			c0.6,0,1.3-0.1,1.5-0.1c1.5,4,2.6,11.4,1.5,20.9c0,0.1,0,0.3-0.1,0.5c0,0.9-0.2,1.9-0.3,2.9c-0.3,1.6-0.8,3.4-1.5,5.1
			c-1.6,4.6-3.9,8.6-7.1,12.1c-4.8,5.4-11.2,9.3-18.9,11.4c25.5-3.9,39.7-23.5,34.6-48.7c-5.9-29.6-37-59.2-71.5-67.7
			C189.5,57.6,160.2,73.8,161.1,104.9z M175.8,100.9l-14-4.2c0,0,0.7-3.2,1.9-5.7c1.3-2.9,3.3-5,3.3-5l11.4,9.2L175.8,100.9z
			 M185.3,88.1l-12-7.8c0,0,2.2-2.2,4.7-3.7c2.7-1.6,5.8-2.5,5.8-2.5l7.1,10.6L185.3,88.1z M200.1,81.5l-8.7-10c0,0,3.2-0.9,6.4-1.1
			c3.5-0.3,7.1,0,7.1,0l2.5,10.4L200.1,81.5z M277.2,109.9c0,0,2.4,3,4.1,5.8c1.8,3.1,3.1,6.2,3.1,6.2l-11.3-1.4l-3.9-6.5
			L277.2,109.9z M260.3,91.9c0,0,3.3,2.4,5.8,4.9c2.9,2.7,5.1,5.6,5.1,5.6l-9.4,2.4l-6.1-5.8L260.3,91.9z M237.4,77.4
			c0,0,3.7,1.6,6.9,3.3c3.5,1.9,6.6,4.2,6.6,4.2l-6.2,6.1l-7.4-4.2L237.4,77.4z M226.1,83l-7.9-1.9l-4.5-10.3c0,0,3.7,0.5,7.1,1.3
			c3.8,0.9,7.3,2.3,7.3,2.3L226.1,83z"/>
		<path class="st3" d="M394.2,97.9c-4.1-15.4-16.2-22.4-16.4-22.5c18.7,42.9-6.2,71.9-7.2,74.7C384.7,148.7,400.2,123.5,394.2,97.9z
			"/>
		<path class="st3" d="M479.6,217.7c-13.4-7.4-31.8-12.2-48.1-11.3c0,0,47,17.5,65.3,54.8c1.5-3.1,16.4-87.8-79.1-124
			c2.3-18.8-10.5-39.1-10.5-39.2c5.9,26.5-5.5,47.3-5.5,47.3C471.7,163.6,479.6,217.7,479.6,217.7z"/>
		<path class="st8" d="M248.4,32.1c11.7,5.3,15.3,17.7,7.1,26.7c17.5,7.4,32.2,16.4,45.7,25.3c38.1,25.1,72.3,26.3,72.3,26.3
			c1.5-26.8-9.3-42.7-9.3-42.7C309.4,42.5,277.8,34.9,248.4,32.1z"/>
		<path class="st8" d="M121.5,40.9c38-3,68.3-0.7,93.5,4.8c1-6.8,6.8-12.6,14.5-14.9C190.4,29.4,159.3,29.1,121.5,40.9z"/>
		<path class="st8" d="M544.6,275.4c15.1-52.9-27.6-118-69.8-151.8c0,0-1.6-39.1,24.8-73c0,0-26.3-1.5-69.1,16.4
			c0,0,18.9,20.6,18.9,41.2c-15.8-10.2-33-16.4-33-16.4s11.8,14.4,13,37.4c0,0,80.9,31.1,90.4,118.5c2.6,23.6-4.1,42.8-13.8,57.9
			h23.6C535.9,297.2,541.2,287.2,544.6,275.4z"/>
		<path class="st3" d="M432.8,259.9c-0.6-0.4-1.1-0.8-1.7-1.2l0,0c-10.1-7.1-21.7-13-32.8-17.2c-36.2-13.4-76.9-14.2-99.1,5.7
			c0.7-14.6,7.2-26.5,7.3-26.9c-7.3-8.7-12.1-18-12-17.8c-2.4,0.7-19-1.4-29.3-8.5c4.6,7.8,18.9,22.3,26.4,27
			c0,0-11.8,20.8,0.3,57.7c13.5-31.6,53.8-40,93-26.3c45.4,15.9,59.5,37.5,58.5,53.2h9.8h7.2h0.1c2.6-7.5,14.8-3.2,14.8-3.2
			C467,288.1,453.5,274.5,432.8,259.9z"/>
		<path class="st3" d="M579.2,245.6c-1.9-39.4-20.9-85.2-71.4-132.7c8-47,42.3-80.7,42.3-80.7s-65.4-23.3-125.2,9.6
			c-38.9,18.3-46.2-3.8-128.4-23.5C238,4.4,157.9-0.7,91.7,28.2c8.1,35.9,35.7,59.3,35.7,59.3c5.5,12,15.8,21.6,25.6,27.2
			c-8.2-12.6-12.2-20.6-14.6-34.1c0,0-19.8-13.5-30.2-46.2c80-27.9,173.7-15.6,255.4,19.9v0.1c0,0,38.2,13.8,70.7,35.5
			c0,0-9.3-14.3-29.7-28c17.3-2.2,28.8-8.7,33.6-10.4c21.3-9.7,46.8-16.8,85.8-11.3c0,0-30.4,35.5-33.3,78
			c20.4,19,34.4,36,45.2,52.6c39.7,61.4,28.9,105.8,10.4,134.8h20.6C576.5,287,580.2,266.5,579.2,245.6z"/>
		<path class="st4" d="M460.5,305.8c0-0.1,0.1-0.1,0.1-0.2h-0.1C460.5,305.6,460.5,305.7,460.5,305.8z"/>
	</g>
</g>
</svg>
