<?xml version="1.0" encoding="utf-8" standalone="no"?>
<!-- Generator: Adobe Illustrator 25.1.0, SVG Export Plug-In . SVG Version: 6.00 Build 0)  --><svg xmlns="http://www.w3.org/2000/svg" xmlns:xlink="http://www.w3.org/1999/xlink" enable-background="new 0 0 491.5 322.4" id="Layer_1_copy" version="1.1" viewBox="0 0 491.5 322.4" x="0px" xml:space="preserve" y="0px">
<rect fill="#FFFFFF" height="322.4" width="491.5"/>
<path d="M278.6,257c2-0.5,5.5-0.8,10.4-0.8c4.2,0,7.5,0.2,10.1,0.7c2,0.4,3,1.2,3,2.6  c0,0.9-0.3,1.5-0.8,2c-0.6,0.4-1.6,0.8-3.1,1.2c-2.2,0.5-5.4,0.7-9.6,0.7c-8.6,0-12.9-1.2-12.9-3.7  C275.5,258.4,276.5,257.6,278.6,257z M420,215.2c-1,0-1.9,0.3-2.9,0.8c-0.9,0.5-1.6,1.2-2.1,2.1c-0.6,1.2-1.1,3.3-1.3,6.4H426  c-0.1-3-0.5-5.2-1.3-6.6C423.7,216.1,422.1,215.2,420,215.2z M451.6,277.9c0-1.2-1-1.3-1.9-1.3h-1.8v2.8h1.4  C450.5,279.3,451.6,279.3,451.6,277.9z M455.5,279.8c0,3.6-2.7,6.4-6.1,6.4c-3.5,0-6.1-2.7-6.1-6.4c0-3.6,2.7-6.3,6.1-6.3  C452.9,273.5,455.5,276.2,455.5,279.8z M453.1,284.2l-2.5-3.8c1.3-0.1,2.3-0.8,2.3-2.4c0-1.7-1-2.5-3-2.5h-3.4v8.7h1.4v-3.7h1.4  l2.4,3.7L453.1,284.2L453.1,284.2z M286.8,213c-1.4,0-2.4,0.9-3,2.7s-0.9,4.7-0.9,8.8c0,7.1,1.2,10.7,3.7,10.7c1.4,0,2.4-0.8,3-2.5  s0.9-4.5,0.9-8.4c0-4.2-0.3-7.1-0.8-8.7C289.2,213.8,288.2,213,286.8,213z M468.5,153v146.4H23V153H468.5z M377.6,198.1  c0,2.1,0.7,3.9,2.1,5.3c1.4,1.4,3.2,2.1,5.3,2.1c2,0,3.8-0.7,5.2-2.2c1.4-1.4,2.1-3.2,2.1-5.2s-0.7-3.7-2.2-5.2  c-1.4-1.4-3.2-2.2-5.2-2.2s-3.7,0.7-5.2,2.1C378.3,194.5,377.6,196.2,377.6,198.1z M188.6,229.6c0,5.7,0.4,9.6,1.3,11.8  c0.8,2.2,2.4,3.2,4.6,3.2c2.2,0,3.7-1.1,4.6-3.2c0.8-2.3,1.3-6.2,1.3-11.6c0-5.6-0.4-9.5-1.3-11.6c-0.9-2.2-2.4-3.2-4.5-3.2  c-2.2,0-3.7,1.1-4.6,3.2C189.1,220.4,188.6,224.2,188.6,229.6z M100.2,233.1c0-6.1-2-10.9-6.1-14.2c-1.8-1.5-4.1-2.7-6.7-3.7  c-2.7-1-7-2.2-13-3.7c-2.6-0.6-4.5-1.4-5.5-2.3c-1-0.9-1.6-2.2-1.6-3.9c0-1.9,0.7-3.5,2-4.8c1.4-1.4,3.4-2,5.9-2  c3.9,0,7.2,1.1,9.9,3.3c1.4,1.2,4.6,4.3,5.1,7.1h7.3v-16.1h-6.6l-1.6,2.2c-2.6-1.9-5.1-3.2-7.4-3.9s-5.1-1.1-8.6-1.1  c-7.5,0-13.3,2.1-17.2,6.2c-3,3.1-4.5,7.4-4.5,12.8c0,5,1.6,9.2,4.7,12.5c2.9,2.9,9.1,5.5,18.8,7.7c3.4,0.8,5.7,1.7,7.1,2.8  c1.3,1.1,2,2.7,2,4.8c0,2.2-0.8,3.9-2.4,5.2s-3.8,1.9-6.6,1.9c-4,0-7.5-1.4-10.4-4.3c-1.5-1.5-4.6-5.8-5.1-8.7h-7.2v20.8H59l2.1-4.4  c2.1,1.6,4.2,2.7,6.4,3.4c4,1.2,7.5,1.9,10.7,1.9c2.5,0,5.2-0.4,8.2-1.2c3.4-0.9,6.2-2.3,8.3-4.3  C98.3,243.5,100.2,238.8,100.2,233.1z M131.5,231h-7.1v3.9c0,3.6-0.2,6.1-0.6,7.4c-0.4,1.3-1.1,2-2.1,2c-0.9,0-1.5-0.5-2-1.5  c-0.3-0.7-0.4-2.3-0.4-4.7v-21.9h8.7V209h-8.7v-16.2h-8.8c-0.8,10.2-4.2,15.8-10.2,16.8v6.6h4.4v19.7c0,3.4,0.1,5.8,0.4,7.2  c0.2,1.4,0.8,2.8,1.7,4.2c2.1,3.4,5.8,5.2,11,5.2c5.1,0,8.8-1.6,11.2-4.9c1-1.3,1.6-2.6,1.9-4.1c0.3-1.4,0.5-3.5,0.5-6.3V231H131.5z   M169.5,223.6c1.3-1.5,1.9-3.6,1.9-6.1c0-3.4-1.1-6-3.2-7.8c-1.5-1.3-3.4-1.9-5.7-1.9c-1.9,0-3.6,0.4-5,1.2s-3,2.2-4.7,4.2V209H134  v7.2h2.1c1.3,0,2.2,0.3,2.6,0.8c0.4,0.5,0.6,1.7,0.6,3.4v19.1c0,1.7-0.2,2.8-0.6,3.4c-0.4,0.5-1.3,0.8-2.6,0.8h-0.7v7.2H158v-7.2  h-0.5c-1.4,0-2.3-0.3-2.7-0.8s-0.7-1.7-0.7-3.4v-13.2c0-3.6,0.6-6.7,1.8-9c1.2-2.4,2.7-3.6,4.5-3.6c0.5,0,1.3,0.2,2.2,0.7  c-1.3,0.6-2.3,1.3-2.9,2.1c-0.6,0.8-0.9,1.9-0.9,3.3c0,1.4,0.4,2.8,1.3,4c1.1,1.5,2.6,2.3,4.5,2.3  C166.5,225.9,168.2,225.1,169.5,223.6z M216.2,229.8c0-7-2-12.5-5.9-16.5s-9.2-5.9-15.9-5.9c-6.6,0-11.9,2-15.9,5.9  c-3.9,3.9-5.9,9.3-5.9,16.1c0,7.2,2,12.8,5.9,16.7c3.9,4,9.2,6,15.9,6s11.9-2,15.8-6C214.3,242.3,216.2,236.8,216.2,229.8z   M264.2,243.5c-1.3,0-2.2-0.3-2.6-0.8s-0.6-1.7-0.6-3.4v-16.1c0-3.4-0.2-5.9-0.6-7.6c-0.4-1.7-1.1-3.1-2.2-4.3  c-2.2-2.4-5.5-3.6-9.8-3.6c-2.8,0-5.5,0.6-7.9,1.9c-1.9,1-3.9,2.9-6,5.8V209h-17.2v7.2h0.6c1.3,0,2.2,0.3,2.6,0.8  c0.4,0.5,0.6,1.7,0.6,3.4v19.1c0,1.7-0.2,2.8-0.6,3.4c-0.4,0.5-1.3,0.8-2.6,0.8l0,0v7.2H239v-7.2l0,0c-1.3,0-2.1-0.3-2.5-0.8  s-0.6-1.7-0.6-3.4v-14.1c0-3.1,0.5-5.4,1.5-7s2.4-2.4,4.2-2.4c3.2,0,4.8,2.5,4.8,7.5v16.1c0,1.7-0.2,2.8-0.6,3.4  c-0.4,0.5-1.2,0.8-2.5,0.8l0,0v7.2h21.1L264.2,243.5L264.2,243.5z M307.9,212.9c-1.4,1.6-2,3.1-2,4.6c0,1.4,0.5,2.7,1.5,3.6  s2.2,1.5,3.6,1.5c1,0,2-0.3,2.9-0.9c1.6-1.1,2.5-2.9,2.5-5.6c0-2.2-0.7-4.1-2-5.6c-1.7-2-4-3-6.9-3c-1.5,0-2.9,0.3-4.1,0.8  c-1.2,0.6-2.7,1.6-4.4,3.1c-2.2-1.6-4.1-2.6-5.8-3.2c-1.7-0.6-3.7-0.8-6.1-0.8c-4.9,0-8.9,1.2-12,3.5c-3.9,3-5.8,7.4-5.8,13.4  c0,2.4,0.3,4.5,1,6.3s1.9,3.8,3.8,6.2c-2.3,1.2-4,2.5-4.9,3.7s-1.3,2.8-1.3,4.8c0,1.9,0.4,3.5,1.3,4.8c0.8,1.3,2.3,2.7,4.3,4.1  c-2.3,0.8-3.9,1.7-4.9,2.8c-1,1.1-1.4,2.5-1.4,4.3c0,5.8,6.5,8.6,19.4,8.6c8.9,0,14.9-0.9,18-2.8c1.8-1.1,3.2-2.6,4.2-4.5  s1.5-4,1.5-6.3c0-3.8-1.1-6.6-3.4-8.6c-2.2-1.9-5.8-2.9-10.7-2.9c-0.7,0-2.3,0-4.9,0c-1,0-1.8,0-2.4,0c-4.9,0-8.1-0.2-9.5-0.6  c-1.4-0.4-2.1-1.3-2.1-2.7c0-0.6,0.2-1.4,0.7-2.3c3.2,1,5.8,1.6,7.9,1.6c4.7,0,8.9-1.2,12.3-3.6c1.9-1.3,3.3-3.1,4.4-5.4  c1.1-2.3,1.6-4.9,1.6-7.6c0-1.9-0.2-3.5-0.6-4.9s-1.1-3-2.1-4.6c1.9-1.9,3.4-2.9,4.5-2.9C306.5,211.8,307.2,212.2,307.9,212.9z   M312.4,235.9h19v-9.7h-19V235.9z M371.9,191.4H320V209h7.2c0.1-4.1,3.1-7.2,4.7-8.3c1.2-0.8,3.2-1.3,5.8-1.3V236  c0,2.8-0.1,4.5-0.2,5.1s-0.4,1-1,1.3c-1,0.5-1.8,0.7-5.2,0.8v7.6h29v-7.6c-3.4-0.1-4.2-0.4-5.1-0.8c-0.6-0.3-0.9-0.7-1-1.3  s-0.2-2.3-0.2-5.1v-36.5c2.1,0,3.8,0.3,4.9,0.8c1.2,0.5,2.2,1.4,3.1,2.7c0.8,1.2,2.4,2.9,2.5,6.1h7.2v-17.7L371.9,191.4L371.9,191.4  z M396.6,243.5h-0.4c-1.3,0-2.1-0.3-2.5-0.8s-0.6-1.6-0.6-3.4V209h-18.9v7.3h1.2c1.7,0,2.7,0.3,3,0.8c0.4,0.5,0.5,2,0.5,4.4v17.8  c0,1.7-0.2,2.9-0.7,3.4s-1.5,0.8-3,0.8h-1.1v7.2h22.4v-7.2H396.6z M439.5,230.1c0-7-1.7-12.5-5.2-16.5s-8.3-5.9-14.5-5.9  c-6.5,0-11.5,2.1-15,6.4c-3.4,4.1-5,9.4-5,15.8c0,7.4,2.2,13.2,6.6,17.3c3.5,3.3,8,5,13.5,5c10.2,0,16.6-5.2,19-15.6h-9.5  c-0.3,2.1-0.9,3.6-1.6,4.6c-1.5,1.8-3.6,2.7-6.4,2.7c-2.7,0-4.7-1-5.9-3.1c-0.6-1-1.1-2.2-1.3-3.5c-0.3-1.3-0.4-3.1-0.5-5.6h25.8  C439.4,230.8,439.5,230.2,439.5,230.1z M456.9,279.8c0-4.2-3.4-7.4-7.5-7.4s-7.5,3.2-7.5,7.4c0,4.3,3.4,7.5,7.5,7.5  S456.9,284.1,456.9,279.8z" fill="#FF5308" id="ST_normal_R"/>
<path d="M23,23v118.5h445.5V23H23z M79.4,114.2c-13.6,0-25.6-6-25.7-21.1h15.4c0.3,7,4.6,9.2,11.2,9.2  c4.6,0,9.4-1.7,9.4-6c0-5.2-8.4-6.2-17-8.6c-8.4-2.4-17.3-6.2-17.3-17.1c0-12.9,13-18,24.1-18c11.8,0,23.6,5.7,23.7,19H87.8  c0.2-5.4-4.8-7.1-9.5-7.1c-3.3,0-7.4,1.2-7.4,5c0,4.6,8.5,5.4,17.1,7.8c8.5,2.4,17.1,6.4,17.1,17.1  C105.1,109.4,92.4,114.2,79.4,114.2z M127.7,112.9h-15.4V53.8h15.4V112.9z M203.8,112.9h-14.5V68.1h-0.2L176.7,113H165l-12.4-44.9  h-0.2V113h-14.5V53.8h22.7l10.2,39.4h0.2l10.2-39.4h22.7L203.8,112.9L203.8,112.9z M241.1,93.2h-12.7v19.7H213V53.8h28.1  c11,0,21.4,5,21.4,19C262.5,87.5,254.1,93.2,241.1,93.2z M290.7,114.2c-13.6,0-25.6-6-25.7-21.1h15.4c0.3,7,4.6,9.2,11.2,9.2  c4.6,0,9.4-1.7,9.4-6c0-5.2-8.4-6.2-17-8.6c-8.4-2.4-17.3-6.2-17.3-17.1c0-12.9,13-18,24.1-18c11.8,0,23.6,5.7,23.7,19h-15.4  c0.2-5.4-4.8-7.1-9.5-7.1c-3.3,0-7.5,1.2-7.5,5c0,4.6,8.5,5.4,17.1,7.8c8.5,2.4,17.1,6.4,17.1,17.1  C316.5,109.4,303.7,114.2,290.7,114.2z M350.6,114.2c-18.6,0-29.1-13.7-29.1-30.8s10.5-30.8,29.1-30.8s29.1,13.7,29.1,30.8  S369.2,114.2,350.6,114.2z M437.2,112.9h-15.8l-20.5-36.8h-0.2v36.8h-14.5V53.8H402l20.5,36.4h0.2V53.8h14.5V112.9z M247.1,73.9  c0,5.4-3.5,7.4-8.3,7.4h-10.3V66.2h10.3C243.5,66.2,247.1,68.4,247.1,73.9z M364.3,83.4c0,8.8-3.8,17.6-13.7,17.6  c-9.9,0-13.7-8.8-13.7-17.6s3.8-17.6,13.7-17.6S364.3,74.6,364.3,83.4z" id="SIMPSON_-BLACK_2_"/>
<g id="Guides">
</g>
</svg>
