<?xml version="1.0" encoding="UTF-8" standalone="no"?>
<svg
   xmlns:svg="http://www.w3.org/2000/svg"
   xmlns="http://www.w3.org/2000/svg"
   version="1.1"
   width="832.5575"
   height="118.05623"
   id="svg3346">
  <defs
     id="defs3348" />
  <g
     transform="translate(87.707321,-444.76264)"
     id="layer1">
    <path
       d="m -86.707321,561.22842 115.7458,0 0,-115.31361 -115.7458,0 0,115.31361 z"
       id="path132"
       style="fill:#000000;fill-opacity:1;fill-rule:nonzero;stroke:none" />
    <path
       d="m -76.231459,456.25675 94.921898,0 0,94.62364 -94.921898,0 0,-94.62364 z"
       id="path134"
       style="fill:#ffe600;fill-opacity:1;fill-rule:nonzero;stroke:none" />
    <path
       d="m -67.926926,465.14145 0,13.09939 10.481949,0 0,50.80885 -10.481949,0 0,13.11156 65.6613146,0 10.329772,-10.34194 0,-56.34809 -10.329772,-10.32977 -65.6613146,0 z m 23.873521,13.09939 38.5859896,0 0,50.80885 -38.5859896,0 0,-50.80885 z"
       id="path138"
       style="fill:#000000;fill-opacity:1;fill-rule:nonzero;stroke:none" />
    <path
       d="m 743.85018,561.81887 -689.921641,0 0,-116.05623 689.921641,0 0,116.05623 z"
       id="path140"
       style="fill:#ffe600;fill-opacity:1;fill-rule:nonzero;stroke:none" />
    <path
       d="m 104.6718,479.29855 c -7.586781,0.006 -15.199891,0.0252 -15.312501,0.0312 -5.76446,0.16435 -12.40625,2.69752 -12.40625,9.84375 l 0,8.25 c 0,7.35319 8.37812,9.8125 15.5,9.8125 l 26.875001,0 c 2.27048,0 4.65625,1.05691 4.65625,6.21875 0,2.06352 -0.30297,6.1875 -6.71875,6.1875 l -18.593751,0 c -10.1289,0 -12.65625,-0.0658 -12.65625,-9.0625 l -9.34375,-0.125 c 0,0.15218 0.16722,7.02457 0.34375,9.34375 0.36522,4.65661 5.04077,7.59375 15.4375,7.59375 l 25.312501,0 c 6.98188,0 16.03125,-1.70096 16.03125,-10.84375 l 0,-8.25 c 0,-4.55313 -2.53554,-8.8125 -13.4375,-8.8125 l -22.218751,0 c -7.49928,0 -11.375,0.0639 -11.375,-6.1875 0,-3.61572 2.0109,-6.11527 5.6875,-6.21875 5.31402,-0.15826 16.805461,-0.26174 23.781251,0 5.16793,0.15218 6.90831,1.87511 7.21875,7.25 l 9.84375,0 0,-4.65625 c 0,-11.85154 -13.39571,-10.26462 -13.46875,-10.34375 -0.0304,-0.0304 -7.56947,-0.0373 -15.15625,-0.0312 z m 155.5625,0.25 0,30.75 c -0.073,-0.42001 0.28748,9.28125 -6.71875,9.28125 l -24.375,0 c -3.36007,0 -7.75,-0.76812 -7.75,-7.75 l 0,-32.125 -10.34375,0 0,34.625 c 0,8.12016 6.10257,13.4375 13.4375,13.4375 l 32.5625,0 c 7.35319,0 13.4375,-5.12407 13.4375,-16.53125 l 0,-31.6875 -10.25,0 z m 147.71875,0.1875 0,47.96875 50.125,0 0,-8.78125 -40.3125,0 0,-11.875 38.75,0 0,-8.78125 -38.75,0 0,-10.28125 40.8125,0 0,-8.25 -50.625,0 z m -63.375,0.0625 -0.0937,47.875 10.3125,0 0,-17.875 30.625,0 c 3.6766,0 5.6875,2.60049 5.6875,5.1875 l 0,12.8125 9.3125,0 0,-18.0625 c -0.28609,-1.64351 -0.83189,-2.28949 -4.125,-3.53125 3.7192,-2.6357 5.15625,-5.44112 5.15625,-9.3125 l 0,-5.15625 c 0,-8.72887 -7.48724,-11.90625 -9.8125,-11.90625 l -47.0625,-0.0312 z m -44.59375,0.0625 -27.875,47.8125 11.5625,0 6.3125,-10.59375 32.6875,0 c -0.067,-0.0609 6.74756,10.50081 6.65625,10.53125 l 11.8125,0 -29.78125,-47.75 -11.375,0 z m 197.625,0.0937 0,8.25 c 0.0244,0.006 7.92044,0.006 7.75,0 0.0365,-0.0122 -0.0426,30.71875 0,30.71875 l -8.28125,0 c -0.006,0 -0.006,8.70821 0,8.78125 l 55.8125,0 c 7.42624,0 13.96875,-4.70696 13.96875,-12.90625 l 0,-19.34375 c 0,-7.80972 -3.19932,-15.5 -20.6875,-15.5 l -48.5625,0 z m -343.3125,0.0313 c -10.4576,0 -13.99919,3.22275 -13.96875,15.28125 0,1.0348 0.0122,12.59696 0,20.65625 -0.0304,7.00014 4.07353,11.90625 17.5625,11.90625 l 32.5625,0 c 4.30356,0 8.78125,-2.59375 8.78125,-2.59375 l 4.3125,2.5 4.875,-7.9375 c 0,-0.0609 -4.57266,-2.96185 -4.71875,-2.9375 -0.10348,0.006 0.1875,-0.62836 0.1875,-22.9375 0,-10.06803 -2.96229,-13.9375 -16.03125,-13.9375 l -33.5625,0 z m 4.65625,7.96875 25.8125,0.28125 c 8.22364,0 9.3125,1.12997 9.3125,10.65625 0,0.50523 -0.0235,12.39853 0.0312,12.34375 0,0.0365 -16.02598,-9.75609 -16.0625,-9.75 l -4.875,8 16.9375,10.28125 -30.15625,-0.21875 c -9.66628,0 -9.92777,-0.85142 -10.03125,-8.84375 l 0.0625,-13.46875 c 0,-8.9054 0.0816,-9.28125 8.96875,-9.28125 z m 196,0.15625 31,0 c 3.46355,0 5.15625,1.84488 5.15625,5.15625 l 0,5.1875 c 0,1.02872 0.009,2.50939 -1.53125,3.09375 l -34.625,0 0,-13.4375 z m 176.9375,0.59375 c 8.12549,0.008 16.26462,0.0312 16.34375,0.0312 8.47321,0 9.3125,5.16553 9.3125,8.78125 l 0,13.65625 c 0,8.64974 -9.87337,7.80478 -9.8125,7.75 -0.0548,0 -32.01908,-0.006 -32.03125,0 -0.067,0 0.0183,-30.16924 0,-30.1875 -0.0274,-0.0304 8.06201,-0.0389 16.1875,-0.0312 z m -226.21875,1.03125 c 0.31044,0.45653 10.75047,17.21117 11.46875,18.5625 l -22.09375,0 c 0.20696,-0.46871 9.23715,-17.16856 10.625,-18.5625 z"
       id="path156"
       style="fill:#000000;stroke:#000000;stroke-width:0.68783987;stroke-linecap:butt;stroke-linejoin:miter;stroke-miterlimit:4;stroke-opacity:1;stroke-dasharray:none" />
  </g>
</svg>
